<?xml version="1.0" encoding="utf-8"?>
<!-- Generator: Adobe Illustrator 18.1.1, SVG Export Plug-In . SVG Version: 6.00 Build 0)  -->
<svg version="1.1" id="Layer_1" xmlns="http://www.w3.org/2000/svg" xmlns:xlink="http://www.w3.org/1999/xlink" x="0px" y="0px"
	 viewBox="0 0 841.9 595.3" enable-background="new 0 0 841.9 595.3" xml:space="preserve">
<g>
	<path fill="#4ABB89" d="M172.4,344c-1.4-3.5-3.1-8-5.3-13.6c-2.2-5.6-4.7-12-7.6-19.2c-2.9-7.2-5.8-14.6-8.8-22.1
		c-3-7.6-6-15.1-9-22.5c-3-7.4-5.7-14.2-8.1-20.3c-0.9-2.2-1.7-4.3-2.4-6.3l-2.5,7.1l40.9,103.2c0.3,1.1,1.1,1.6,2.5,1.6
		c0.7,0,1.2-0.2,1.7-0.7c0.5-0.5,0.7-1.1,0.7-1.7C174.4,349.3,173.8,347.5,172.4,344z"/>
	<path fill="#4ABB89" d="M224.2,305.3v47.4c0,0.7,0.3,1.2,0.8,1.7c0.5,0.5,1.1,0.7,1.7,0.7c0.6,0,1.2-0.2,1.7-0.7
		c0.5-0.4,0.8-1,0.8-1.8v-40.2L224.2,305.3z"/>
	<path fill="#4ABB89" d="M229,222.8c-0.4-0.8-1.1-1.1-2-1.1c-0.7,0-1.3,0.2-1.7,0.7c-0.4,0.5-0.6,1.1-0.6,1.7c0,0.7,0.2,1.2,0.5,1.6
		l48.8,67.9l3-4.3L229,222.8z"/>
	<path fill="#4ABB89" d="M348.4,271.4v78c0,0.7,0.2,1.2,0.7,1.7c0.4,0.5,1,0.7,1.6,0.7c0.7,0,1.2-0.2,1.7-0.7
		c0.5-0.5,0.7-1.1,0.7-1.7v-84.6L348.4,271.4z"/>
	<path fill="#4ABB89" d="M478.1,221.9c-0.5-0.5-1.1-0.7-1.8-0.7c-0.7,0-1.3,0.2-1.8,0.7c-0.5,0.5-0.8,1.1-0.8,1.7v95.8
		c0,1.4-0.1,2.8-0.3,4.1v13.9c1.1-1.7,2.1-3.5,2.9-5.5c1.6-3.9,2.5-8.1,2.5-12.4v-95.9C478.8,222.9,478.6,222.4,478.1,221.9z"/>
	<path fill="#4ABB89" d="M434.5,346.8c-3.7,0-7.2-0.7-10.5-2.2c-3.3-1.5-6.2-3.5-8.7-6c-2.5-2.5-4.5-5.4-5.9-8.7
		c-1.5-3.3-2.2-6.8-2.2-10.5v-95.8c0-0.7-0.3-1.2-0.8-1.7c-0.5-0.5-1.1-0.7-1.8-0.7c-0.7,0-1.3,0.2-1.8,0.7
		c-0.5,0.5-0.8,1.1-0.8,1.7v95.9c0,4.5,0.8,8.7,2.5,12.6c1.7,3.9,4,7.4,7,10.3c2.9,2.9,6.4,5.3,10.3,6.9c2.3,1,4.8,1.7,7.3,2.1
		l6.2-4.6H434.5z"/>
	<path fill="#4ABB89" d="M613.1,346.4H556l-3.7,5.1h60.8c0.7,0,1.2-0.2,1.8-0.7c0.5-0.4,0.8-1,0.8-1.8
		C615.7,347.3,614.9,346.4,613.1,346.4z"/>
	<path fill="#4ABB89" d="M616,226.1l0.4-0.6c0.2-0.4,0.4-0.7,0.5-0.9c0.1-0.2,0.2-0.5,0.2-1.1c0-0.8-0.3-1.4-0.8-1.8
		c-0.5-0.4-1.1-0.7-1.8-0.7h-93.6c-0.7,0-1.3,0.2-1.8,0.7c-0.5,0.4-0.8,1-0.8,1.8c0,0.8,0.2,1.4,0.7,2c0.5,0.5,1.1,0.8,1.9,0.8
		L616,226.1z"/>
	<path fill="#4ABB89" d="M662.2,281.6h66.4c0.4-0.1,0.7-0.3,1-0.6c0.5-0.5,0.7-1.1,0.7-1.8c0-0.7-0.2-1.3-0.7-1.8
		c-0.5-0.5-1.1-0.8-1.7-0.8h-60.6v-30.5h-5.1V281.6z"/>
	<path fill="#4ABB89" d="M746,226c0.3-0.1,0.5-0.3,0.7-0.5c0.5-0.5,0.7-1.1,0.7-1.8c0-0.7-0.2-1.3-0.7-1.8c-0.5-0.5-1.1-0.8-1.7-0.8
		h-80.1c-0.7,0-1.3,0.2-1.9,0.7c-0.6,0.4-0.8,1-0.8,1.8v2.4H746z"/>
	<path fill="#4ABB89" d="M745,346.3h-77.8l0.1-25.7h-5.2v28.4c0,0.8,0.3,1.4,0.8,2c0.5,0.5,1.2,0.8,1.9,0.8H745
		c0.8,0,1.4-0.3,1.8-0.9c0.4-0.6,0.7-1.2,0.7-1.9c0-0.7-0.2-1.3-0.7-1.9C746.2,346.6,745.6,346.3,745,346.3z"/>
</g>
<g>
	<path fill="#683789" d="M163.7,363.7c0,0.7-0.2,1.2-0.7,1.7c-0.5,0.5-1.1,0.7-1.7,0.7c-1.3,0-2.1-0.5-2.5-1.6l-47.5-119.9
		l-5.4,13.9c0.4,0.9,1.4,3.1,2.8,6.5c1.4,3.5,3.2,7.8,5.2,12.8c2.1,5.1,4.3,10.7,6.7,16.8c2.4,6.2,4.8,12.4,7.4,18.7
		c2.5,6.3,4.9,12.5,7.3,18.5c2.3,6,4.4,11.3,6.2,16c1.8,4.7,3.2,8.5,4.3,11.4c1.1,2.9,1.6,4.4,1.6,4.5c0,1.2-0.5,2-1.6,2.3
		c-0.2,0-0.4,0-0.5,0.1c-0.1,0.1-0.3,0.1-0.5,0.1c-1.1,0-1.9-0.5-2.3-1.6l-39.2-99l-38.1,99c-0.4,1.1-1.3,1.6-2.5,1.6
		c-0.2,0-0.4,0-0.4-0.1c-0.1-0.1-0.2-0.1-0.4-0.1c-1.1-0.3-1.6-1.1-1.6-2.5c0-0.1,0.7-1.9,2-5.4c1.3-3.5,3-8,5.1-13.6
		c2.1-5.6,4.6-11.9,7.4-19.1c2.8-7.2,5.6-14.6,8.5-22.1c2.9-7.6,5.8-15.1,8.7-22.5c2.9-7.4,5.5-14.2,7.8-20.3
		c2.3-6.2,4.3-11.3,6-15.5c1.6-4.2,2.7-6.9,3.1-8.1c0.4-1,1.3-1.5,2.5-1.5c1.2,0,2,0.5,2.3,1.5c0.4,1.2,1.5,3.9,3.2,8.1
		c1.7,4.2,3.7,9.4,6.1,15.5c2.4,6.2,5.1,12.9,8.1,20.3c3,7.4,6,14.9,9,22.5c3,7.6,5.9,15,8.8,22.1c2.9,7.2,5.4,13.6,7.6,19.2
		c2.2,5.6,3.9,10.2,5.3,13.6C163.1,361.8,163.7,363.6,163.7,363.7z"/>
	<path fill="#683789" d="M282.9,363.7c0,0.7-0.3,1.2-0.8,1.7c-0.5,0.5-1.1,0.7-1.8,0.7c-0.9,0-1.5-0.3-2-1L212.6,273v89.9
		c0,0.8-0.3,1.4-0.8,1.8c-0.5,0.4-1.1,0.7-1.7,0.7c-0.6,0-1.2-0.2-1.7-0.7c-0.5-0.5-0.8-1.1-0.8-1.7v-97.4c0-0.8,0.2-1.5,0.6-2.1
		c0.4-0.7,1-1,1.9-1c0.8,0,1.5,0.4,1.9,1.1c0.8,1.1,2.4,3.3,4.8,6.6c2.5,3.3,5.4,7.4,8.8,12.2c3.4,4.8,7.2,10.1,11.4,15.8
		c4.2,5.8,8.4,11.6,12.7,17.6c4.2,5.9,8.4,11.7,12.3,17.3c4,5.6,7.5,10.6,10.6,15c3.1,4.4,5.6,8,7.4,10.9
		C281.9,361.8,282.9,363.4,282.9,363.7z M336.6,237.7c0,0.5-0.1,0.9-0.2,1v125c0,0.7-0.2,1.2-0.7,1.7c-0.5,0.5-1.1,0.7-1.7,0.7
		s-1.2-0.2-1.6-0.7c-0.4-0.5-0.7-1.1-0.7-1.7v-118l-56.4,78.9c0.4,0.8,1.4,2.2,2.9,4.2c1.5,2.1,3.3,4.5,5.3,7.3
		c2,2.8,4.2,5.7,6.5,8.7c2.3,3,4.4,5.8,6.2,8.5c1.9,2.7,3.4,4.9,4.7,6.8c1.3,1.9,1.9,3,1.9,3.4c0,0.8-0.3,1.4-0.8,1.9
		c-0.5,0.5-1.1,0.7-1.8,0.7c-0.9,0-1.5-0.3-2-1L208.4,240c-0.3-0.4-0.5-1-0.5-1.6c0-0.7,0.2-1.2,0.6-1.7c0.4-0.5,1-0.7,1.7-0.7
		c0.9,0,1.6,0.4,2,1.1l60,83.3l59.8-84c0.4-0.7,1-1,1.8-1c0.7,0,1.3,0.2,1.9,0.7C336.3,236.5,336.6,237.1,336.6,237.7z"/>
	<path fill="#683789" d="M462.1,333.8c0,4.4-0.8,8.5-2.5,12.4c-1.6,3.9-3.9,7.4-6.8,10.3s-6.3,5.3-10.2,7c-3.9,1.7-8,2.6-12.4,2.6
		h-12.6c-4.5,0-8.7-0.8-12.6-2.5c-3.9-1.7-7.4-4-10.3-6.9c-2.9-2.9-5.3-6.4-7-10.3c-1.7-3.9-2.5-8.1-2.5-12.6v-95.9
		c0-0.7,0.3-1.2,0.8-1.7c0.5-0.5,1.1-0.7,1.8-0.7c0.7,0,1.3,0.2,1.8,0.7s0.8,1.1,0.8,1.7v95.8c0,3.7,0.7,7.2,2.2,10.5
		c1.5,3.3,3.4,6.2,5.9,8.7c2.5,2.5,5.4,4.5,8.7,6c3.3,1.5,6.8,2.2,10.5,2.2h12.6c3.7,0,7.2-0.7,10.4-2.2c3.3-1.5,6.1-3.5,8.5-6
		c2.4-2.5,4.3-5.4,5.7-8.7c1.4-3.3,2.1-6.8,2.1-10.5v-95.8c0-0.7,0.3-1.2,0.8-1.7c0.5-0.5,1.1-0.7,1.8-0.7c0.7,0,1.3,0.2,1.8,0.7
		c0.5,0.5,0.8,1.1,0.8,1.7V333.8z"/>
	<path fill="#683789" d="M600.3,237.9c0,0.5-0.1,0.9-0.2,1.1c-0.1,0.2-0.3,0.5-0.5,0.9l-93.1,125c-0.5,0.7-1.3,1-2.1,1
		c-0.7,0-1.3-0.2-1.8-0.7c-0.5-0.5-0.8-1.1-0.8-1.9c0-0.3,1.2-2.2,3.6-5.6c2.4-3.4,5.6-7.8,9.6-13.2c4-5.4,8.5-11.5,13.6-18.5
		c5.1-6.9,10.4-14,15.8-21.3c5.4-7.3,10.8-14.5,16.2-21.7c5.3-7.1,10.2-13.6,14.7-19.5c4.5-5.9,8.3-10.9,11.4-15
		c3.1-4.1,5.1-6.8,6-8l-88.6,0.2c-0.8,0-1.4-0.3-1.9-0.8c-0.5-0.5-0.7-1.2-0.7-2c0-0.8,0.3-1.4,0.8-1.8c0.5-0.4,1.1-0.7,1.8-0.7
		h93.6c0.7,0,1.3,0.2,1.8,0.7C600.1,236.5,600.3,237.1,600.3,237.9z M600.3,265.8c0,0.5-0.2,1-0.7,1.5l-70.4,93.8h67.2
		c1.7,0,2.6,0.9,2.6,2.6c0,0.8-0.3,1.4-0.8,1.8c-0.5,0.4-1.1,0.7-1.8,0.7h-72.1c-0.7,0-1.3-0.2-2-0.7c-0.7-0.5-1-1.1-1-1.9
		c0-0.7,0.2-1.2,0.7-1.6l73.5-97.7c0.4-0.7,1.1-1,2-1c0.8,0,1.4,0.2,2,0.7C600.1,264.5,600.3,265.1,600.3,265.8z"/>
	<path fill="#683789" d="M730.7,363.4c0,0.7-0.2,1.3-0.7,1.9c-0.4,0.6-1,0.9-1.8,0.9h-80.1c-0.8,0-1.4-0.3-1.9-0.8
		c-0.5-0.5-0.8-1.2-0.8-2V237.9c0-0.8,0.3-1.4,0.8-1.8c0.6-0.4,1.2-0.7,1.9-0.7h80.1c0.7,0,1.2,0.3,1.7,0.8c0.5,0.5,0.7,1.1,0.7,1.8
		c0,0.7-0.2,1.3-0.7,1.8c-0.5,0.5-1.1,0.8-1.7,0.8h-77.8V291h60.6c0.7,0,1.2,0.3,1.7,0.8c0.5,0.5,0.7,1.1,0.7,1.8
		c0,0.7-0.2,1.3-0.7,1.8c-0.5,0.5-1.1,0.8-1.7,0.8h-60.3l-0.2,11.3h61.1c1.7,0,2.6,0.8,2.6,2.5c0,0.6-0.3,1.2-0.8,1.7
		c-0.5,0.5-1.1,0.8-1.8,0.8h-61.3v48.2h77.8c0.7,0,1.2,0.3,1.7,0.9C730.5,362.1,730.7,362.7,730.7,363.4z"/>
</g>
</svg>
