<?xml version="1.0" encoding="utf-8"?>
<!-- Generator: Adobe Illustrator 18.1.1, SVG Export Plug-In . SVG Version: 6.00 Build 0)  -->
<svg version="1.1" id="Layer_1" xmlns="http://www.w3.org/2000/svg" xmlns:xlink="http://www.w3.org/1999/xlink" x="0px" y="0px"
	 viewBox="0 0 500 500" enable-background="new 0 0 500 500" xml:space="preserve">
<g>
	<path fill="#5E8423" d="M379,208.2c1,0.1,1.5-0.6,2-1.2c1.2-1.7,2.4-3.3,3.5-5c1.1-1.6,2.4-3.2,3.5-4.9c0.6-0.8,1.2-1.6,2-2.2
		c1.5-1.3,2.9-2.7,4.4-4.1c0.7-0.6,1.3-1.4,1.8-2.2c3.7-6,7.3-12.1,11-18.1c0.4-0.6,0.7-1.3,1.1-1.9c1.2-0.7,1.4,0,1.4,1
		c-0.7,1.5-1.3,3.1-2,4.6c-2.6,5.9-5.3,11.9-8,17.8c-1.6,3.6-3.4,7.3-4.9,10.9c-0.7,1.5-1.5,2.9-2,4.5c-0.8,0.9-0.9,2-1.5,3
		c-0.5,0.9-0.9,1.9-1.2,2.9c-0.5,1.7-1.3,3.3-2.6,4.6c-1.2,1.3-2.2,2.7-3.3,4.1c-1.5,1.9-3.1,3.8-4.6,5.7c-1.1,1.4-2.3,2.7-3.2,4.3
		c-0.4,0.8-1.1,1.4-1.6,2.1c-2.2,3.1-4.7,5.9-7,8.9c-1.1,1.4-2.2,2.8-3.3,4.2c-2.2,2.8-4.4,5.7-6.7,8.6c-1.8,2.3-3.7,4.6-5.5,6.9
		c-2.1,2.6-4.1,5.3-6.1,7.9c-1.3,1.6-2.5,3.2-3.8,4.9c-1.8,2.2-3.5,4.4-5.3,6.7c-0.5,0.6-1,1-1.6,1.4c-1.7,1-3.3,2-5,3.1
		c-0.8,0.5-1.5,1.1-2.3,1.7c-0.1,0.1-0.2,0.3-0.4,0.3c-1,0.2-1.6,1.2-2.4,1.7c-0.8,0.5-1.4,1.2-2.1,1.9c-1.6-1-2.7-2.4-4-3.8
		c-1.9-2.1-4-4.1-6.1-6.1c-1.3-1.2-2.4-2.8-3.6-4.2c-2.7-3.1-5.5-6.1-8.4-9c-2-2.2-3.8-4.6-6-6.6c-1-1.2-2.2-2.3-3.4-3.5
		c-2.8-2.8-4.6-6.3-6.6-9.6c-2-3.4-3.7-7.1-6.4-10.1c-1.2-1.3-1.8-2.9-2.3-4.6c-0.6-1.9-1.4-3.7-2.6-5.2c-2.2-2.7-2.3-5.8-1.8-9
		c0.7-1.6,0.8-3.2,1.2-4.9c0.4-1.6,0.8-1.9,2.4-1.6c4.8,1,9.6,2.1,14.3,3.3c1.7,0.4,2.1,1.1,1.8,3c-0.5,3.4-1.1,6.8-1.7,10.2
		c-0.3,1.8-0.2,2,1.7,1.5c5.4-1.3,10.8-2.6,16.2-3.9c1.3-0.3,2.5-0.9,3.5-1.8c6.8-5.6,13.5-11.3,20.2-16.9c0.7-0.6,1.3-1.2,2.2-1.4
		c0.9,0.9,1.4,2.1,2.2,3c1,1.1,2,2.1,3.5,2.6c1.8,0.6,3.5,1.4,4.9,2.7c3,3.1,5.4,6.8,8.9,9.4c2.3,1.7,4.8,3.3,7.9,2.5
		c0.6-0.2,1.3-0.4,1.6-1c0.1-0.3,0.2-0.6,0.5-0.7c2,1.2,3.7,0.6,5.2-1c1.1-1.1,2.1-2.3,4-1.9c0.8,0.1,1.3-0.6,1.6-1.3
		c1.2-2.8,3.3-5,5.1-7.4c1.2-1.6,1.3-3,0.1-4.7C379.3,209.9,378.5,209.3,379,208.2z"/>
	<path fill="#ADD145" d="M334.5,208.5c-1.4,1.1-2.8,2.2-4.1,3.3c-1.8,1.5-3.6,3-5.4,4.5c-1,0.8-1.9,1.7-2.9,2.5
		c-2.5,2.1-4.9,4.1-7.4,6.2c-0.9,0.8-1.9,1.5-2.8,2.4c-0.8,0.8-1.8,1.2-2.9,1.5c-2.9,0.7-5.7,1.3-8.6,2c-3,0.7-5.9,1.4-8.9,2.1
		c-0.2,0-0.3,0.1-0.5,0.1c-1.2,0.2-1.4,0.1-1.2-1.1c0.2-1.7,0.5-3.4,0.8-5.1c0.4-2.2,0.8-4.5,1.2-6.7c0-0.1,0-0.2,0-0.3
		c0.1-1,0.2-1.5-1.3-1.8c-3.4-0.7-6.8-1.5-10.2-2.3c-1.7-0.4-3.3-0.8-5-1.2c-0.5-0.1-0.7,0-0.9,0.5c-0.3,1.4-0.7,2.8-1,4.2
		c-0.1,0.6-0.2,1.1-0.6,1.5c-0.9-1.3-0.8-2.8-0.9-4.3c-0.5-7.9-0.7-15.8-1.5-23.6c-0.3-3-0.3-6.1-1-9.1c-0.1-0.5-0.1-1,0.3-1.4
		c2.5-1.3,5-2.5,7.4-3.8c3.7-1.9,7.5-3.7,11.2-5.6c1.2-0.6,2.4-1.2,3.6-1.8c0.5-0.2,1-0.4,1.6-0.5c2.3-0.3,4.6-0.9,6.9-1.3
		c1.6-0.2,3.2-0.5,4.7-0.8c2.3-0.5,4.7-0.9,7-1.4c2.2-0.4,4.5-0.9,6.7-1.2c2-0.3,3.9-0.8,5.9-1.2c3.2-0.6,6.3-1.2,9.5-1.8
		c2.7-0.5,5.3-1.1,8-1.6c1.5-0.3,3.1-0.5,4.6-0.8c1.9-0.4,3.8-0.8,5.7-1.2c2-0.4,3.9-0.7,5.9-1c3.3-0.6,6.5-1.2,9.8-1.9
		c2.5-0.5,5-1,7.5-1.4c2.3-0.4,4.7-0.8,7-1.2c2-0.4,3.9-0.8,5.9-1.2c1.9-0.4,3.8-0.9,5.7-0.9c0.2,0,0.4-0.1,0.7-0.1
		c2.3,0.8,3,3.2,1.8,6.1c-0.4,0.2-0.7,0.5-1.1,0.7c-5.3,2.5-10.7,5-16,7.5c-2,0.9-3.9,1.9-5.9,2.8c-0.3,0.1-0.7,0.3-0.8,0.5
		c-0.5,0.7-1.3,1-2,1.4c-2,1-4,2.1-6,3.3c-0.8,0.5-1.5,1.2-2.1,1.9c-2.7,2.8-5.3,5.7-7.9,8.6c-0.7,0.7-1.3,1.5-2,2.3
		c-0.2,0.2-0.3,0.6-0.5,0.8c-1.3,1.5-3.3,1.8-5,2.4c-1,0.4-2.1,0.7-3.2,0.9c-2.5,0.5-4,2.2-5.3,4.2c-1.3,2-2.6,4.1-3.2,6.5
		c-0.4,1.7-0.2,3.3-0.4,4.9C335.2,207.2,335.4,208.1,334.5,208.5z"/>
	<path fill="#27C1F1" d="M231.2,270.6c-1.7-1.2-3.3-2.4-5-3.6c-1.6-1.1-3.1-2.3-4.7-3.4c-0.5-0.4-1.1-0.7-1.7-1.1
		c-0.5-0.4-1-0.9-1.7-1c-0.5-0.2-0.9-0.8-1.6-0.9c-0.7-0.8-1.7-0.9-2.5-1.5c-0.8-0.5-1.8-0.8-2.7-1.2c-0.3-0.1-0.5-0.2-0.7-0.4
		c-0.4-0.3-0.8-0.5-1.4-0.6c-0.3,0-0.5-0.2-0.7-0.3c-0.1-0.1-0.3-0.3-0.4-0.3c-1.2-0.2-2.1-1.1-3.2-1.3c-0.3-0.1-0.5-0.2-0.7-0.4
		c-0.4-0.3-0.8-0.4-1.2-0.5c-0.3-0.1-0.6-0.2-0.9-0.4c-0.1-0.1-0.3-0.2-0.4-0.3c-0.6-0.2-1.2-0.1-1.7-0.4c-0.5-0.3-0.9-0.6-1.5-0.6
		c-0.2,0-0.4,0-0.5-0.1c-0.9-0.6-1.8-0.9-2.8-0.8c-0.1,0-0.3-0.1-0.4-0.2c-0.4-0.5-0.9-0.6-1.5-0.6c-1.2,0-2.1-0.7-3-1.2
		c-0.6-0.4-1.1-0.9-1.7-1.3c-0.8-0.3-1.6-0.7-1.8-1.7c0-1.8,1.6-2.5,2.7-3.3c2-1.4,3.3-3.2,3.8-5.6c0.1-0.7,0.4-1.3,0.7-1.9
		c1.5-2.3,2.1-5,2.6-7.6c0.1-0.4,0.2-0.8,0.5-1.2c0.3-0.2,0.5-0.4,0.8-0.5c3-1.4,5.8-3.3,8.6-5.1c7.5-5,14.9-10.1,22.4-15.1
		c6.1-4.1,12.2-8.2,18.3-12.3c0.8-0.5,1.6-1,2.4-1.4c1.7-0.9,3.4-1.7,5.1-2.5c0.6,0.3,0.6,0.9,0.7,1.4c0.7,7.3,1.4,14.5,2,21.8
		c0.1,1.2,0.4,2.4,0.3,3.6c0,0.2-0.1,0.3-0.1,0.5c-0.3,0.6-0.8,0.9-1.4,1c-1,0.2-0.9,0.7-0.5,1.4c1.4,2.4,2.9,4.8,4.3,7.3
		c0.1,0.1,0.1,0.3,0.2,0.4c0.1,0.2,0.2,0.4,0.3,0.6c0.1,0.1,0.2,0.2,0.3,0.3c0.1,0.1,0.2,0.2,0.3,0.3c0.1,0.2,0.3,0.4,0.4,0.6
		c5.3,10.8,10.6,21.6,15.7,32.5c1.2,2.5,3.3,3.9,5.1,5.6c0.6,0.5,1.3,0.9,1.3,1.8c-0.2,0.8-0.7,1.2-1.4,1.2c-0.8-0.1-1.5,0-2.3,0.2
		c-4,0.9-7.9,1.8-11.9,2.7c-0.4,0.1-1,0.1-1.2,0.4c-1.5,1.8-3.3,1.3-5,0.6c-1.4-0.6-2.5-0.4-3.5,0.7c-0.8,0.8-1.5,0.8-2.3,0.2
		c-0.8-0.6-1.5-0.7-2.3-0.1c-0.4,0.3-1,0.4-1.4-0.1c-0.6-0.6-0.8-1.4-0.6-2.2c0.1-0.6,0.7-0.7,1.2-0.6c1.2,0.2,2.1-0.7,3.3-0.6
		c0.5,0,0.8,0.5,1.2,0.4c-0.1-0.6-0.6-0.9-1.1-1.2c-2.2-1.4-4.3-2.8-6.4-4.2c-1.2-0.8-2.2-0.9-3.4,0.2c-0.9,0.8-1.7,2-3.1,2.2
		c-1.6-0.6-3.2-1.5-5.1-0.8c-0.3,0.1-0.6,0.1-0.8,0.2C235.8,270,233.3,269.7,231.2,270.6z"/>
	<path fill="#18AEE5" d="M243.6,268.6c0.2-0.2,0.5-0.3,0.7-0.5c1.1-1,2.2-1.9,3.2-2.9c0.4-0.4,0.7-0.4,1.2,0
		c1.9,1.2,3.8,2.5,5.7,3.7c0.7,0.5,1.4,0.9,2.1,1.3c0.5,0.3,0.9,0.8,1.4,1.2c0.4,0.4,0.4,0.9,0.1,1.4c-0.2,0.3-0.4,0.4-0.7,0.1
		c-0.9-1.2-0.8-1.3-2.8-0.6c-0.2,0.1-0.4,0.1-0.4,0.2c-0.4,0.5-0.7,0.4-1.1,0c-0.1-0.1-0.3-0.1-0.5-0.2c-0.2-0.1-0.5,0.2-0.5,0.4
		c0.1,0.6,0.3,1.3,0.5,1.9c0.1,0.2,0.5,0.3,0.7,0.1c0.3-0.3,0.7-0.6,1-0.9c0.3-0.3,0.7-0.3,1.1,0c0.5,0.4,0.9,1,1.6,1.2
		c0.3,0.1,0.6,0.1,0.7-0.2c0.1-0.3,0.3-0.6,0.6-0.7c0.3-0.2,0.6-0.3,0.8-0.5c0.6-0.7,1.2-0.7,2-0.2c1,0.5,2.2,0.7,3.3,1.1
		c0.4,0.1,0.7,0,0.9-0.3c0.2-0.2,0.4-0.4,0.5-0.6c0.2-0.4,0.5-0.6,0.9-0.6c1.3-0.3,2.6-0.6,3.9-0.9c3.3-0.8,6.7-1.6,10-2.3
		c0.5-0.1,1-0.2,1.4,0.2c2.1,2.8,4.5,5.2,6.7,7.9c0.8,1,1.6,0.4,2.4,0.3c1.4,0.4,2.1,1.5,3,2.5c1.8,2.1,3.6,4.1,6,5.6
		c0.5,0.3,1.1,0.7,1.2,1.5c-1,2.2-2.7,3.8-4.6,5.1c-1.1,0.8-2,1.8-3,2.6c-2.2,1.7-4.1,3.4-5.6,5.7c-0.6,0.9-2,1.4-2.9,2.3
		c-0.6,0.6-3,0.2-3.5-0.4c-0.2-0.3-0.3-0.6-0.1-0.9c0.3-1,2.5-2.6,3.6-2.5c0.2,0,0.6,0.3,0.6-0.1c0.1-0.3-0.2-0.5-0.5-0.6
		c-0.7-0.1-1.5-0.2-2.2,0c-1.7,0.5-3.5,1-4.5,2.7c-0.5,0.8-0.4,1.3,0.5,1.7c1.9,0.9,1.9,1.4,0.3,2.8c-0.7,0.6-1.5,1.1-2,2
		c-0.5,0.8-1.2,1.2-2.1,1c-1-0.2-1.5,0.2-1.9,1.2c-0.3,0.7-0.5,1.5-1.2,1.9c-0.9-0.3-1-1.1-1.3-1.8c-1.4-3.5-2.8-7-4.1-10.5
		c-0.8-2.1-1-2.3-3.2-1.5c-4.9,1.7-9.8,3.3-14.7,5c-0.8,0.3-1.6,0.7-2.4,0.4c-2.1-1.1-5.4-0.1-7,2.2c-0.9,1.4-1.8,2.5-3.6,3
		c-1.2,0.3-2.2,1.4-3.2,2.3c-1.3,1.2-2.7,1.4-4.1,0.7c-1.1-0.5-2.2-0.5-3.2-0.1c-1.5,0.6-3,0.7-4.5,0.9c-1.8,0.3-3.8,0.2-5.5,1.3
		c-0.5,0.3-1.2,0.2-1.8,0.1c-2.1-0.2-3.3,0.6-3.8,2.7c-0.3,1.6-1,2.9-2.5,3.7c-0.6,0.3-0.9,1.1-1.4,1.7c-1,1.3-2.1,2.6-4,2.6
		c-0.7,0-1.2,0.3-1.4,1c-0.4,1.2-1.3,1.9-2.4,2.4c-0.9,0.4-1.5,1-1.8,2c-0.3,1-1.1,1.6-1.7,2.4c-0.3,0.4-0.8,0.6-1.3,0.3
		c-0.6-0.4-0.6-0.9-0.3-1.5c0.1-0.2,0,0,0.1-0.1c0.4-0.7,1.3-1.6,0.4-2.3c-0.9-0.7-1.6,0.4-2.3,0.8c-1.3,0.7-2.4,1.9-3.8,2.5
		c-0.4-0.4-0.4-0.9-0.3-1.4c0.1-2,3.2-5,5.3-5.1c1,0,2,0.1,3,0.3c2.1,0.4,3.4-0.3,4.1-2.3c0.4-1.1,1.1-1.8,2.3-2
		c1-0.1,1.7-0.7,2.1-1.6c0.4-0.8,0.9-1.5,1.5-2.2c0.6-0.7,0.6-1.3-0.4-1.6c-0.5-0.2-1.1-0.4-1.2-1c0-0.2,0-0.3,0.2-0.5l0,0
		c0.1-0.1,0.2-0.2,0.3-0.3l0.1-0.1c0-0.1,0.1-0.2,0.2-0.3c0-0.1,0.1-0.1,0.2-0.1c0.3-0.2,0.8,0,1.1-0.3l0,0c0.1-0.1,0.2-0.2,0.3-0.3
		l0.1-0.1c0.1-0.1,0.1-0.2,0.3-0.3l0,0c0.1-0.1,0.2-0.2,0.3-0.3c0.2,0,0.4-0.1,0.6-0.1c0.2-0.1,0.6-0.1,0.8-0.3l0,0
		c0.1-0.1,0.2-0.2,0.3-0.3l0,0c0.1-0.1,0.2-0.2,0.3-0.3c0.2,0,0.4-0.1,0.5-0.1c0.3-0.1,0.6-0.1,0.8-0.3l0,0c0.1-0.1,0.2-0.2,0.4-0.3
		c0.1-0.1,0.1-0.2,0.2-0.3c0.9-0.5,1.8-1.1,2.7-1.6c0.5-0.3,1.1-0.4,1.6-0.8c0.2-0.2,0.5-0.3,0.7-0.4c0.6-0.1,1.1-0.3,1.6-0.8
		c0.3-0.3,0.8-0.4,1.2-0.5c0.2-0.1,0.5-0.1,0.6-0.2c0.7-0.9,2-0.8,2.7-1.5c0.3-0.3,0.7-0.4,1-0.6c0.4-0.2,0.8-0.4,1.2-0.6
		c0,0,0.1-0.1,0.1-0.1c0.5-0.2,1-0.4,1.5-0.7c0.4-0.3,0.7-0.7,1.1-1c0.8-0.6,1.7-1,2.4-1.8c0.2-0.2,0.4-0.4,0.7-0.4
		c0.9-0.1,1.5-0.8,2-1.4c1.6-1.9,3.3-3.8,4.9-5.7c1.4-1.6,2.9-3.2,4.1-5c0.3-0.5,0.7-0.8,1.1-1.2c0.6-0.7,1.2-1.4,1.5-2.3
		c0.1-0.4,0.4-0.8,0.7-1.1c0.3-0.5,0.3-1-0.2-1.4c-0.5-0.4-0.7-0.9-0.8-1.4c-0.2-0.5-0.5-1-0.7-1.5c-0.2-0.8,0.5-1.1,0.9-1.4
		c1.4-1.3,1.9-2.9,1.8-4.8c-0.1-1.3-0.7-1.7-1.9-1.2c-0.4,0.2-0.7,0.4-1.1,0.4c-0.4,0-0.9,0-1.2-0.4c-0.3-0.5,0-0.9,0.3-1.2
		C241.9,269.7,242.6,268.9,243.6,268.6z"/>
	<path fill="#13BAED" d="M272.3,312.1c0.1-0.4,0.1-0.8,0.3-1.1c0.4-0.6,0.6-1.1,0.8-1.8c0.1-0.6,0.6-0.8,1.1-0.7
		c0.4,0.1,0.9,0.2,1.3,0.3c0.5,0.1,0.9-0.1,1.1-0.5c0.5-1.3,1.7-1.8,2.6-2.7c0.2-0.2,0.4-0.2,0.5-0.4c0.3-0.3,0.2-0.8-0.1-1
		c-0.4-0.3-0.8-0.3-1.3-0.4c-1-0.1-1.4-1.2-0.8-2c0.2-0.2,0.4-0.4,0.6-0.6c0.3-0.2,0.2-0.4,0.1-0.7c-0.2-0.5-0.1-0.7,0.3-0.7
		c0.2,0,0.3,0,0.5,0c0.7,0.1,1.3-0.1,1.8-0.7c0.4-0.5,1-0.7,1.6-0.7c0.9,0,1.8,0.1,2.7-0.2c0.3-0.1,0.7,0.1,0.8,0.5c0,0.7,0,1.3,0,2
		c0,0-0.2,0.1-0.3,0.1c-0.3-0.2-0.5-0.4-0.8-0.6c-0.5-0.4-0.7-0.4-1.2-0.1c0,0-0.1,0-0.1,0.1c-0.6,0.8-1.3,1.5-2.1,2.1
		c-0.2,0.2,0,0.7,0.3,0.8c0.7,0.1,1.4,0.1,2,0.6c0.1,0.1,0.5,0,0.6-0.2c0.7-1,1.7-1.7,2.8-2.3c0.6-0.3,0.9-0.7,1.2-1.3
		c0.6-1.7,1.7-3,3.5-3.5c0.5-0.1,1-0.4,1.1-0.9c0.5-1.3,1.6-2,2.7-2.6c1.5-0.9,2.6-2.2,3.8-3.4c0.5-0.5,0.8-1.1,1.2-1.6
		c1.8,0.3,3.7-0.1,5.4,0.9c3.1,2.2,5.8,5,8.8,7.5c1,0.9,2.3,1.4,2.8,2.7c-1,1.4-2.3,2.6-3.6,3.8c-0.9,0.8-1.7,1.6-2.5,2.4
		c-0.9,0.9-2,1.6-2.9,2.4c-0.2,0.1-0.4,0.2-0.6,0.2c-0.4,0.1-0.7,0.3-1,0.6c-0.1,0.2-0.3,0.3-0.5,0.4c-1.5,0.5-2.8,1.6-4,2.5
		c-0.3,0.2-0.5,0.5-0.7,0.7c-0.4,0.5-0.7,1-1.1,1.4c-0.4,0.5-0.8,1.1-1.5,1.2c-1.3,1.1-2.8,1.8-4,2.9c-1,0.3-1.5,1.5-2.6,1.7
		c-0.5,0.6-1.3,0.9-1.8,1.4c-0.4,0.4-1.1,0.4-1.4,0.8c-0.5,0.7-1.3,1.1-2,1.5c-1.4,1-2.8,2-4.2,3c-1.3,0.9-2.6,1.9-3.9,2.8
		c-1.4,1-2.6,2.2-3.9,3.3c-0.2,0.1-0.3,0.3-0.5,0.4c-0.6,0.2-1.1,0.4-1.6,0.9c-0.2,0.2-0.5,0.3-0.7,0.3c-0.5,0.1-0.9,0.3-1.3,0.7
		c-0.1,0.1-0.2,0.3-0.4,0.3c-0.9,0.1-1.5,0.8-2.2,1.1c-0.6,0.3-1.4,0.5-1.8,1.1c-0.1,0.1-0.4,0.2-0.6,0.2c-0.9,0.1-1.4,0.9-2.2,1.1
		c-0.7,0.2-1.5,0.3-2.1,1c-0.3,0.3-0.7,0.3-1.1,0.3c-0.6,0-1.1,0.2-1.5,0.7c-0.4,0.5-0.9,0.7-1.5,0.6c-0.6,0-1.1,0.2-1.5,0.6
		c-0.4,0.4-0.8,0.5-1.3,0.6c-0.9,0.1-1.7,0.3-2.5,0.9c-0.3,0.3-0.8,0.3-1.3,0.3c-0.5,0.1-1,0.1-1.4,0.4c-0.8,0.7-1.7,0.9-2.6,0.9
		c-1,0-1.9,0.1-2.5,0.9c-0.2,0.3-0.6,0.3-0.9,0.3c-0.6,0-1.2,0-1.8,0c-0.7,0-1.4,0.2-1.8,0.6c-0.5,0.5-1.1,0.6-1.8,0.6
		c-0.5,0-1,0-1.5,0c-0.1-0.7-0.3-1.3-0.4-2c-0.2-1.5,0.5-2.1,2.2-1.8c0.3,0.2,0.3,0.6,0.5,0.9c-0.1-0.4-0.3-0.7-0.5-1
		c-0.1-1.4,0.7-2.3,1.8-2.9c0.7-0.4,1.5-0.7,2.3-1.1c0.6-0.3,1-0.7,1.1-1.3c0.4-2.8,2.4-4.2,4.4-5.8c1.4-1.2,2.8-2.4,4-3.9
		c2.7-1.7,5.5-3,8.4-4.3c3.9-1.8,7.6-3.9,11.5-5.6c0.9-0.4,1.1-1,0.7-1.9c-0.4-0.9-0.7-1.7-1-2.6
		C272.2,313.2,271.8,312.7,272.3,312.1z"/>
	<path fill="#0EB6EB" d="M239.2,343.5c-0.4,0-0.8,0-1.2,0c-0.5,0.1-0.8,0.4-0.8,0.9c0,0.6-0.1,1.2,0.5,1.7c0.5,0.4,0.4,0.5-0.2,0.8
		c-0.1,0.1-0.2,0.1-0.2,0.2c-0.4,0.1-0.9,0.3-1.3,0.3c-0.7,0.1-1.3,0.1-1.8,0.6c-0.2,0.2-0.6,0.3-0.9,0.3c-1,0.1-2,0.3-3,0.3
		c-0.8,0.1-1.5,0.1-2.2,0.6c-0.6,0.4-1.3,0.5-2.1,0.5c-1.2,0-2.3,0.2-3.4,0.7c-0.2,0.1-0.4,0.2-0.6,0.2c-1.7,0.1-3.3,0.5-5,0.4
		c-1.1-0.1-2.2,0-3.3,0.2c-0.9,0.2-1.8,0.1-2.7,0.1c-0.7,0-1.3,0-2,0c-1,0.1-1.9-0.1-2.8-0.5c-2.4-0.3-2.3-0.3-3.1-2.8
		c-0.4-1.2-1.2-2.1-2.2-2.8c-0.9-0.6-1.6-1.3-1-2.5c0.2-0.4,0.2-0.9-0.2-1.2c-0.4-0.4-0.8-0.1-1.2,0.1c-0.9,0.7-1.9,0.9-3,0.8
		c-0.3-0.1-0.7,0-0.9,0.3c-0.8,1-0.1,3.7,1.1,4.2c1.4,0.5,2.4,2.2,2.1,3.6c-0.1,0-0.2-0.1-0.3-0.1c-0.7-0.3-1.6,0.1-2.3-0.3l0,0
		c-0.1-0.1-0.2-0.3-0.4-0.3c-0.1,0-0.2,0-0.3-0.1c-0.3-0.2-0.7,0-1.1-0.2c-0.3,0-0.6-0.1-0.9-0.1c-0.1-0.1-0.3-0.2-0.4-0.2l-0.1,0
		l-0.1-0.1c-0.2-0.2-0.5-0.2-0.8-0.3c-0.2,0-0.4-0.1-0.6-0.1c-0.2-0.1-0.5-0.1-0.7-0.2c-0.1,0-0.2,0-0.3-0.1c-0.3-0.2-0.7,0-1-0.3
		c-0.1,0-0.2-0.1-0.3-0.1c-0.2-0.2-0.5-0.1-0.7-0.3c-0.1,0-0.2,0-0.3-0.1c-0.2-0.2-0.5-0.1-0.7-0.3c-0.2,0-0.4-0.1-0.6-0.1
		c-0.1-0.1-0.2-0.2-0.4-0.2l-0.1,0l-0.1-0.1c-0.3-0.3-0.7-0.1-1.1-0.3l-0.1,0l-0.1-0.1c-0.4-0.8,0.2-1,0.7-1.2
		c2.1-0.7,3.4-2.4,5-3.8c0.7-0.6,1.3-1.1,2.2-0.7c0.7,0.2,1.3,0.1,1.4-0.7c0.3-2.1,2.1-2.8,3.7-3.5c0.9-0.4,1.7-1,2.4-1.8
		c1.2-1.4,2.9-2.4,4.3-3.6c0.3-0.2,0.7-0.4,1.1-0.4c3.5-0.2,6.7-1.8,10.2-2c0.9-0.1,1.7-0.5,2.3-1.2c0.9-0.9,1.9-1.6,3.2-1.5
		c0.7,0,1.2-0.5,1.7-0.9c1.2-1,2.3-2.1,4.1-1.7c0.7,0.1,1.4-0.3,1.7-0.9c1.7-2.7,4.6-3.5,7.2-4.9c1-0.5,2-0.9,3-1.4
		c0.8-0.4,1.7-0.4,2.2,0.4c0.6,0.9,0.1,1.7-0.6,2.4c-0.2,0.2-0.5,0.5-0.8,0.6c-2.9,0.9-4.3,3.3-5.7,5.8c-0.5,0.9-0.8,1.9-1.5,2.6
		c-0.2,0.2-0.4,0.5-0.1,0.9c0.2,0.2,0.5,0.2,0.8,0.1c0.3-0.1,0.5-0.2,0.7-0.4c3.5-2.4,7.1-4.7,9.9-8.1c0.6-0.8,1.4-1.7,2.7-1.3
		c0.8,0.7,0.8,1.8,1,2.7c0.2,1.2,0.8,2.1,1.8,2.8c1.5,1,3.2,1.7,4.5,3c-0.2,0.3-0.4,0.5-0.6,0.8c-0.2,0.5-0.6,0.8-1.1,1
		c-0.7,0.3-1.2,0.7-1.4,1.5c-0.1,0.5-0.6,0.7-1,0.8c-1.1,0.3-1.8,1-2.2,2c-0.2,0.5-0.5,0.9-1,1.1c-0.6,0.2-0.8,0.6-0.7,1.1
		c0,0.4,0,0.8-0.1,1.1c-0.3,1.3-0.3,1.3-1.6,1.8c-0.8,0.3-1.5,0.6-2.2,1c-0.4,0.2-0.8,0.5-1,0.9
		C239.7,342.2,239.5,342.9,239.2,343.5z"/>
	<path fill="#21563F" d="M283.4,269c-1.3-1.2-2.6-2.5-3.9-3.6c-1.1-0.9-1.8-1.9-2.4-3.1c-4-8.3-8.1-16.6-12.1-24.9
		c-1.2-2.5-2.4-4.9-3.6-7.4c-0.2-0.3-0.3-0.7-0.5-1.1c0.1-1,1-1,1.6-1.1c2.3-0.6,4.6-1.1,6.8-1.5c1.2-0.3,1.8-0.8,1.8-2.1
		c-0.1-2.2,0-4.3,0-6.5c0-2-0.4-2.2-2.3-1.8c-3.1,0.6-6.1,1.2-9.2,1.8c-0.7,0.1-1.5,0.5-2.2-0.1c-0.3-2.8-0.5-5.6-0.8-8.5
		c-0.3-3-0.6-6-0.9-9c-0.2-1.7-0.3-3.4-0.4-5.2c-0.2-1.7-0.3-3.3-0.5-5c0.3-0.2,0.5-0.4,0.8-0.5c4.5-2.2,9-4.5,13.5-6.7l0.1-0.1
		c0.2,0,0.3-0.1,0.5-0.1c0,0.3,0,0.7,0.1,1c0.5,1.3,0.5,2.7,0.5,4.1c0,0.7,0,1.4,0,2.2c0,0.4,0.1,0.8,0.3,1.1
		c0.4,0.5,0.4,1.1,0.4,1.7c0.1,2.4,0.2,4.8,0.3,7.2c0.1,2.1,0.1,4.1,0.3,6.2c0.2,1.9,0.1,3.8,0.5,5.6c0.1,0.5,0.1,1,0.1,1.5
		c-0.1,2.6,0.2,5.2,0.4,7.8c0,1.2,0,2.4-0.1,3.7c0,1.4,0.3,2.6,1.2,3.7c0.2,0.3,0.4,0.6,0.7,1c1.3,1.8,2.3,3.7,2.9,5.8
		c0.4,1.3,0.8,2.5,1.7,3.6c0.2,0.2,0.3,0.5,0.5,0.7c1.4,1.2,2.2,2.8,3.1,4.3c1,1.6,1.9,3.3,2.8,4.9c0.3,0.4,0.5,0.8,0.6,1.4
		c0,0.2,0.1,0.4,0.3,0.6c0.9,0.8,1.4,2,2,3c1.2,2.2,2.7,4.1,4.4,5.8c0.8,0.8,1.6,1.6,2.3,2.4c0.3,0.3,0.5,0.6,0.6,1
		c0.1,0.7-0.4,0.9-0.8,1.1c-3.5,1.8-6.8,3.7-10.3,5.4c-0.3,0.1-0.5,0.2-0.8,0.2C283.6,269.2,283.5,269.1,283.4,269z"/>
	<path fill="#A5CF49" d="M202.1,131.5c-0.2,0.8,0.1,1.6,0.7,2.1c0.7,0.6,0.8,1.4,0.7,2.3c-0.2,1.1,0,2.1,0.4,3.1
		c0.1,0.3,0.2,0.6,0.3,1c0.4,1.1,0.4,1.2,1.6,1.3c1.1,0,1.9,0.5,2.5,1.4c0.5,0.6,0.9,1.3,1.2,2c0.3,0.7,0.7,1.4,1.1,2
		c0.3,0.5,0.8,1,1,1.5c0.4,1,1.2,1.4,2.1,1.7c0.2,0.1,0.4,0.1,0.7,0.1c1.8-0.1,3.4,0.6,5,1.1c0.7,0.3,1.4,0.2,2.1,0
		c1.3-0.5,2.7-0.9,4.1-1.4c0.8-0.3,1.6-0.7,2.5-1c0.6-0.2,1.1-0.4,1.7-0.7c0.5-0.2,0.9-0.5,1.3-0.8c0.3-0.2,0.6-0.2,0.9,0
		c0.9,0.7,1.8,1.4,2.5,2.4c0.3,0.5,0.7,0.9,1,1.3c0.2,0.3,0.2,0.7,0,0.9c-0.7,0.7-1.3,1.3-2.3,1.5c-1.1,0.2-2.2,0.7-3.2,1.4
		c-0.6,0.4-1.2,0.6-1.9,0.6c-0.8,0-1.5,0.1-2.2,0.6c-0.8,0.5-1.7,0.8-2.7,0.8c-0.4,0-0.9,0.1-1.3,0.2c-1.5,0.5-3,0.8-4.6,0.7
		c-0.6,0-1.2-0.1-1.8-0.3c-1-0.2-2.1-0.5-3.1-0.8c-2.4-0.7-4.5-1.8-6.4-3.5c-0.5-0.5-1.1-0.9-1.7-1.4c-1-0.9-1.9-1.7-2.8-2.7
		c-0.4-0.4-0.6-0.9-0.8-1.4c-0.3-0.7-0.7-1.3-1.1-1.9c-1-1.6-2.1-3.2-2.4-5.1c-0.1-0.4-0.3-0.8-0.5-1.2c-0.6-1.1-1.1-2.3-1.2-3.6
		c0-0.7-0.4-1.5-0.7-2.2c-0.3-0.6-0.4-1.2-0.1-1.9c0.4-1.4,0.3-2.8,0.2-4.1c0-0.5-0.3-0.8-0.7-1c-0.3-0.1-0.5-0.3-0.5-0.6
		c0.2-1.1-0.3-2.1-0.2-3.1c0-0.2,0-0.4,0-0.7c0-0.3,0.2-0.4,0.4-0.4c0.1,0,0.1,0,0.2,0c0.8-0.1,1-0.3,1-1c0-0.5-0.1-1-0.1-1.5
		c0-0.4,0-0.9,0-1.3c0.8,0.2,1.4,0.1,1.8-0.7c0.5-1,1.4-1.7,2.1-2.6c0.2-0.3,0.4-0.6,0.7-0.4c0,0,0,0,0,0c0.1,0,0.2,0.1,0.3,0.3
		c0.6,1.7,0.7,3.5,0.9,5.2c0.1,1.2,0.8,1.5,1.7,1c2.5-1.3,5-0.8,7.5-0.4c2.5,0.3,4.8,0.5,7.3,0c1.7-0.4,3.4-0.7,5.1-0.7
		c2.4,0,4.6-1.1,6.9-1.8c1.4-0.4,1.8-1.5,1.2-2.9c-1.2-2.7-1.6-5.5-1.8-8.4c-0.3-4.9-4.6-10.2-9.4-11.4c-0.8-0.2-1.5-0.2-2.2-0.8
		c0-0.1-0.1-0.2-0.1-0.2c0,0,0,0,0,0c-0.3-1.2,0.7-1.9,1.3-2.8c0.2-0.4,0.9-0.6,0.7-1c-0.2-0.6-0.8-0.3-1.3-0.4
		c-0.5-0.1-1,0-1.4-0.5c0.1-0.1,0.2-0.2,0.3-0.2c1.4-0.2,2.8-0.3,4.1,0.1c1.2,0.3,2.4,0.6,3.4,1.2c0.6,0.3,1.2,0.5,1.9,0.5
		c0.9,0,1.8,0.1,2.7,0.1c2.6,0,4.3,1.7,5.4,3.8c0.1,0.3,0.2,0.7,0.1,1c-0.1,1.8,0,3.7,0.2,5.5c0,0.1,0,0.2,0,0.3
		c-0.3,1.1,0.1,2.2,0.4,3.3c0.5,1.7,0.9,3.3,1.6,4.9c0.3,0.6,0.5,1.2,0.3,1.9c-0.3,1,0.2,1.8,1,2.5c0.2,0.2,0.5,0.3,0.7,0.5
		c0.8,0.5,0.8,0.5,0.2,1.2c-1.2,1.6-2.3,3.3-3.6,4.8c-0.5,0.6-1,1.2-1.5,1.8c-0.3,0.3-0.7,0.6-1.1,0.8c-0.7,0.3-1.4,0.7-2,1.2
		c-0.7,0.5-1.4,0.8-2.3,0.9c-0.9,0-1.8,0.3-2.5,0.8c-0.6,0.4-1.3,0.5-2.1,0.5c-1,0-1.9,0-2.8,0c-0.8,0.1-1.7,0.1-2.5,0.4
		c-1.7,0.6-3.5,0.7-5.2,0.9c-0.4,0-0.8,0-1.2,0.1c-2.1,0.2-4.1,0.1-6.1-0.3c-1.1-0.2-2,0.1-2.6,1
		C202.7,129.5,202.3,130.5,202.1,131.5z"/>
	<path fill="#FCB030" d="M341.4,99.9c-0.3-0.4-0.3-1-0.2-1.5c0.3-1.2,0-2.3-0.2-3.5c-0.1-0.6-0.2-1.2-0.1-1.8c0.2-0.6,0.1-1.2,0-1.8
		c-0.2-1.2-0.5-2.4-0.5-3.6c0-0.5-0.2-0.9-0.5-1.2c-0.4-0.4-0.6-1-0.5-1.5c0.1-0.8-0.2-1.4-0.5-2.1c-0.5-0.9-0.8-1.8-0.8-2.9
		c0-0.4-0.1-0.8-0.3-1.1c-0.2-0.7-0.5-0.9-0.7-0.8c-0.4,0.2-0.5,0.6-0.6,1c-0.1,0.3-0.1,0.6,0,0.8c0.2,0.7,0.2,1.4,0.1,2.2
		c-0.1,1.5-0.3,3-0.4,4.5c0,0,0.1,0,0.1,0c0,0.6,0,1.2,0,1.8c0,0.7-0.7,1.1-1.3,0.8c-0.7-0.3-1.2-0.8-1.6-1.4
		c-0.5-0.7-1-1.5-1.6-2.1c-1.9-1.9-4.2-3.4-6.7-4.2c-1-0.3-2.1-0.3-3.1-0.7c-0.2-0.1-0.4,0-0.6,0.1c-0.7,0.2-1.4,0.2-2.1-0.2
		c-1.1-0.5-2.3-0.6-3.4-0.6c-1.2,0-2.5-0.1-3.6-0.5c-0.3-0.1-0.7-0.2-1,0c-1.1,0.7-2.4,1.1-2.6,2.6c0,0.2-0.2,0.4-0.3,0.6
		c-0.8,1.4-1.7,2.9-2.5,4.3c-1,1.9-2.4,3.6-3.3,5.6c-0.1,0.2-0.3,0.4-0.4,0.5c-1.5,2-2.7,4.2-3.6,6.5c-0.4,0.9-0.7,1.8-0.8,2.7
		c-0.3,1.6-0.7,3.1-1.5,4.6c-0.3,0.7-0.7,1.4-0.7,2.2c0,0.6-0.1,1.1-0.3,1.6c-0.1,0.4-0.2,0.9-0.3,1.3c-0.1,0.5-0.1,1-0.2,1.5
		c-0.3,0.9-0.2,1.9,0,2.8c0.1,0.5,0.3,1,0.2,1.5c-0.1,1.3,0.1,2.5,0.6,3.7c0.1,0.2,0.1,0.4,0.1,0.6c0.1,1.2,0.6,2.3,1.1,3.3
		c0.6,1.4,1.3,2.7,1.9,4.1c0.1,0.3,0.4,0.5,0.6,0.8c0.2,0.3,0.5,0.5,0.6,0.8c0.6,1,1.3,1.8,2.3,2.4c0.8,0.6,1.6,1.2,2.5,1.7
		c1.2,0.7,2.5,1.1,4,0.9c0.3,0,0.4-0.2,0.4-0.4c0-0.2,0-0.3,0.1-0.5c0.1-0.4,0.6-0.5,0.9-0.3c0.3,0.2,0.3,0.6,0.1,0.9
		c-0.1,0.2-0.4,0.3-0.5,0.4c0,0,0,0.2,0.1,0.2c0.2,0.1,0.4,0.2,0.6,0.1c1-0.2,1.9-0.2,2.8,0.1c0.4,0.1,0.7,0,1.1-0.1
		c0.8-0.3,1.7-0.4,2.6-0.6c0.5-0.1,1-0.2,1.4-0.4c0.6-0.2,1.1-0.5,1.7-0.7c0.7-0.3,1.4-0.4,2-0.8c0.6-0.4,1-1,1.6-1.4
		c1.8-1.3,3.3-3,4.8-4.7c0.5-0.6,0.8-1.2,1.1-1.9c0.2-0.6,0.5-1.2,0.8-1.8c0.2-0.3,0.4-0.5,0.7-0.7c0.3-0.3,1-0.1,1.1,0.3
		c0.2,0.7,0.6,1.5,0.4,2.3c-0.3,1.3-0.2,2.6-0.2,4c0,0.4,0.1,1-0.1,1.3c-0.5,1-0.3,1.9,0.1,2.9c0.2,0.3,0.2,0.7,0.3,1.1
		c0.2,0.9,0.8,1.7,1.3,2.5c0.3,0.5,1,0.7,1.4,0.3c0.9-0.8,1.9-1.3,3.2-1.2c0.1,0,0.3-0.1,0.5-0.2c0.5-0.2,0.8-0.6,0.9-1.1
		c0.3-1.4,0-2.8,0.3-4.1c-0.3-1.3,0.1-2.4,0.4-3.6c0.2-0.6,0.3-1.2,0.3-1.8c0-1.4,0.3-2.8,0.5-4.1c0.1-0.6,0.1-1.1-0.1-1.6
		c-0.3-0.7-0.3-1.5-0.2-2.3c0.1-1,0.2-2-0.1-3c-0.1-0.3-0.1-0.8,0-1.1c0.5-1.7,0.3-3.4,0.3-5.2c0-0.5,0-1.1,0.1-1.7
		c0.3-1.2,0.3-2.3,0.1-3.5c-0.1-0.7-0.1-1.4,0.2-2.1C342,101.4,341.9,100.6,341.4,99.9z M335,107.4c-0.2,1.3-0.5,2.6-0.3,4
		c0.1,0.5-0.1,1.1-0.3,1.6c-0.2,0.9-0.6,1.8-0.7,2.7c-0.2,1.5-0.8,2.8-1.3,4.1c-0.8,1.9-1.8,3.5-3.1,5.1c-0.5,0.7-1.2,1.2-1.8,1.7
		c-1.1,0.8-2.1,1.6-3.4,2.2c-0.4,0.2-0.8,0.4-1.1,0.7c-0.9,0.5-1.8,0.9-2.9,0.8c-1.3-0.1-2.5,0.4-3.8,0.5c-0.4,0-0.9,0.1-1.3,0
		c-1.1-0.2-2.2-0.4-3.3-0.3c-0.3,0-0.6-0.1-1-0.2c-3.2-1.2-5.6-3.3-7.6-6c-0.4-1.1-1.1-2.2-1.1-3.5c0-0.4,0-0.8,0-1.2
		c0.1-0.9-0.1-1.8-0.6-2.5c-0.6-0.9-0.7-1.8-0.5-2.9c0.2-1.1,0.2-2.2,0.3-3.3c0-0.6,0.1-1.1,0.3-1.6c0.4-1,0.5-2.1,0.3-3.1
		c-0.2-1.1,0-2.1,0.5-3.1c0.4-0.9,0.8-1.7,1.3-2.5c0.9-1.5,1.5-3.1,1-4.9c-0.1-0.5,0-0.9,0.2-1.3c0.7-1.5,1.5-3,2.7-4.2
		c0.8-0.8,1.5-1.7,2.2-2.7c0.9-1.3,2.2-2.4,3.7-3c0.3-0.2,0.8-0.3,1.1-0.5c1.1-0.8,2.3-1,3.5-0.9c0.6,0,1.1,0.1,1.5,0
		c2.2-0.4,4.1,0.3,5.9,1.4c0.8,0.5,1.6,1,2.3,1.6c2,1.5,3.1,3.8,4.3,5.9c0.3,0.5,0.6,1.1,0.8,1.6c0.7,1.3,1.3,2.7,1.5,4.2
		c0,0.4,0.2,0.8,0.4,1.1c0.5,0.9,0.7,1.9,0.5,2.9c-0.1,0.4-0.1,0.8,0,1.2C335.3,104.5,335.2,105.9,335,107.4z"/>
	<path fill="#FED03B" d="M164.5,97.9c-0.1,0.8-0.7,1.2-1.4,1.1c-1-0.2-1.7,0.2-2.4,0.8c-0.9,0.6-1.3,1.3-0.3,2.1
		c0.2,0.2,0.4,0.4,0.5,0.7c0.3,0.6,0.3,1.2-0.4,1.6c-0.5,0.4-1.1,0.2-1.5-0.2c-0.4-0.3-0.8-0.6-1.2-0.8c-1.3-0.6-2.4-0.4-3.4,0.4
		c0,0,0,0,0,0c-0.1,0-0.1,0.1-0.2,0.1c-2.4-0.9-4.8-2.1-7.3-2.7c-4.9-1.3-10-1.6-15-1.8c-2.8-0.1-5.7-0.3-8.5-0.4
		c-4.7-0.1-9.5-0.6-13.7,2.3c-1,0.7-1.3,1.1-0.6,2.2c2.9,4.9,4.8,10.2,6.7,15.6c1,2.9,2,5.8,3.3,8.5c0.4,0.9,1,1.8,0.6,2.8
		c-0.1,0.1-0.1,0.2-0.2,0.3c0,0,0,0,0,0c0,0,0,0,0,0c-0.3,0.2-0.6,0.1-1-0.1c-1.1-0.5-1.5-0.2-1.4,1c0,2.2-0.6,3.1-2.6,3.4
		c-0.7,0.1-1.4,0.1-1.7-0.6c-0.3-0.7,0-1.2,0.5-1.6c0.2-0.2,0.5-0.5,0.7-0.8c0-0.1,0.4-0.3-0.1-0.3c-0.2,0-0.4,0-0.5,0
		c-0.1,0-0.3,0-0.4-0.1c-1.1-0.3-1.4-1.1-1-2.5c0-0.2,0.3-0.4,0-0.5c-0.1-0.1-0.3,0.1-0.4,0.2c-0.5,0.4-0.8,1.1-1.6,1.1
		c-0.4-1.2-0.9-2.4-1.3-3.6c-0.2-0.7-0.4-1.4-0.6-2.1c-0.3-1-0.6-1.9-0.8-2.9c-0.7-2.2-1.4-4.3-2-6.5c-0.2-0.7-0.4-1.4-0.6-2.1
		c-0.9-3.1-1.8-6.2-2.8-9.2c-0.9-3-1.9-6-2.8-9.1c0-0.2-0.1-0.3-0.1-0.5c0-0.2,0.1-0.5,0.3-0.5c0.7-0.4,1.5-0.8,2.2-1.2
		c0.7-0.4,1.3-0.6,2.1-0.5c0.6,0.1,1.1-0.1,1.6-0.5c0.7-0.5,1.5-0.9,2.4-1.1c0.2,0,0.4-0.1,0.6-0.2c1.3-0.6,2.7-1.2,4.3-1.4
		c0.3,0,0.5-0.2,0.8-0.3c0.7-0.3,1.3-0.6,2.1-0.6c1.2-0.6,2.5-0.4,3.7-0.7c1.8-0.4,3.6-0.3,5.4,0c0.3,0,0.6,0.2,0.8,0.1
		c1.2-0.5,2.4,0,3.6-0.4c0.1,0,0.3-0.1,0.5,0c1.7,0.4,3.5-0.1,5.1,0.4c0.3,0.1,0.5,0,0.8-0.1c0.3,0,0.7-0.2,1-0.1
		c1.5,0.4,3.1,0.2,4.6,0.5c0.7,0.1,1.4,0.2,2.1,0.3c0.3,0,0.7,0.1,1,0c1-0.3,1.9,0,2.8,0.1c1.8,2.8,2.9,5.8,1.9,9.2
		c-0.2,0.6,0.1,0.6,0.5,0.7c1.8,0.4,3.3,1.3,4.6,2.6c0.4,0.5,0.8,0.6,1.3,0.3c1.6-0.9,3.2-1.7,4.2-3.2c0.6-0.9,1.3-1.5,2.1-2.1
		c0.7-0.5,1.4-1.2,2.2-0.6C164.1,95.6,164.7,96.6,164.5,97.9z"/>
	<path fill="#22ADE3" d="M245.6,320.1c-0.8,0.1-1.4,0.5-1.9,1c-1.1,1.2-2.3,2.2-3.3,3.5c-0.7,0.9-1.7,1.6-2.6,2.3
		c-0.3,0.2-0.7,0.4-1.1,0.5c-1.1,0.4-2,0.9-2.8,1.8c-0.4,0.5-0.9,0.9-1.5,1.1c-0.7,0.3-1.3,0.1-1.7-0.5c-0.2-0.3-0.2-0.8,0.1-1.1
		c0.1-0.1,0.3-0.2,0.4-0.3c0.6-0.3,0.9-0.8,1-1.4c0.2-0.7,0.4-1.4,1-1.9c0.2-0.1,0.3-0.4,0.3-0.6c0.6-1.5,1.8-2.5,2.9-3.6
		c0.3-0.3,0.6-0.5,1-0.5c0.8-0.1,1.3-0.5,1.9-1c0.2-0.2,0.4-0.4,0.5-0.6c0.3-0.5,0.3-1,0-1.2c-0.4-0.3-0.8-0.6-1.4-0.4
		c-0.1,0-0.1,0-0.2,0.1c-1.7,1.1-3.9,1.4-5.5,2.7c-0.2,0.2-0.5,0.3-0.8,0.3c-1.5,0.3-2.6,1.2-3.4,2.5c-0.2,0.3-0.5,0.6-0.7,0.9
		c-0.8,0.8-1.6,1.4-2.8,0.8c-0.5-0.2-0.9,0-1.4,0.3c-0.8,0.6-1.7,1.3-2.4,2.1c-0.4,0.4-0.8,0.6-1.3,0.3c-0.5-0.2-0.9-0.1-1.3,0.1
		c-0.7,0.5-1.5,0.8-1.9,1.6c-0.1,0.2-0.4,0.4-0.6,0.5c-0.9,0.2-1.8,0.9-2.9,0.5c-0.4-0.2-0.8,0-1.1,0.2c-0.7,0.5-1.4,0.6-2.2,0.6
		c-0.9-0.1-1.8,0.2-2.5,0.7c-0.4,0.3-0.8,0.3-1.3,0.3c-0.3,0-0.6,0-0.8,0c-1.3-0.1-2.3,0.5-3.1,1.4c-0.4,0.5-0.8,0.9-1.4,1.2
		c-0.8,0.4-1.5,1-1.9,1.8c-0.5,0.8-1.1,1.3-2.1,1.5c-0.6,0.1-1,0.7-1.6,0.9c-1.4,0.5-1.9,1.5-2.1,2.9c-0.1,0.7-0.3,0.8-1,0.8
		c-0.4,0-0.8-0.1-1.1-0.3c-0.7-0.4-1-0.3-1.4,0.3c-0.5,0.8-1.1,1.5-2.1,1.8c-0.3,0.1-0.6,0.5-0.8,0.8c-0.5,0.8-1.1,1.2-2,1.4
		c-0.3,0.1-0.6,0.2-0.9,0.3c-0.3,0.1-0.4,0.4-0.4,0.7c-0.8-0.2-1.6-0.4-2.4-0.6c-1.3-0.4-2.7-0.9-4-1.3c0.3-1.5,1.5-2.6,2.3-3.8
		c0.9-1.3,1.7-2.7,2.9-3.8c0.7-0.6,0.9-1.5,1-2.4c0.3-2.4,1.4-3.3,3.8-3.1c0.4-0.8,1-1.4,1.8-1.8c0.9-0.5,1.7-1.2,2.6-1.8
		c0.3-0.2,0.7-0.4,1-0.5c0.8-0.2,1.5,0.2,1.5,1c0,0.3,0,0.6,0,0.8c0,0.3-0.1,0.6-0.4,0.9c-0.3,0.2-0.5,0.4-0.7,0.7
		c-0.2,0.2-0.2,0.6,0,0.9c0.2,0.2,0.5,0.3,0.7,0.2c0.1-0.1,0.2-0.1,0.3-0.2c0.5-0.7,0.8-1.6,1.6-2c0.1-0.4,0.2-0.8,0.2-1.1
		c0-0.4,0.2-0.7,0.6-0.9c0.7-0.3,1.4-0.7,2.1-1c0.8-0.4,1.4-0.9,1.3-1.9c0-0.5,0.3-0.8,0.8-1c0.5-0.2,1-0.4,1.4-0.2
		c0.8,0.2,1.3-0.1,1.8-0.6c0.7-0.8,1.6-1.4,2-2.4c0.3-0.6,0.8-1.1,1.4-1.4c0.2-0.1,0.5-0.2,0.7-0.4c0.5-0.3,0.8-0.7,0.9-1.3
		c0.1-0.7,0.2-1.3,0.4-2c0.5-1.8,2.4-2.9,4.3-2.5c0.8,0.2,1.4,0.1,2-0.3c1-0.6,2.1-1.1,3.3-0.8c0.1,0,0.4,0,0.5-0.1
		c0.8-0.5,1.7-0.4,2.6-0.4c0.7,0,1.4-0.1,2.1-0.5c1-0.6,2.1-0.6,3.2-0.8c0.3,0,0.7,0.2,0.9,0.4c1,0.9,2.1,0.6,3.2,0.5
		c0.2,0,0.4-0.2,0.5-0.4c0.3-0.5,0.8-0.8,1.2-1.1c0.6-0.5,1.2-0.9,1.8-1.5c0.4-0.4,0.9-0.7,1.5-0.6c0.8,0.1,1.3-0.3,1.6-1
		c0.3-0.4,0.6-0.8,0.8-1.3c0.4-1.1,1.3-1.7,2.3-2.1c0.8-0.3,1.5-0.7,2.1-1.3c0.3-0.4,0.7-0.4,1.2-0.2c0.4,0.2,0.8,0.5,1.2,0.4
		c0.6-0.1,0.7,0.4,0.8,0.8c-0.2,0.9-1,1-1.6,1.2c-1.2,0.4-1.5,1-1.3,2.2c0.7,3.6,1.4,7.3,2.1,10.9
		C245.9,318.5,246.3,319.4,245.6,320.1z"/>
	<path fill="#363639" d="M334.5,208.5c0.3-0.5,0.2-1.1,0.3-1.6c0-0.8-0.1-1.7,0.2-2.5c-0.3-1.4,0.2-2.6,0.6-3.8
		c0.4-1.4,1-2.6,1.5-3.8c0.1-0.2,0.4-0.4,0.5-0.6c0.2-0.3,0.4-0.5,0.6-0.8c0.7-1.7,2.1-2.8,3.3-4.1c0.1-0.2,0.4-0.3,0.6-0.3
		c1.6-0.5,3.1-1,4.7-1.4c1.3-0.3,2.4-1.1,3.7-1.2c0.3,0,0.6-0.3,0.8-0.6c0.3-0.3,0.7-0.3,1.1-0.3c0.1,0.4,0.4,0.6,0.8,0.8
		c1.6,0.8,3.2,1.6,4.7,2.4c3.1,1.5,6.1,3.1,9.2,4.6c1.4,0.7,2.8,1.4,4.2,2.1c0.6,0.3,1,0.6,1.4,1.2c1.3,2,2.6,4,3.9,6
		c0.8,1.2,1.6,2.4,2.4,3.6c0.2,0.7,0.5,1.4,1.1,2c0.5,0.4,0.9,1,0.8,1.7c0,0.2,0.1,0.4,0.2,0.6c0.4,1.1,0.1,1.9-0.7,2.7
		c-0.4,0.4-0.7,0.8-1,1.3c-0.5,0.7-1,1.5-1.7,2c-0.3,0.2-0.5,0.6-0.7,0.9c-0.1,0.4-0.3,0.8-0.6,1.1c-0.4,0.4-0.7,0.9-0.8,1.6
		c-0.1,0.5-0.5,0.9-0.8,1.3c-0.6,0.9-1.4,1.4-2.5,0.9c-0.5-0.2-1,0-1.3,0.3c-0.9,0.9-1.8,1.8-2.8,2.6c-0.5,0.4-1,0.7-1.6,0.6
		c-0.3,0-0.7,0-1,0c-0.8,0.1-1.2-0.3-1.5-1c-0.9-1-0.7-2.4-0.9-3.6c-0.1-0.6-0.3-1.2-1-0.9c-2.9,1.5-5.2-0.1-7.6-1.4
		c-0.3-0.2-0.6-0.3-0.9-0.5c-2.9-1.6-3-1.7-2.6-4.9c0.2-1.9-1.5-4.1-3.4-4.3c-0.8-0.1-0.6,0.5-0.6,0.9c-0.1,1.2-0.2,2.3-0.7,3.4
		c-0.3,0.6-0.6,1.2-1.4,1.2c-0.3-0.1-0.6-0.1-0.8-0.3c-1.6-1.2-3.3-2-5.1-2.5c-0.2-0.1-0.5-0.1-0.6-0.3c-0.9-0.9-2.1-1.6-2.7-2.8
		c-0.1-0.2-0.3-0.5-0.5-0.6C334.6,209.9,334.4,209.2,334.5,208.5z"/>
	<path fill="#FEBF2B" d="M188.2,148.8c-0.1,0.3-0.4,0.6-0.7,0.9c-1.1,1.2-1.8,2.7-2.1,4.3c-0.1,0.7-0.2,1.3-0.3,2
		c-0.1,0.4-0.2,0.9-0.3,1.3c-0.4,1.1-0.9,2.2-1.3,3.3c-0.4,1.2-0.8,2.4-1.1,3.7c-0.2,0.8-0.5,1.6-1,2.3c-0.7,1-1.3,2.1-2.1,3
		c-1,1.1-1.8,2.2-2.5,3.5c-0.4,0.7-1,1.1-1.6,1.7c-0.7,0.7-1.4,1.4-2.1,2.1c-0.7,0.7-1.3,1.5-2.3,2c-0.5,0.2-0.9,0.7-1.3,1
		c-1,0.9-2.2,1.6-3.5,2.3c-1.3,0.7-2.5,1.5-3.5,2.5c-0.4,0.4-0.8,0.6-1.3,0.7c-1.2,0.3-2.2,0.8-3,1.6c-0.6,0.5-1.2,0.8-1.9,1
		c-1.1,0.3-2.2,0.4-3.1,1.2c-1,0.1-1.8,0.7-2.8,1c-0.3,0.1-0.6,0.2-0.9,0.4c-0.4,0.2-0.8,0.3-1.3,0.3c-0.7,0-1.3,0.1-2,0.3
		c-0.4,0.2-0.9,0.3-1.3,0.3c-1.4-0.1-2.6,0.3-3.9,0.6c-0.4,0.1-0.9,0.1-1.3,0.1c-0.4,0-0.8,0-1.2,0c-2.6,0.4-4.8-0.5-6.9-1.9
		c-0.2-0.1-0.3-0.3-0.5-0.5c-0.4-0.4-0.8-0.9-1.2-1.3c-1.3-1.9-1.3-4.1-1.2-6.3c0.3-3.1,0.7-6.2,2-9.1c0.3-0.6,0.3-1.3,0.4-2
		c0.1-0.7,0.3-1.4,1.1-1.6c0.1,0,0.2,0,0.2,0.1c0,0,0,0,0.1,0c1.3,0.5,1.5,1.8,1.6,2.9c0.1,1.6,0.6,3.1,1.4,4.4
		c1.5,2.5,1.7,5.3,2.6,7.9c0.7,2.2,1.5,2.6,3.6,1.6c1.8-0.9,3.8-1.6,5.5-2.9c0.4-0.3,0.8-0.5,1.2-0.6c3.9-0.9,7-3.3,10.4-5.2
		c4.7-2.7,8.6-6.4,12.3-10.5c2.9-3.2,5.4-6.6,7-10.7c1.4-3.6,2.1-7.5,2.3-11.4c0.2-3.4,0-6.8,0.1-10.2c0,0,0-0.1,0-0.1
		c0-0.1,0.1-0.1,0.1-0.2c1.1-2.3,3.1-3.8,5.1-5.2c0.4-0.3,0.8-0.3,1.2,0.1c0.1,0.1,0.1,0.2,0,0.3c0,0,0,0.1,0,0.1c0,0,0,0.1,0,0.1
		c0,0.2,0.1,0.4,0.2,0.5c0.2,0.4,0.3,0.8,0.6,1.2c0.6,0.8,0.7,1.6,0.7,2.5c0,0.5,0,0.9-0.2,1.3c-0.4,0.6-0.4,1.3-0.2,1.9
		c0.1,0.4,0.2,0.9,0.2,1.3c0,0.8,0.1,1.5,0.4,2.3c0.3,0.9,0.4,1.8,0.4,2.8c0,0.3-0.1,0.6,0,0.8C189.3,146.2,188.6,147.5,188.2,148.8
		z"/>
	<path fill="#00AA84" d="M254,107.3c0,0.2,0,0.5,0,0.7c-0.2,1.4-0.1,2.9,0.2,4.3c0.1,0.4,0,0.9-0.1,1.3c-0.2,1.1-0.2,2.2,0,3.3
		c0.2,1.3,0.2,2.7,0.2,4c0,0.9,0,1.8-0.1,2.7c0,1,0,1.9,0.5,2.8c0.6,1.2,0.7,2.5,0.4,3.7c-0.2,0.8-0.1,1.5,0.4,2.2
		c0.9,1.1,1.1,2.5,1.1,3.9c0,0.8,0,1.6,0.1,2.3c0.1,0.8,0.3,1.5,0.7,2.2c0.6,0.9,0.3,1.7-0.6,2.3c-0.1,0.1-0.2,0.1-0.3,0.1
		c-0.7,0.3-0.9,0.9-1,1.6c0,0.7-0.1,1.4-0.3,2.1c0,0.3-0.2,0.5-0.3,0.8c-0.2,0.4-0.6,0.4-0.8,0.1c-0.4-0.5-0.9-1-0.9-1.7
		c0-0.9-0.5-1.7-1-2.5c-0.5-0.8-0.8-1.7-0.8-2.7c0-0.6-0.1-1.2-0.3-1.8c-0.4-0.9-0.6-1.9-0.7-2.9c-0.1-1-0.4-2.1-0.6-3.1
		c-0.3-1.5-0.3-3.1-0.9-4.6c-0.1-0.2-0.1-0.5,0-0.7c0.3-0.7,0.1-1.4-0.1-2.1c-0.2-0.9-0.4-1.7-0.6-2.6c-0.2-0.9-0.2-1.9,0.1-2.8
		c0.2-0.6,0.2-1.2,0.1-1.8c-0.3-1.3-0.6-2.6-0.4-3.9c0.1-0.5-0.2-1.1-0.2-1.6c0-0.6-0.1-1.2,0-1.8c0.3-1.9-0.1-3.8-0.4-5.6
		c-0.1-0.8-0.2-1.6-0.2-2.3c0.1-1.3-0.1-2.6-0.4-3.8c-0.3-1.1-0.4-2.3-0.3-3.5c0-0.7-0.1-1.4-0.2-2.1c-0.3-1.1-0.5-2.3-0.7-3.4
		c0-0.1,0-0.2,0-0.3c0.1-2.1-0.5-4.2-0.8-6.3c-0.1-0.9-0.2-1.9-0.3-2.8c-0.1-0.9-0.2-1.9-0.6-2.7c-0.4-0.8-0.4-1.6-0.3-2.5
		c0.1-0.9-0.1-1.7-0.4-2.6c-0.5-1.4-0.8-2.7-1-4.2c-0.2-1.7-0.6-3.3-0.9-4.9c-0.1-0.3-0.2-0.6-0.1-0.8c0.2-2.6,0-5.2,0.8-7.8
		c0.1-0.4,0.2-0.9,0.1-1.3c-0.2-1.1,0.1-2.1,0.3-3.1c0.2-0.9,0.9-1.4,1.8-1.5c0.4,0,0.7,0.1,0.7,0.5c0.2,1,0.6,1.7,1.3,2.4
		c0.5,0.5,0.9,1.2,1.1,2c0.3,1.6,1,3.2,1.4,4.8c0.1,0.3,0.3,0.6,0.3,1c0,1.4,0.6,2.6,1.1,3.8c0.3,0.8,0.4,1.7,0.6,2.6
		c0.1,1,0.3,1.9,0.9,2.7c0.4,0.6,0.6,1.2,0.4,1.9c-0.2,0.9,0.1,1.7,0.5,2.6c0.3,0.6,0.5,1.4,0.6,2.1c0.4,1.7,0.4,3.5,0.5,5.3
		c0.1,1.1,0.2,2.2,0.3,3.3c0.1,0.6,0,1.2-0.1,1.8c-0.1,0.5-0.2,1-0.2,1.5c0,1,0.2,2,0,3c-0.1,0.2,0,0.4,0,0.7c0.4,1.5,0.3,3.1,0,4.6
		c-0.2,1.1-0.1,2.1,0.5,3c1,1.6,0.9,3.4,0.3,5.1C254,105.1,253.9,106.1,254,107.3z"/>
	<path fill="#73CBF2" d="M279.7,95.5c0,1.2,0,2.4,0,3.7c0,0.3,0,0.6-0.1,0.8c-0.6,1.9-0.4,3.7,0.1,5.6c0.3,1.3,0.3,2.5,0.1,3.8
		c-0.3,1.8-0.4,3.5,0,5.3c0.3,1.3,0.3,2.5-0.3,3.8c-0.9,2.1-1.1,4.3-0.8,6.5c0,0.4,0,0.8,0,1.1c-0.1,0.7-0.1,1.4,0.1,2.1
		c0.2,0.9,0.3,1.7,0.5,2.6c0,0.2,0.1,0.5,0,0.7c-0.4,1.5,0.1,3,0.3,4.4c0.1,0.5,0.1,1,0,1.5c-0.2,0.6-0.2,1.2,0,1.8
		c0.1,0.5,0.1,1.1,0,1.7c0,0.2-0.2,0.6-0.4,0.6c-1.2,0.2-1.5,1-1.5,2c0,0.1-0.1,0.2-0.2,0.2c-0.1,0-0.3-0.1-0.4-0.2
		c-0.1-0.1-0.2-0.3-0.2-0.4c-0.1-0.7-0.4-1.4-0.7-2c-0.2-0.4-0.3-1-0.4-1.4c-0.1-0.7-0.4-1.3-0.8-1.8c-1-1.4-1.5-3.1-2.1-4.7
		c-0.7-2.2-0.7-4.5-0.8-6.7c0-1.4-0.1-2.8-0.3-4.2c-0.1-0.9-0.1-1.9-0.1-2.8c0-0.3,0-0.6,0-0.8c-0.4-1.5-0.3-3.1-0.3-4.6
		c0-0.2,0-0.5-0.1-0.7c-0.4-1.5-0.2-3,0-4.5c0-0.2,0.1-0.5,0.1-0.7c-0.3-1,0.2-2-0.2-3c-0.1-0.2,0-0.4,0-0.7
		c0.1-1.2,0.3-2.4,0.4-3.6c0.1-0.8,0.2-1.6,0-2.5c-0.1-0.4-0.1-0.9,0-1.3c0.5-1.6,0.5-3.3,0.5-4.9c0-1.2,0.2-2.4,0.4-3.6
		c0.1-0.3,0.2-0.6,0.2-1c0.1-2,0.2-4.1,0.4-6.2c0-0.4,0-0.9,0.2-1.3c0.7-1.4,0.5-2.9,0.3-4.4c-0.1-0.6,0-1.2,0-1.8
		c0.1-1.6,0.1-3.2,0-4.8c0-0.4,0-0.9,0-1.3c0.1-0.7,0.1-1.3,0.1-2c-0.1-1.8,0.8-2.4,2.7-2.7c0.3,0,0.7,0,1,0.1
		c0.7,0.2,1.4,0,2.1,0.1c0.7,0.1,1.3,0.1,2-0.1c0.3-0.1,0.6,0.2,0.5,0.5c-0.1,0.8-0.1,1.6-0.2,2.3c-0.2,1.1-0.5,2.2-0.5,3.3
		c0,0.4-0.1,0.8-0.3,1.1c-0.5,1.4-0.9,2.8-1.1,4.3c-0.1,0.6-0.3,1.3-0.5,1.9c-0.2,0.6-0.4,1.3-0.6,1.9c-0.2,0.9,0.1,1.5,1,1.9
		c0.6,0.3,1.1,0.4,1.8,0.4c1.3,0,2.7,0,4,0c0.1,0,0.2,0,0.3,0c1.5-0.5,3,0,4.4,0.2c0.4,0,0.6,0.3,0.4,0.7c-0.3,0.8-0.7,1.5-1.1,2.3
		c-0.3,0.5-0.7,0.8-1.3,0.9c-0.7,0.1-1.4,0.2-2.1,0.3c-0.3,0-0.5,0-0.8-0.1c-0.3,0-0.7-0.1-1,0c-0.5,0.1-0.9,0-1.3-0.1
		c-0.7-0.1-1.3-0.1-2-0.1c-0.9,0-1.8,1-1.8,1.9c0.1,1.3,0,2.6,0.2,3.8c0.1,0.8,0.2,1.7,0.1,2.5C279.6,93.9,279.6,94.7,279.7,95.5
		C279.6,95.5,279.7,95.5,279.7,95.5z"/>
	<path fill="#FBC930" d="M186.8,129.6c-1,0-1.7,0.6-2.3,1.2c-1.1,1-2.2,2.2-3.3,3.2c-0.3,0.3-0.5,0.6-0.5,1c-0.1,0-0.3,0-0.4,0
		c-0.7-0.2-0.7-0.9-0.8-1.5c-0.3-1.7-0.9-3.3-1.4-5c-0.6-2.2-2.2-3.8-3.8-5.4c-3.5-3.7-7.1-7.3-10.7-10.9c-2.8-2.7-5.6-5.4-8.7-7.7
		c-0.3-0.2-0.7-0.4-0.7-0.9c0,0,0,0,0-0.1c0.2-0.6,0.6-1,1.1-1.3c0.6-0.4,0.6-0.4,1.2,0c0.4,0.4,0.8,0.6,1.5,0.4
		c0.5-0.2,0.6,0,0.9,0.5c0.1,0.2,0.2,0.5,0.4,0.7c0.2,0.2,0.5,0.3,0.8,0.2c0.3-0.1,0.6-0.5,0.5-0.8c-0.1-0.7-0.4-1.2-1.1-1.5
		c-0.4-0.2-0.6-0.5-0.4-0.9c0.1-0.3,0.3-0.7,0.6-1c0.7-0.6,1.4-1.1,2.2-1.6c0.1-0.1,0.4-0.1,0.6-0.1s0.4,0.2,0.6,0.3
		c0.5,0.3,1.3-0.2,1.1-0.7c-0.1-0.7,0-1.6-0.9-2c-0.2-0.1-0.2-0.5-0.4-0.7c-0.1-0.1-0.3-0.1-0.4-0.1c-0.1,0-0.2,0.1-0.3,0.1
		c-0.9,0.6-1.8,1.2-2.6,2c-0.3,0.3-0.5,0.6-0.5,1c0,0.5-0.3,0.7-0.7,0.9c-0.4,0.2-0.8,0.2-1,0.5c-0.9,1.1-2.2,1.4-3.3,2.2
		c-0.3,0.2-0.7,0-0.8-0.3c-0.1-0.3-0.1-0.7-0.3-1c-0.3-0.5-0.6-1-1.3-0.7c-0.5,0.2-0.8-0.1-1-0.5c-0.5-1.2-1.5-1.2-2.5-1
		c-0.2,0-0.4,0.1-0.7,0.2c-0.2,0-0.4-0.2-0.3-0.5c0.2-0.4,0.4-0.8,0.7-1.1c0.4-0.5,0.6-1,0.3-1.5c-0.3-0.8-0.2-1.5-0.2-2.3
		c0-0.9-0.2-1.6-0.7-2.3c-0.6-0.8-0.9-1.8-1-2.8c0.6-0.1,1.1-0.1,1.7,0.1c0.9,0.3,1.8-0.1,2.7,0.2c1.1,0.2,2.3,0.4,3.4,0.7
		c0.1,0,0.2,0,0.3,0c1.7,0.8,3.7,1,5.2,2.2c0.1,0.1,0.2,0.1,0.3,0.2c2.4,1.3,4.4,3,6.5,4.6c0.6,0.5,1.3,0.8,2,1.3
		c1.4,1,2.9,1.8,4.1,3.1c0.5,0.6,1.1,1.1,1.8,1.5c0.9,0.6,1.7,1.4,2,2.5c0.1,0.4,0.4,0.7,0.6,1c0.3,0.4,0.6,0.8,0.9,1.2
		c0.7,0.8,1,1.8,1.4,2.8c0.3,1.1,0.9,2,1.3,3.1c0.3,0.8,0.6,1.6,0.8,2.4c0.3,0.9,0.6,1.8,1.1,2.6c0.3,0.4,0.5,0.9,0.8,1.3
		c0.8,1.3,1.2,2.8,1.1,4.3c0,1,0.2,1.9,0.4,2.8c0.1,0.4,0.3,0.9,0.8,1c0.7,0.2,1,0.7,1.2,1.3C186.7,128.5,186.8,129,186.8,129.6z"/>
	<path fill="#FECE32" d="M132.6,169.6c0,0,0,0.1,0,0.1c-0.6,0.1-0.9,0.4-0.9,1c0,0.4,0,0.8,0,1.2c0,0.6-0.1,1.2-0.5,1.7
		c-0.6,0.8-0.7,1.7-0.8,2.7c-0.1,0.5-0.1,1-0.4,1.4c-0.3,0.4-0.3,0.8-0.3,1.3c0,0.8-0.1,1.6-0.2,2.5c-0.2,1.5-0.1,3-0.1,4.5
		c0,0.2,0.1,0.4,0.2,0.5c0.5,0.6,0.5,1.3,0.5,2.1c-0.5-0.5-1.1-0.9-1.6-1.4c-0.2-0.2-0.3-0.4-0.4-0.7c-0.7-1.4-1.3-2.8-1.9-4.3
		c-0.1-0.3-0.3-0.5-0.3-0.8c-0.3-1.9-1.3-3.5-1.9-5.3c-0.2-0.7-0.5-1.3-0.8-2c-0.8-2.4-1.6-4.8-2.3-7.1c-0.7-2.3-1.4-4.6-1.9-6.9
		c-0.3-1.6-0.7-3.1-1-4.7c-0.4-2.4-1-4.7-1.6-7c-0.3-1.1-0.7-2.1-1.1-3.1c-1.2-3-2.3-5.9-3.5-8.8c-0.1-0.1-0.1-0.3-0.1-0.5
		c-0.1-0.3-0.1-0.5-0.3-0.8c0-0.2-0.1-0.4-0.1-0.6c0-0.1,0-0.1-0.1-0.2c0-0.2-0.1-0.4-0.2-0.6v0c-0.1-0.1-0.1-0.3-0.2-0.4
		c0,0,0,0,0,0c0-0.1,0-0.2-0.1-0.2c-0.1-0.1-0.1-0.1-0.1-0.2c0-0.2-0.2-0.3-0.2-0.4c0-0.2-0.1-0.4-0.1-0.6v0c0,0,0-0.1,0-0.1
		c-0.1-0.2-0.1-0.5-0.2-0.6c-0.1-0.1-0.1-0.2,0-0.3c-0.1-0.2-0.1-0.6-0.3-0.8c-0.1-0.1-0.1-0.2,0-0.3c0.4-0.4,0.7-0.8,1.1-1.2
		c0.3-0.3,0.6-0.5,0.9-0.7c0.3-0.2,0.8,0,1,0.3c0.2,0.3,0.2,0.6,0,0.8c-0.3,0.3-0.9,0.5-0.9,1.1c0,0.5,0.4,0.7,0.7,1.1
		c0.1,0.2,0.2,0.4,0.3,0.6c0,0,0,0.1,0.1,0.1c0,0,0.2,0.1,0.3,0c0,0,0,0,0.1-0.1c0.1-0.1,0.2-0.2,0.2-0.3c0.3-0.5,0.7-0.6,1.2-0.7
		c0.1,0,0.2,0.1,0.3,0.1c0,0,0,0.1,0,0.1c-0.2,0.5-0.4,0.9-0.7,1.3c-0.3,0.4-0.7,0.7-1.1,1c-0.4,0.3-0.5,0.7-0.3,1
		c0.2,0.3,0.6,0.6,1,0.5c0.9-0.2,1.9-0.4,2.6-1.1c0.2-0.2,0.4-0.4,0.5-0.7c0-0.2-0.2-0.4-0.2-0.6c-0.4-1.1-0.2-2.2,0.7-2.8
		c0.1-0.1,0.5-0.1,0.6,0c0.2,0.1,0.4,0.4,0.5,0.6c0.2,0.4,0.5,0.5,1,0.5c0,0,0,0,0,0c0.1,0,0.1,0.1,0.1,0.1c0.1,0.2,0.2,0.3,0.3,0.5
		c0.1,0.1,0.1,0.2,0.2,0.3c0.1,0.1,0.2,0.2,0.2,0.3c0.1,0.1,0.1,0.3,0.2,0.4c0.1,0.2,0.1,0.4,0.1,0.6c0,0.1,0,0.1,0,0.2
		c0,0.1,0,0.2-0.1,0.3c0,0,0,0,0,0c-0.5,0.8-1.2,1.3-2,1.5c-0.2,0.1-0.6,0.1-0.6,0.4c0,0.3,0.4,0.3,0.7,0.4c1,0.2,2,0,2.9,0.1
		c0.1,0,0.2,0,0.3,0.1c0.1,0,0.2,0,0.3,0.1c0.3,0.2,0.6,0.4,0.7,0.7c0.5,3,2.5,5.5,2.7,8.5c0,0.5,0.2,0.9,0.4,1.3
		c1.7,5.1,2.7,10.4,3.6,15.7c0.2,1.1,0.8,1.8,1.5,2.5C131.9,166.2,132.8,167.7,132.6,169.6z"/>
	<path fill="#21563F" d="M318,298.8c-0.5-0.3-0.9-0.6-1.4-0.9c-3.1-2.7-6.3-5.4-9.4-8.2c-0.3-0.3-0.6-0.5-0.9-0.7
		c-4.6-3.1-8.4-7-12.6-10.5c-0.5-0.4-1-0.9-1.2-1.5c0-0.6,0.3-1,0.7-1.3c2.5-2.1,4.9-4.3,7.5-6.3c0.3-0.2,0.6-0.4,1-0.4
		c1,0.9,2,1.8,2.9,2.8c1.2,1.4,2.5,2.7,3.8,4c1.7,1.8,3.3,3.6,5,5.4c0.3,0.3,0.1,0.5,0,0.7c-0.2,0.4-0.1,0.5,0.3,0.4
		c0.4-0.1,0.6-0.1,0.9,0.2c0.4,0.5,0.8,0.9,1.3,1.3c2.4,2.5,4.7,5,7.1,7.5c0.2,0.2,0.4,0.6,0.5,0.8c-0.8,0.9-1.5,1.9-2.2,2.9
		C320.3,296.4,319.4,297.8,318,298.8z"/>
	<path fill="#22ADE3" d="M169.4,342.8c-1.3-0.4-2.8-0.5-4-1.3c-0.6-0.5-0.7-1.3-0.8-2c-0.8-4.9-1.6-9.8-2.3-14.7
		c-0.1-0.7-0.4-1.4,0.2-2c0.3,0,0.6-0.1,0.8-0.1c2.4-0.1,4.8-0.1,7.1-0.1c0.4,0,0.9,0,1.3-0.1c2-0.2,4-0.3,6-0.3
		c0.4,0,0.8,0,1.2-0.1c1.3-0.3,2.6-0.2,4-0.3c0.4,0,0.8,0.1,1.1,0.2c0.5,0.2,1,0.2,1.5,0.2c-0.2,1.6-0.8,2.1-2.5,2.1
		c-0.9,0-1.9-0.3-2.8,0.2c-0.6,0.3-0.9,0.7-0.7,1.4c0.5,1.4,1.1,2.4,2.5,3c1.9,0.8,2,2.4,0.2,3.4c-0.9,0.5-1.2,1.2-1.1,2.2
		c0.2,1-0.3,1.7-1,2.3c-2.1,1.8-4.3,3.5-7.1,4.1C171.7,341.1,170.3,341.6,169.4,342.8z"/>
	<path fill="#8ACFF1" d="M252.6,407.9c-0.2,1.5,0.2,3,0.5,4.5c0.3,1.5,0.7,3,1.4,4.5c0.2,0.4,0.4,0.8,0.6,1.2
		c0.4,0.9,0.6,1.8,0.5,2.7c0,0.6-0.3,0.9-0.8,1.2c-0.7,0.4-1.5,0.4-2.3,0.1c-0.3-0.1-0.5-0.4-0.5-0.8c0-0.2,0.1-0.3,0.1-0.5
		c0.2-1.6,0.1-3.2-0.5-4.8c-0.6-1.7-1.1-3.4-1.6-5.1c-0.4-1.4-0.5-2.8-0.9-4.2c-0.5-2-0.7-4-1-6.1c-0.3-1.8-0.6-3.6-0.9-5.4
		c-0.2-1.1,0.2-2,0.9-2.7c0.1-0.2,0.4-0.3,0.6-0.3c0.4,0,0.8,0,1.1,0.2c0.7,0.3,1.4,0.7,2,1.2c0.3,0.2,0.5,0.5,0.7,0.7
		c0.3,0.5,0.6,1,0.9,1.4c1.1,1.9,2.3,3.8,3.4,5.7c0.6,1,1,2.1,1.6,3.1c0.2,1.3,1,2.5,1.4,3.7c0.5,1.4,0.8,2.8,1.1,4.2
		c0.3,1.3,0.7,2.5,1.1,3.6c0.2,0.6,0.5,1.1,1,1.5c0.3,0.2,0.6,0.3,0.9,0.4c0.7,0.1,1.2-0.3,1.3-1c0-0.7,0-1.3-0.1-2
		c-0.4-2.4-0.8-4.8-1.3-7.2c-0.3-1.5-0.6-3.1-1-4.6c-0.2-1-0.6-1.9-1-2.8c-0.4-1-0.9-1.9-1.2-2.9c-0.9-2.3-1.4-4.7-1.3-7.2
		c0-0.4-0.1-0.8-0.1-1.2c0-0.6-0.1-1.2,0.2-1.8c0.2-0.4,0.7-0.6,1.1-0.5c0.5,0.2,0.8,0.6,0.9,1.1c0.3,1.1,0.7,2.1,0.9,3.2
		c0.2,1.2,0.7,2.2,1.2,3.2c0.6,1.1,0.7,2.4,1.2,3.6c0.1,0.2,0.1,0.6,0,0.8c-0.4,1,0,1.6,0.9,2c0.3,0.1,0.4,0.3,0.3,0.7
		c-0.3,1-0.2,2.1,0.1,3.1c0.5,1.9,1,3.9,1.4,5.8c0.2,1,0.3,2.1,0.4,3.1c0.1,1.5-0.4,3-0.9,4.4c-0.2,0.5-0.6,0.9-1,1.3
		c-0.7,0.5-1.5,0.7-2.3,0.3c-1.1-0.5-2-1.2-2.5-2.3c-0.2-0.4-0.4-0.8-0.6-1.2c-0.9-2-1.9-3.9-3-5.7c-0.5-0.8-0.8-1.6-1.2-2.4
		c-0.5-1-0.9-2-1.4-3c-0.2-0.5-0.5-1-1.1-0.9c-0.6,0-0.9,0.6-1.1,1.1c-0.1,0.3-0.2,0.6-0.2,1C252.6,406.8,252.6,407.3,252.6,407.9z"
		/>
	<path fill="#FAAD64" d="M162.5,322.7c0.9,5.8,1.8,11.5,2.8,17.3c0.1,0.5,0.1,1,0.1,1.5c-0.4-0.1-0.8-0.1-1.1-0.2
		c-3.5-1.1-7.1-2.1-10.6-3.2c-2.2-0.7-4.4-1.4-6.6-2.1c-0.6-0.7-0.6-1.5-0.4-2.4c0.5-3.4,1-6.9,1.5-10.3c0.1-0.7,0.1-1.5,0.9-1.8
		c0.8,0,1.6-0.2,2.4,0.4c0.3,0.2,0.8,0.2,1.3,0.2c1.3,0,2.5,0,3.8,0c0.6,0,1.2,0.1,1.7,0.5c0.6,0.4,1.3,0.5,2.1,0.3
		C161,322.8,161.7,322.5,162.5,322.7z"/>
	<path fill="#10B3E9" d="M169.4,342.8c0-0.2-0.2-0.5-0.1-0.6c0.3-0.5,0.7-0.9,1.3-1c0.5-0.1,1.1-0.3,1.6-0.6
		c0.6-0.3,1.1-0.5,1.7-0.5c0.4,0,0.9-0.1,1.3-0.4c1.4-0.9,2.9-1.6,4.1-2.9c0.2-0.3,0.6-0.4,0.9-0.7c0.5-0.4,0.7-0.9,0.6-1.5
		c0-0.3-0.1-0.5-0.2-0.8c-0.2-0.8,0-1.3,0.7-1.7c0.4-0.2,0.8-0.4,1.2-0.5c0.4-0.2,0.6-0.5,0.7-0.9c0-0.5,0-1-0.5-1.3
		c-0.3-0.2-0.6-0.3-0.9-0.4c-0.4-0.2-0.8-0.3-1.2-0.5c-0.6-0.2-0.9-0.7-1-1.3c0-0.8-0.3-1.4-0.8-1.9c-0.3-0.4-0.2-0.7,0.2-0.9
		c0.5-0.2,1-0.5,1.5-0.8c0.4-0.3,0.8-0.3,1.3-0.2c0.5,0.1,1.1,0.2,1.6,0.2c0.9,0.1,1.5-0.2,1.9-1c0.1-0.2,0.2-0.4,0.3-0.6
		c0.4-0.4,0.8-0.7,1.4-0.8c0.6-0.1,1.2-0.2,1.8-0.3c0.3-0.1,0.8-0.1,0.9-0.3c0.8-0.8,1.8-0.7,2.8-0.9c0.7-0.2,1.4-0.3,2-0.8
		c0.4-0.3,1.1-0.4,1.7-0.6c0.3-0.1,0.7-0.1,0.9-0.3c0.4-0.5,1-0.7,1.6-0.8c0.4-0.1,0.8-0.4,1.2-0.6c0.2-0.1,0.4-0.3,0.6-0.3
		c0.8-0.1,1.5-0.5,2-1.1c0.3-0.3,0.7-0.3,1.1-0.3c0.2-0.1,0.3-0.1,0.4,0c0.2,0.3,0.4,0.6,0.7,0.6c0.2,0,0.4,0,0.7,0.1
		c1.3,0.2,1.6,0.9,0.9,2c-0.1,0.2-0.2,0.4-0.4,0.5c-0.7,0.3-1,1-1.3,1.7c-0.1,0.2-0.3,0.5-0.4,0.7c-0.4,1-1,1.5-2.2,1.4
		c-1.2,0-1.8,0.6-2,1.8c0,0.3-0.1,0.6-0.2,0.8c-0.2,0.5-0.5,1-1.1,1.2c-0.6,0.2-1.2,0.5-1.9,0.7c-0.3,0.1-0.7,0.1-1,0
		c-1.3-0.6-2.7-0.5-4.1-0.5c-0.8,0-1.5,0.4-1.9,1.1c-0.5,0.8-0.9,1.5-1.6,2.1c-0.5,0.4-0.7,1-0.6,1.6c0,0.4,0,0.8,0,1.2
		c-0.2,0.3-0.6,0.3-0.9,0.3c-0.6,0-1.2,0.3-1.6,0.7c-0.5,0.4-0.9,1-0.8,1.7c0.1,0.8-0.1,1.5-0.5,2.2c-0.3,0.4-0.5,0.8-1,1.1
		c-0.5,0.3-0.8,0.7-1,1.3c-0.2,0.6-0.5,1.1-1.1,1.4c-0.5,0.2-0.8,0.6-0.9,1.1c-0.2,0.7-0.5,1.2-1,1.7c-0.5,0.4-0.6,1.2-1.3,1.5
		c-0.1,0-0.2,0-0.3-0.1c-0.2-0.2-0.5-0.1-0.7-0.3c-0.2-0.1-0.4-0.1-0.6-0.2c-0.1-0.1-0.2-0.1-0.3-0.2c-0.2,0-0.4-0.1-0.6-0.1
		c-0.2-0.1-0.5-0.1-0.7-0.2c-0.1,0-0.2-0.1-0.3-0.1c-0.2-0.2-0.5-0.1-0.7-0.2c-0.1,0-0.2-0.1-0.3-0.1c-0.3-0.2-0.7,0-1-0.2
		c-0.1,0-0.2-0.1-0.3-0.1c-0.1-0.1-0.3-0.2-0.4-0.2c-0.2,0-0.4-0.1-0.6-0.1c-0.2-0.1-0.5-0.1-0.7-0.2l-0.2,0L169.4,342.8z"/>
	<path fill="#35B157" d="M221.9,423.9c0.4,0,0.8-0.1,1.2,0c0.9,0.1,1.6-0.1,2.3-0.7c0.6-0.5,1.4-0.9,2.2-1.2
		c1.9-0.6,3.5-1.6,5.1-2.8c0.6-0.5,1.3-0.7,2-0.8c0.3,0,0.6,0,0.8,0c0.7,0.1,1,0.6,1,1.3c-0.2,1.2-0.6,2.2-1.7,2.9
		c-0.6,0.3-1.2,0.8-1.8,1.2c-0.9,0.6-1.9,1.2-3.1,1c-1.8,0.5-3.7,0.2-5.5,0.5c-0.3,0.1-0.6,0-0.8,0.1c-1.3,0.5-2.7,0.6-4,1.1
		c-1.1,0.4-2.2,0.4-3.3,0.5c-0.7,0.1-1.3,0.1-2,0.2c-1.3,0.1-2.1-0.4-1.8-2c0.2-1,0.6-2,0.6-3.1c0-0.4,0.3-0.9,0.6-1.1
		c0.6-0.4,0.9-1,1.1-1.6c0.3-0.6,0.6-1.2,0.9-1.8c1-2,2.3-3.8,3.5-5.7c0.7-1,1.2-2.1,1.7-3.3c0.3-0.8,0.6-1.5,0.9-2.3
		c0.5-1.4-0.3-2.4-1.7-2.2c-1.1,0.2-2.2,0.4-3.2,0.7c-2.5,0.8-4.9,1.8-7.3,2.9c-1,0.5-1.9,1-2.9,1.2c-0.5,0.1-0.9,0.1-1.2-0.3
		c-0.1-0.1-0.3-0.2-0.4-0.3c-0.8-0.6-1.1-1.1-0.7-2c0.3-0.7,0.6-1.3,1-1.9c0.3-0.5,0.9-0.6,1.5-0.7c0.7-0.1,1.3-0.1,2-0.2
		c0.7-0.1,1.3-0.3,1.9-0.5c0.3-0.1,0.5-0.1,0.8-0.2c2.1-0.1,3.9-0.8,5.6-2c0.6-0.4,1.2-0.8,1.8-1.3c0.4-0.4,0.9-0.4,1.4-0.2
		c2.8,1.1,4.6,3,5.1,6c0.4,2.3,0.4,2.2-0.6,4.3c-2,4-4,8.1-6,12.1c0,0.1-0.1,0.2-0.1,0.3c-0.6,1.1-0.1,1.6,0.8,1.6
		c0.9,0,1.8,0,2.7,0C221.9,423.8,221.9,423.8,221.9,423.9z"/>
	<path fill="#A5CD3A" d="M356.8,346.6c0-1.8-0.6-3.5-1.9-5.1c-1.2-1.4-2.3-2.9-3.5-4.3c-0.6-0.7-1-1.6-1.2-2.5
		c-0.1-0.2,0.1-0.6,0.2-0.7c0.2-0.3,0.5-0.2,0.7,0c0.5,0.4,1,0.7,1.4,1.2c1,1.3,2.3,2.4,3.1,3.9c0.1,0.1,0.2,0.3,0.3,0.4
		c1.4,1,2,2.5,2.8,3.9c0.2,0.4,0.4,0.8,0.7,1.1c1,1.1,1.9,2.3,2.6,3.7c0.7,1.4,1.7,2.6,2.5,3.9c0.5,0.7,0.9,1.5,1.4,2.3
		c0,0,0.1,0.1,0.1,0.1c-0.1,1.3,0.9,2.2,1.3,3.4c0.1,0.2,0.1,0.3,0.2,0.5c0.2,0.6,0,1.1-0.4,1.5c-0.9,0.8-1.6,0.8-2.1-0.3
		c-1.1-2.3-2.8-4.3-3.9-6.6c-0.5-1.1-0.9-2.2-1.2-3.3c-0.1-0.4-0.2-0.8-0.3-1.1c-0.3-0.7-1.1-0.9-1.6-0.3c-0.2,0.2-0.4,0.5-0.5,0.8
		c-0.3,1-0.8,1.8-1.4,2.7c-0.4,0.5-0.5,1.1-0.3,1.7c0.3,0.9,0.6,1.9,1.1,2.8c0.7,1.3,1.6,2.5,2.4,3.8c0.5,0.7,1.1,1.3,1.8,1.7
		c0.2,0.1,0.4,0.2,0.6,0.4c0.4,0.4,0.9,0.7,0.7,1.4c-0.3,0.8-0.7,1.5-1.6,1.5c-1.4,0.2-2.6-0.2-3.3-1.6c-1.2-2.2-2.9-4-4.3-6.1
		c-0.1-0.2-0.4-0.4-0.6-0.6c-0.4-0.3-0.7-0.7-0.8-1.2c-0.3-1.1-0.9-1.9-1.6-2.7c-1.6-1.9-3.2-3.8-4.8-5.8c-0.8-1-1.6-2.1-2.2-3.3
		c-0.4-0.9-0.8-1.8-1.3-2.7c0,0,0-0.1-0.1-0.2c-0.2-0.6,0.9-2,1.5-1.9c0.7,0,1.4,0.2,2,0.8c1,1,2,1.9,2.7,3.2
		c0.7,1.2,1.5,2.4,2.2,3.5c0.4,0.6,0.6,1.2,0.6,1.9c0,0.6,0.1,1.2,0.7,1.6c0.6,0.4,1.3,0.6,2.1,0.4c0.8-0.3,1.5-0.6,2.3-1
		c0.7-0.4,1.1-1,1-1.8C356.8,347.1,356.8,347,356.8,346.6z"/>
	<path fill="#5EBB49" d="M300.7,371.9c0.5,0,0.7,0.4,0.9,0.7c1.2,2.3,2.7,4.5,3.7,6.9c0.6,1.3,1.1,2.7,1.6,4
		c0.8,2.1,1.7,4.2,2.5,6.3c0.7,1.6,1.5,3.2,2.3,4.8c0.4,0.8,0.7,1.6,0.9,2.5c0.2,0.7,0.2,1.4-0.2,2.1c-0.6,1.2-1.7,1.6-2.9,1.1
		c-0.7-0.3-1.3-0.7-1.6-1.4c-0.4-0.9-1-1.7-1.6-2.5c-1-1.5-2.1-3-3.1-4.5c-0.8-1.2-1.8-2.1-2.9-2.9c-1.5-1.1-3-2.3-4.5-3.4
		c-0.2-0.1-0.3-0.3-0.5-0.4c-0.7-0.5-1.3-0.3-1.5,0.5c0,0.1,0,0.2-0.1,0.3c-0.4,1.5-0.4,1.5,0.4,2.8c0.7,1.1,1.4,2.2,2,3.2
		c0.5,0.8,1,1.5,1.2,2.4c0.1,0.5,0.4,0.9,0.8,1.3c1.4,1.5,2.5,3.2,3.7,4.9c0.7,1,0.7,2.1,0.8,3.2c0,0.2-0.3,0.5-0.5,0.5
		c-0.5,0-1,0-1.5-0.2c-0.5-0.3-1-0.6-1.4-0.9c-0.6-0.4-0.9-0.9-1-1.6c-0.2-1.7-1-3.2-1.8-4.6c-0.7-1.1-1.5-2.2-2.2-3.3
		c-0.6-0.9-1.2-1.9-1.8-2.8c-0.5-0.8-0.8-1.6-1.4-2.3c-1.1-1.6-1.9-3.3-2.7-5.1c-0.3-0.6-0.5-1.2-0.8-1.8c-0.4-0.7-0.2-1.4,0.1-2
		c0.2-0.4,1-0.7,1.5-0.4c0.6,0.3,1.2,0.5,1.8,0.9c1.9,1.5,4,2.5,6.3,3.4c2,0.8,3.3,2.4,4.4,4.1c0.7,1.1,1.2,2.4,2.2,3.3
		c0.1,0.1,0.1,0.2,0.2,0.3c1,2.1,2.5,3.8,3.7,5.7c0.2,0.4,0.4,0.8,0.7,1.1c0.2,0.3,0.7,0.4,1,0.2c0.8-0.4,1-1,0.6-1.8
		c-0.5-1-0.9-2-1.5-3c-0.8-1.4-1.5-2.8-2-4.4c-0.8-2.4-1.8-4.8-2.7-7.2c-0.1-0.3-0.2-0.6-0.3-0.9c-0.3-0.8-0.5-1.6-0.8-2.4
		c-0.2-0.6-0.5-1.1-0.7-1.7c-0.5-1.3-0.9-2.6-1.3-4C300.8,372.5,300.8,372.2,300.7,371.9C300.7,371.9,300.7,371.9,300.7,371.9z"/>
	<path fill="#2FB0E5" d="M197.1,226.9c0,1.5-0.1,3-0.8,4.3c-0.1,0.2-0.2,0.5-0.2,0.8c0.1,1-0.4,1.7-0.9,2.5
		c-0.9,1.3-1.5,2.7-1.8,4.2c-0.2,0.9-0.6,1.8-1.2,2.5c-0.2,0.3-0.4,0.5-0.6,0.8c-0.2,0.3-0.4,0.6-0.7,0.7c-1.5,0.5-2.2,2-3.5,2.7
		c-0.4,0.3-0.4,0.8-0.4,1.2c-0.8,0.3-1.2-0.3-1.7-0.7c-2.6-2.3-5.3-4.5-7.9-6.7c-0.5-0.5-1.3-0.8-1.1-1.7c1.2-0.7,2.4-1.3,3.7-2
		c5.4-2.8,10.8-5.5,16.2-8.3C196.5,227.1,196.8,227,197.1,226.9z"/>
	<path fill="#12B593" d="M320.5,371.3c0.4-0.1,0.9-0.1,1.3-0.3c0.8-0.5,1.8-0.6,2.7-0.8c0.7-0.1,1.3-0.5,1.8-1.1
		c0.5-0.7,1.2-1.2,1.8-1.7c0.2-0.2,0.5-0.2,0.8-0.2c1,0,1.9,0.1,2.8,0.5c0.4,0.2,0.8,0.4,1.2,0.5c1,0.4,2,0.8,2.3,2
		c0,0.1,0.1,0.2,0.2,0.3c1.2,0.9,1.5,2.4,2.2,3.7c0.4,0.8,0.4,1.6,0.2,2.4c-0.1,0.5-0.4,1.1-0.5,1.6c-0.2,0.8-0.5,1.6-0.6,2.4
		c-0.1,0.8-0.3,1.5-0.8,2.2c-0.7,1.2-1.6,2.3-2.7,3.1c-0.8,0.6-1.5,1.3-2.3,2c-1.1,1.1-2.4,1.7-4.1,1.6c-0.3,0-0.5-0.1-0.8-0.2
		c-0.2-0.1-0.3-0.3-0.2-0.6c0.3-0.6,0.7-1.2,1.3-1.4c0.5-0.2,1-0.4,1.6-0.6c0.7-0.2,1.3-0.6,1.8-1.2c0.7-0.9,1.5-1.7,2.4-2.2
		c0.9-0.6,1.4-1.4,1.7-2.4c0.3-1.2,0.5-2.4,0.7-3.6c0.1-0.3,0-0.6,0-0.8c-0.2-1.6-0.7-3-1.9-4.2c-0.2-0.2-0.4-0.5-0.6-0.8
		c-0.1-0.1-0.2-0.3-0.3-0.4c-0.8-0.3-1.5-1-2.2-1.4c-0.3-0.2-0.8-0.2-1.1,0c-0.4,0.2-0.9,0.5-1.2,0.8c-0.3,0.3-0.6,0.6-0.9,1
		c-0.2,0.2-0.5,0.5-0.9,0.4c-0.9-0.1-1.6,0.4-2.2,1c-0.2,0.2-0.4,0.4-0.6,0.6c-1.6,1.8-3.7,2.1-5.8,1.7c-2.5-0.5-4.5-1.9-5.8-4.2
		c-0.3-0.5-0.4-1-0.4-1.6c0-1,0.3-2,0.7-2.9c1.1-2.1,2.6-4,4.6-5.4c0.4-0.3,0.8-0.5,1.2-0.8c0.4-0.3,0.9-0.5,1.2-0.8
		c0.6-0.7,1.2-0.7,2-0.5c1.5,0.5,1.7,1.2,0.7,2.4c-0.1,0.2-0.3,0.4-0.5,0.5c-1.1,0.6-2,1.6-3.2,2.1c-1.6,0.6-2.8,2.7-2.7,4.3
		c0,0.6,0.2,0.9,0.9,1c0.5,0.1,0.9,0.2,1.2,0.7c0.4,0.9,1.2,1.3,2.2,1.3c0.3,0,0.6,0,0.8,0C320.5,371.3,320.5,371.3,320.5,371.3z"/>
	<path fill="#47483C" d="M134.2,331.9c-0.4-0.1-0.8-0.1-1.1-0.3c-0.5-0.4-1.1-0.6-1.7-0.6c-0.3,0-0.6-0.1-0.8-0.3
		c-0.5-0.5-1.1-0.6-1.8-0.6c-0.2,0-0.4,0-0.5-0.1c-0.6-0.7-1.4-0.6-2.1-0.7c-0.2,0-0.4-0.1-0.4-0.2c-0.6-0.7-1.3-0.7-2.1-0.7
		c-0.3,0-0.6-0.2-0.9-0.3c-0.3-0.1-0.6-0.3-0.9-0.4c-1.1,0-1.5-0.7-1.5-1.7c0.1-2.3,0.5-4.5,0.8-6.8c0.1-0.9,0.7-1.3,1.6-1.3
		c0.5,0,1,0.1,1.5-0.1c0.8,0,1.7-0.1,2.5,0c0.4,0,0.9,0.1,1.3,0.3c0.5,0.2,0.9,0.3,1.4,0.3c1.2,0,2.3,0,3.5,0c0.6,0,1.1,0,1.6,0.4
		c0.2,0.2,0.6,0.3,0.9,0.3c0.6,0.1,1.2,0.1,1.8,0.1c0.8,0.4,0.6,1.1,0.4,1.8c-0.7,3.2-1.6,6.4-2.4,9.6
		C135.2,331.1,135.1,331.8,134.2,331.9z"/>
	<path fill="#F6F289" d="M134.2,331.9c0.5-0.3,0.5-0.8,0.6-1.3c0.6-2.4,1.2-4.8,1.8-7.2c0.3-1.1,0.6-2.2,0.9-3.4
		c0.1-0.3,0.1-0.6-0.2-0.9c0.3,0.1,0.6,0.1,0.8,0.3c0.6,0.5,1.4,0.7,2.2,0.7c0.7,0,1.4,0,2.1,0.5c0.2,0.2,0.6,0.2,1,0.2
		c0.5,0,1,0,1.5,0c0.3,0,0.7,0,1,0.1c0.8,0.6,1.8,0.5,2.7,0.5c0.2,0,0.3,0,0.5,0c-0.1,0.3-0.2,0.5-0.3,0.8c-0.3,2-0.5,3.9-0.8,5.9
		c-0.3,1.9-0.6,3.8-0.9,5.7c-0.1,0.7,0,1.4,0,2.2c-3.5-1.1-7-2.1-10.5-3.2C135.7,332.6,135,332.2,134.2,331.9z"/>
	<path fill="#98CA4D" d="M220.1,90.3c-0.1,0.3-0.3,0.7-0.5,0.8c-0.9,0.4-1.2,1.2-1.7,1.9c-0.2,0.4-0.5,0.8-0.7,1.1c0,0,0,0,0,0
		c-0.2,0.3-0.6,0.3-0.9,0.3c-4.5-0.3-7.9,1.8-10.7,5c-2.7,3.2-4,7-4.7,11c-0.2,1.3-0.1,2.7-1.2,3.7c0,0,0,0,0,0
		c-0.4,0.7-0.8,1.5-1.4,2c-0.5,0.4-0.8,0.9-1.1,1.4c-0.2,0.3-0.4,0.7-0.6,0.9c-0.4,0.5-0.8,0.4-1.1-0.2c-0.1-0.2-0.2-0.3-0.3-0.4
		c0-1.4-0.1-2.9-0.1-4.3c0-0.3,0.1-0.7,0.3-0.9c0.5-1,1-1.9,1.5-2.8c0.3-0.7,0.7-1.4,0.9-2.1c0.8-2.4,1.8-4.7,2.8-6.9
		c0.6-1.4,1.1-2.8,2.1-3.9c0.8-1,1.5-2.1,2.5-2.8c1.1-0.8,2.3-1.6,3.4-2.4c0.3-0.2,0.7-0.3,1.1-0.3c1.4,0,2.7-0.6,4-1.1
		c0.9-0.4,1.9-0.7,2.9-0.7c1,0,2.1,0,3.1,0C220,89.6,220.2,89.9,220.1,90.3z"/>
	<path fill="#FCCE31" d="M332.9,358.5c0-1.8,0.2-3.5,0.8-5.1c0.5-1.4,1.1-2.7,1.9-3.9c0.3-0.5,0.7-0.8,1.3-1
		c0.4-0.2,0.8-0.4,1.2-0.6c0.8-0.4,1.6-0.6,2.4-0.1c0.2,0.1,0.5,0.3,0.8,0.3c0.8,0.2,1.1,0.7,1.2,1.4c0,0.2,0.1,0.3,0.1,0.5
		c0,1.5,0.3,2.2-1.8,2.8c-0.6,0.2-1.3,0.4-1.9,0.5c-0.7,0.2-1.2,0.6-1.6,1.1c-0.9,1.2-0.9,2.6-0.7,4c0.2,1.9,0.8,3.7,1.4,5.5
		c0.6,1.8,1.7,3.4,3.3,4.5c1.1,0.8,2.1,1.7,3.3,2.3c1,0.5,1.9,0.5,2.9,0.1c0.4-0.2,0.7-0.4,0.9-0.7c0.7-1,1.2-2.2,1.1-3.4
		c0-0.6-0.1-1.3-0.5-1.7c-0.8-1-0.4-2-0.2-3c0-0.2,0.1-0.3,0.2-0.5c0.6-1.3,0.9-1.5,2-0.2c0.2,0.2,0.3,0.6,0.4,0.9
		c0.2,1.1,0.5,2.2,0.7,3.3c0.2,1.2,0,2.3-0.5,3.4c-0.1,0.2-0.2,0.4-0.4,0.5c-1.4,1.2-2.9,2.3-4.6,3.1c-0.8,0.4-1.6,0.4-2.4,0.1
		c-0.3-0.1-0.5-0.2-0.8-0.3c-2.7-1.7-5.5-3.2-7.4-5.8c-0.4-0.5-0.9-1-1.3-1.5c-0.6-0.9-1-2-1.1-3.1
		C333.3,360.7,333.1,359.6,332.9,358.5z"/>
	<path fill="#80CBBC" d="M382.3,310.6c0.1,0.1,0.2,0.1,0.2,0.2c1.7,3.6,3.4,7.2,5.1,10.8c0.8,1.6,1.6,3.2,2.3,4.8
		c0.7,1.5,1.7,2.8,2.6,4.1c0.3,0.4,0.7,0.9,1,1.4c0.6,0.9,1.4,1.5,2.3,2.1c0.6,0.3,1.1,0.1,1.3-0.5c0.2-0.5,0.3-1,0.5-1.4
		c0.2-0.5,0.4-1,0.8-1.5c0.6-0.8,1-1.6,0.9-2.6c0-0.2,0-0.3,0-0.5c0.1-0.2,0.2-0.4,0.4-0.5c0.2-0.1,0.4,0,0.6,0.2
		c0.2,0.2,0.3,0.4,0.5,0.7c0.6,1,0.7,1.8,0,2.6c-1,1-1.4,2.2-1.8,3.5c-0.5,1.5-1.3,2.7-2.4,3.7c-0.2,0.2-0.4,0.3-0.7,0.5
		c-0.5,0.4-1.1,0.4-1.7,0.2c-1.3-0.4-2.3-1.4-3.1-2.5c-0.7-1-1.4-2-1.8-3.2c-0.6-1.4-1.3-2.7-2-4c-0.4-0.8-0.8-1.7-1.1-2.6
		c-0.4-0.8-0.7-1.6-1.4-2.2c-0.4-0.4-0.7-1-0.9-1.6c-0.7-1.8-1.6-3.4-1.8-5.3c-0.1-0.5-0.4-1-0.6-1.5c-0.1-0.3-0.3-0.6-0.3-0.9
		c0-1.3,0.2-2.7,1.1-3.8C382.1,310.6,382.2,310.6,382.3,310.6z"/>
	<path fill="#FABD33" d="M385.9,343.8c0-0.9-0.1-1.9-0.4-2.8c-0.3-0.8-0.5-1.7-0.7-2.6c-0.1-0.4-0.2-0.9-0.2-1.1
		c0.2-0.7,0.1-1.2-0.2-1.8c-1-1.9-2-3.9-2.8-5.9c-0.5-1.2-1.2-2.3-1.9-3.3c-0.4-0.5-0.9-1-1.4-1.4c-0.9-0.8-1.8-1.6-2.8-2.4
		c-0.2-0.2-0.4-0.4-0.6-0.5c-0.5-0.4-0.9-0.3-1.3,0.1c-1,1.1-1.7,2.3-2,3.8c-0.1,0.5-0.1,1.1,0,1.7c0.1,0.8,0.3,1.6,0.6,2.4
		c0.9,2.3,1.8,4.5,3.3,6.5c0.2,0.2,0.4,0.5,0.4,0.7c0.1,0.7,0.6,1.2,1,1.7c0.8,1,1.5,1.9,2.3,2.9c0.6,0.8,1.2,1.6,1.8,2.4
		c0.5,0.7,1.1,1.2,1.9,1.6c1.8,1,2.8,0.2,3.2-1.6C385.9,344.2,385.9,344,385.9,343.8z M383.2,342.4c-0.1,0-0.3,0-0.5,0
		c-0.2-0.1-0.3-0.3-0.4-0.5c-1.7-2.4-3.3-4.7-5-7.1c-0.1-0.1-0.2-0.3-0.3-0.4c-0.8-1.8-1.6-3.7-2.3-5.5c0-0.8,0-1.7,0-2.5
		c0-0.4,0.5-0.6,0.9-0.5c0.1,0.1,0.2,0.1,0.3,0.2c1.1,1,2.3,1.8,3.1,3c0.6,0.9,1.3,1.8,2,2.7c0.5,0.7,0.9,1.5,0.6,2.7
		c0.1,0.6,0.2,1.3,0.4,2c0.5,1.6,1,3.2,1.5,4.8c0.1,0.3,0.1,0.7,0.1,1C383.5,342.2,383.3,342.4,383.2,342.4z"/>
	<path fill="#01AD8F" d="M375,350.3c-0.7-2.6-1.2-5.3-2-7.9c-0.6-2-1.2-3.9-2.2-5.7c-0.6-1.1-1-2.2-2-3c-0.6-0.5-1.1-0.9-1.7-1.4
		c-1.1-0.7-2.1-1.4-3.5-1.1c-0.4,0-0.7,0-1,0c-0.2,0-0.4,0.1-0.6,0.2c-0.9,0.5-1.5,1.3-2,2.2c-0.2,0.3-0.1,0.7,0.2,0.9
		c1,0.8,1.4,1.8,1.6,3c0.2,1.1,0.5,2,1,3c0.3,0.5,0.5,1.1,0.7,1.7c1.1,2.8,2.7,5.3,4.5,7.8c0.3,0.4,0.6,0.7,1,0.9
		c0.8,0.3,1.4,0.9,1.9,1.6c0.4,0.5,0.8,0.9,1.3,1.3c0.4,0.4,0.8,0.6,1.3,0.7c0.4,0.1,0.7,0,0.9-0.2s0.4-0.5,0.5-0.8
		C375.1,352.3,375.3,351.3,375,350.3z M372.5,351.5c-0.3,0.2-0.5-0.2-0.6-0.4c-2.1-2.7-4.3-5.4-6.4-8.1c-0.2-0.3-0.4-0.5-0.5-0.8
		c-0.6-2-1.2-4.1-1.1-6.2c0-0.5,0.2-1,0.3-1.5c0-0.1,0.1-0.2,0.2-0.2c0.1,0,0.1,0,0.2,0c0.8,0.3,1.5,0.6,2.1,1.3
		c0.7,0.8,1.5,1.5,2.1,2.3c0.3,0.3,0.5,0.7,0.6,1.1c1.1,3.6,2.2,7.1,3.3,10.7c0.1,0.4,0.2,0.8,0.2,1.1
		C372.9,351,372.7,351.4,372.5,351.5z"/>
	<path fill="#F5AA5E" d="M176.3,237.5c0.3,0.3,0.6,0.7,0.9,1c3,2.6,6,5.1,9,7.6c0.2,0.2,0.5,0.4,0.8,0.6c0.5,0.5,1,1,1.5,1.6
		c-0.5,0.1-1.1,0.1-1.6,0.2c-1.9,0.5-3.7,1.1-5.6,1.6c-1.3,0.3-2.6,0.8-3.9,0.5c-0.5-0.2-0.8-0.6-1-1c-1.4-2.7-2.9-5.4-4.2-8.1
		c-0.3-0.6-0.6-1.2,0-1.8C173.5,238.9,174.9,238.2,176.3,237.5z"/>
	<path fill="#A69B7E" d="M124.3,317.8c-0.5,0.4-1.2,0.3-1.7,0.3c-0.5,0-0.7,0.2-0.8,0.7c-0.1,0.4-0.1,0.8-0.2,1.1
		c-0.1,0.7-0.2,1.4-0.3,2.1c-0.2,1.5-0.3,2.9-0.5,4.4c-0.1,0.6,0.1,1,0.7,1c0.1,0,0.2,0.1,0.3,0.2c-0.6,0.2-1.2-0.1-1.8-0.3
		c-2.2-1.1-4.3-2.3-6.4-3.5c-1.8-1.1-3.7-2.2-5.5-3.4c-0.1-1.7,0.3-3.4,0.7-5c0.4,0,0.9,0,1.3,0.1c0.5,0,1,0.1,1.4,0.5
		c0.5,0.5,1.1,0.5,1.7,0.5c0.4,0,0.8-0.1,1.2,0c0.3,0,0.7,0.1,0.9,0.3c0.5,0.4,1,0.5,1.6,0.5c0.7,0,1.3,0,2,0c0.9,0,1.8,0.1,2.6,0.4
		c0.4,0.2,1,0.2,1.5,0.2C123.4,317.8,123.9,317.8,124.3,317.8z"/>
	<path fill="#F9BA30" d="M293.7,406.1c-0.1,0.4-0.2,0.7-0.3,1.1c-0.2,0.5-0.4,1.2-0.9,1.3c-0.6,0.1-0.9-0.5-1.2-1
		c-0.2-0.4-0.5-0.8-0.6-1.2c-0.4-1-0.9-1.9-1.5-2.8c-0.9-1.2-1.7-2.4-2.6-3.7c-0.6-0.9-1.3-1.8-1.3-3c0-0.3-0.2-0.5-0.3-0.8
		c-1.2-2.2-2.4-4.4-3.6-6.6c-0.4-0.7-0.7-1.5-0.9-2.3c-0.3-1.1-0.7-2.1-1.2-3.1c-0.3-0.5-0.1-1,0.1-1.4c0.3-0.4,0.7-0.6,1.2-0.5
		c1,0.2,1.9,0.5,2.4,1.5c0.4,0.9,0.9,1.6,1.4,2.5c0.1,0.1,0.2,0.3,0.2,0.4c0.5,1.5,1,3,1.5,4.4c0.7,1.9,1.5,3.7,2.6,5.4
		c0.7,1.1,1.4,2.2,2.2,3.3c1.1,1.6,2,3.3,2.6,5.2C293.5,405.4,293.6,405.8,293.7,406.1z"/>
	<path fill="#B5D447" d="M243.6,406.2c-0.1,0.4-0.1,0.8-0.2,1.1c-0.3,0.9-0.1,1.8,0.2,2.6c0.1,0.4,0.3,0.7,0.5,1.1
		c0.6,1,0.7,2.1,0.6,3.2c-0.1,0.7-0.2,1.3,0.2,2c0,1.4,0.2,2.7,0.2,4.1c0,1-0.6,1.8-1.3,2.5c-0.3,0.3-0.8,0.2-1-0.2
		c-0.1-0.2-0.2-0.5-0.3-0.8c-0.3-0.9-0.5-1.8-0.8-2.7c-0.2-0.5-0.2-0.9-0.2-1.4c0-0.8-0.2-1.6-0.3-2.5c-0.2-1.1-0.4-2.2-0.6-3.3
		c-0.1-0.3-0.1-0.6-0.2-1c-0.1-0.5-0.3-1.1-0.4-1.6c-0.3-2.1-0.7-4.3-0.9-6.4c-0.2-1.4-0.4-2.7-0.7-4.1c-0.2-0.9,0.1-1.5,0.9-1.8
		c0.8-0.3,1.8,0,2.1,0.8c0.3,0.5,0.5,1.1,0.7,1.7c0.5,1.2,1,2.5,1,3.8c0,0.5,0.2,1.1,0.3,1.6C243.4,405.4,243.5,405.8,243.6,406.2z"
		/>
	<path fill="#27ACE2" d="M243.6,268.6c-0.5,0.7-1,1.3-1.8,1.7c-0.3,0.2-0.5,0.4-0.7,0.7c-0.1,0.1,0,0.5,0.2,0.5
		c0.4,0.1,0.9,0.1,1.3-0.2c0.3-0.2,0.5-0.4,0.8-0.6c0.6-0.4,1.2-0.3,1.6,0.3c0.5,0.8,0.9,1.5,0.4,2.5c-0.1,0.2-0.1,0.6,0,0.8
		c0.2,0.5,0,0.9-0.3,1.4c-0.8,1.1-1.4,2.3-2.6,2.9c-0.1,0-0.1,0.2-0.2,0.3c-0.4-0.4-0.9-0.8-1.3-1.3c-0.4-0.5-0.8-0.9-1.5-0.9
		c-0.7-0.1-1.1-0.6-1.5-1c-1.6-1.4-3.4-2.5-5-3.7c-0.6-0.5-1.2-1-1.8-1.5c0-0.5,0.4-0.7,0.7-0.8c0.8-0.2,1.6-0.4,2.4-0.5
		c0.9-0.1,1.6-0.3,2.2-1c0.2-0.2,0.5-0.5,0.8-0.6c1.1-0.2,2.2-0.6,3.4-0.5c0.5,0,1,0.2,1.4,0.5C242.6,268.1,243.1,268.3,243.6,268.6
		z"/>
	<path fill="#F9A662" d="M396.7,157.6c0-1.3-0.1-2.5-0.1-3.8c0-0.8-0.1-1.4-1-1.6c-0.3-0.1-0.4-0.5-0.6-0.7c0.9-0.3,1.9-0.5,2.9-0.6
		c1.8-0.2,3.5-0.6,5.2-1c1.5-0.4,2.9-0.6,4.4-0.9c0.9-0.2,1.7-0.4,2.6-0.5c0.5-0.1,0.8,0.1,0.9,0.5c0.1,0.5,0.3,1,0.3,1.5
		c0,1.3,0,2.7,0,4c0,0.1,0,0.1,0,0.2c-0.1,0.4-0.4,0.7-0.8,0.6c-1.2-0.3-2.4-0.6-3.5-1c-1.1-0.4-2.1-0.3-3.2,0.3
		c-1.9,1-3.8,1.8-5.7,2.7C397.6,157.4,397.1,157.5,396.7,157.6z"/>
	<path fill="#45473C" d="M163.4,254.6c-0.2,0.2-0.5,0.3-0.7,0.5c-0.4,0.4-0.8,0.6-1.3,0.6c-0.8,0-1.5,0.3-2,1
		c-0.1,0.2-0.5,0.3-0.7,0.3c-0.8,0-1.4,0.2-1.9,0.8c-0.4,0.4-0.9,0.5-1.4,0.5c-0.5,0-0.9,0.1-1.2,0.5c-0.4,0.5-0.9,0.6-1.5,0.7
		c-0.5,0.1-1,0.2-1.3,0.6c-0.4,0.4-1,0.5-1.5,0.6c-0.5,0.1-1,0.2-1.4,0.6c-0.7,0.6-1.5,0.4-2.4,0.3c-0.1,0-0.1-0.3-0.1-0.4
		c0.2-0.2,0.4-0.4,0.7-0.5c0.4-0.1,0.8-0.3,1.1-0.7c0.1-0.1,0.2-0.3,0.4-0.3c1-0.2,1.4-1,2.1-1.5c0.6-0.5,1.2-1.2,1.8-1.7
		c1-0.7,1.8-1.6,2.7-2.5c0.4-0.4,0.8-0.9,1.3-1.3c1.6-1.6,3.1-3.1,4.7-4.7c0.2-0.2,0.5-0.5,0.7-0.7c0.3-0.3,0.7-0.2,0.8,0.1
		C163,249.7,163.9,252,163.4,254.6z"/>
	<path fill="#5ABA48" d="M397.5,306.8c-0.9-1.3-1.8-2.7-2.8-3.9c-1.3-1.6-2.8-3-4.2-4.5c-0.2-0.2-0.5-0.4-0.7-0.7
		c-0.8-1.3-1.9-2.3-2.6-3.7c-0.3-0.6-0.6-1.2-0.7-1.9c-0.1-0.5-0.1-1,0.1-1.5c0.1-0.5,0.2-1.2,0.9-1.3c0.6-0.1,0.9,0.4,1.2,0.7
		c0.6,0.6,1.1,1.2,1.5,2c0.4,0.8,1,1.5,1.6,2.1c1.4,1.4,2.8,2.8,4.2,4.3c0.7,0.7,1.4,1.4,1.5,2.5c0,0.3,0.3,0.5,0.5,0.8
		c0.7,1,1.5,1.9,2.2,2.9C399.5,305.5,398.5,306.2,397.5,306.8z"/>
	<path fill="#43473B" d="M173,251.6c-0.3,0.4-0.7,0.3-1.1,0.3c-1.1-0.1-2,0.2-2.7,1c-0.2,0.2-0.5,0.3-0.7,0.3
		c-0.5,0.1-1,0.1-1.5,0.1c-0.7,0-1-0.4-1.2-1c-0.8-1.8-1.5-3.7-2.2-5.6c-0.2-0.5-0.2-1.1,0.1-1.6c0.2-0.3,0.5-0.5,0.6-0.8
		c0.3-0.8,0.9-1.3,1.6-1.6c1.1-0.5,2.2-1.1,3.3-1.6c0.7,0,0.9,0.6,1.1,1.1c0.9,2.7,1.9,5.3,2.8,7.9
		C173.1,250.7,173.2,251.1,173,251.6z"/>
	<path fill="#22ADE3" d="M197.8,350.9c0-0.6-0.3-1.1-0.6-1.5c-0.1-0.2-0.4-0.3-0.4-0.5c-0.3-1-0.9-1.5-2-1.1
		c-0.3,0.1-0.5-0.2-0.6-0.5c-0.4-1.3-0.4-2.6-0.3-3.9c0-0.3,0.2-0.5,0.3-0.8c0.2-0.3,0.5-0.4,0.8-0.4c0.1,0,0.1,0,0.2,0
		c1.3,0.6,2.4,0.2,3.3-0.8c0.1-0.2,0.4-0.3,0.6-0.3c0.2,0,0.4,0,0.6,0.1c0.2,0.1,0.3,0.3,0.5,0.4c0.7,0.7,0.7,0.7,0.2,1.7
		c0,0-0.1,0.1-0.1,0.1c-0.4,0.8-0.4,1,0.4,1.5c0.5,0.3,1,0.5,1.4,0.9c0.6,0.6,1.2,1.3,1.7,2.1c0.1,0.2,0.2,0.5,0.1,0.8
		c-0.1,0.4-0.3,0.8,0,1.3c0.4,0.5,0.8,1,1.5,1c0.3,0,0.7,0,0.9,0.3c-1.4,0-2.8,0.5-4.3,0.2c-0.3-0.1-0.6,0.1-1,0.2
		c-0.7,0-1.3,0.1-2,0.1C198.4,351.6,198,351.4,197.8,350.9z"/>
	<path fill="#3DB64E" d="M397.5,306.8c0.1-0.2,0.1-0.5,0.2-0.6c0.6-0.5,1.3-1,2-1.4c0.2-0.1,0.4-0.1,0.6-0.1
		c0.9,0.8,1.8,1.6,2.3,2.8c0.2,0.3,0.4,0.6,0.7,0.9c0.7,0.9,1.3,1.8,1.7,2.8c0.5,1,1.2,1.9,1.8,2.8c0.5,0.7,0.5,1.2,0.1,1.8
		c-0.3,0.4-0.6,0.6-1.1,0.6c-1.2,0-2.3-0.2-3.1-1.3c-1.2-1.6-2.6-3-3.4-4.9C398.6,309.2,398.1,308,397.5,306.8z"/>
	<path fill="#BD8355" d="M409.7,169.7c-0.1-0.2-0.2-0.5-0.3-0.7c-0.3-0.4-0.6-0.5-1.1-0.3c0.8-2,1.5-3.9,2.3-5.9
		c1.3-3.3,2.6-6.6,3.9-9.9c0.2-0.6,0.5-1.1,0.9-1.6c0.4-0.6,0.8-1.2,0.9-1.9c0-0.2,0.1-0.4,0.3-0.6c0.4-0.4,0.5-0.8,0.5-1.4
		c0.1-0.5,0.4-0.7,0.8-0.6c0.1,0,0.1,0,0.2,0c0.5,0.2,1,0.4,1.5,0.6c-0.2,0.5-0.3,1-0.5,1.5c-2.4,5.3-4.7,10.5-7.1,15.8
		C411.2,166.4,410.5,168,409.7,169.7z"/>
	<path fill="#48493D" d="M108.9,315.4c0.2,0.3,0.4,0.7,0.3,1.1c-0.2,1.2-0.4,2.4-0.7,3.6c0,0.1-0.2,0.3-0.3,0.4
		c-1.5-0.9-3.1-1.7-4.6-2.7c-4-2.4-8-4.9-12.1-7.4c-0.2-0.1-0.4-0.2-0.5-0.4c-0.1,0-0.1-0.2-0.1-0.3c0,0,0.1-0.1,0.1-0.1
		c0.4-0.1,0.8-0.2,1.1-0.1c0.3,0,0.6,0.1,0.7,0.3c0.7,0.9,1.7,1.2,2.7,1.4c0.4,0.1,0.8,0.2,1.2,0.5c0.2,0.2,0.6,0.3,0.9,0.4
		c0.3,0.1,0.7,0.1,0.9,0.3c0.6,0.5,1.3,0.7,2.2,0.7c0.2,0,0.4,0.1,0.6,0.2c0.6,0.4,1.3,0.9,1.9,1.3c0.4,0.3,0.8,0.4,1.2,0.3
		c0.6-0.1,1.2-0.2,1.8-0.3C107.4,314.5,108.2,314.8,108.9,315.4z"/>
	<path fill="#EBEA82" d="M173,251.6c-0.2-0.5-0.5-1-0.6-1.5c-0.9-2.5-1.7-5-2.6-7.5c-0.2-0.5-0.3-1.1-0.7-1.5c1-0.5,2-1.1,3-1.6
		c-0.1,0.5,0,0.9,0.3,1.3c0.8,1.4,1.5,2.8,2.3,4.2c0.9,1.8,1.8,3.6,2.8,5.5c-0.2,0-0.4,0.1-0.7,0c-1.3-0.1-2.4,0.2-3.4,1
		C173.3,251.6,173.1,251.6,173,251.6z"/>
	<path fill="#A49A7E" d="M163.7,245.2c0.1,0.6,0.2,1.2,0.4,1.7c0.7,1.7,1.4,3.5,2.1,5.2c0.2,0.5,0.4,0.9,0.8,1.2
		c-0.5,0.3-0.9,0.6-1.4,0.7c-0.7,0.2-1.5,0.3-2.2,0.5c-0.4-2.2-0.9-4.5-1.3-6.7c-0.1-0.4-0.3-0.5-0.7-0.6
		C162.1,246.6,162.9,245.9,163.7,245.2z"/>
	<path fill="#BFD84B" d="M236,391.7c0-1.1,0.3-1.9,0.7-2.7c0.6-1.3,1.8-1.4,3-0.8c1.3,0.6,1.9,2.5,1.2,3.7c-0.2,0.4-0.5,0.9-0.8,1.2
		c-0.6,0.6-1,0.7-1.7,0.2c-0.4-0.2-0.8-0.3-1.3-0.4c-0.7-0.1-0.9-0.4-1-1.1C236,391.7,236,391.6,236,391.7z"/>
	<path fill="#33B54E" d="M409.6,318.3c0,0,0.3,0.1,0.6,0.2c0.2,0.1,0.4,0.4,0.6,0.6c1.1,1.7,0.8,2.6-1,3.5c-0.3,0.1-0.6,0.3-0.9,0.4
		c-0.9,0.3-1.5,0.1-2-0.7c-0.2-0.3-0.4-0.6-0.5-0.8c-0.4-0.7-0.4-1.3,0.1-1.8C407.2,318.9,408,318.2,409.6,318.3z"/>
	<path fill="#FBB433" d="M278.1,380.2c-0.6,0.1-1-0.2-1.3-0.8c-0.2-0.3-0.3-0.7-0.4-1.1c-0.2-1.1,0.1-1.5,1.1-1.9
		c0.2-0.1,0.4-0.2,0.6-0.3c1.4-0.4,2.6,0.3,2.8,1.8c0.1,0.6-0.2,1.1-0.6,1.5C279.8,379.9,278.9,380.2,278.1,380.2z"/>
	<path fill="#FED03B" d="M150.7,88.2c-0.6,0-1.3,0-1.9,0c-0.2,0-0.5-0.2-0.7-0.2c0.5,0,1.1-0.1,1.6-0.1
		C150,87.8,150.4,87.9,150.7,88.2z"/>
	<path fill="#22ADE3" d="M195.1,350.5c0.5,0,1.1,0,1.6,0c0.2,0,0.5,0.2,0.7,0.3c-0.5,0-1.1,0-1.6,0
		C195.6,350.8,195.4,350.6,195.1,350.5z"/>
	<path fill="#22ADE3" d="M184,347.2c0.4,0,0.8-0.1,1.1,0.3C184.7,347.5,184.3,347.5,184,347.2z"/>
	<path fill="#22ADE3" d="M171.7,343.5c0.4,0,0.7-0.1,1,0.2C172.3,343.8,172,343.8,171.7,343.5z"/>
	<path fill="#22ADE3" d="M205.8,313.8c-0.3,0.4-0.7,0.3-1.1,0.3C205.1,313.9,205.4,313.8,205.8,313.8z"/>
	<path fill="#22ADE3" d="M188.4,348.5c0.4,0,0.7-0.1,1,0.3C189.1,348.7,188.7,348.6,188.4,348.5z"/>
	<path fill="#22ADE3" d="M193.4,349.9c0.4-0.1,0.8-0.1,1.1,0.2C194.1,350,193.7,349.9,193.4,349.9z"/>
	<path fill="#FED03B" d="M109.9,130.9c0.3,0.2,0.3,0.5,0.3,0.8C110.1,131.5,110,131.2,109.9,130.9z"/>
	<path fill="#22ADE3" d="M208.1,312.4c-0.2,0.3-0.5,0.4-0.8,0.3C207.6,312.6,207.9,312.5,208.1,312.4z"/>
	<path fill="#FBC930" d="M187.1,130.6c-0.3-0.2-0.3-0.5-0.3-0.7C186.9,130.1,187,130.4,187.1,130.6z"/>
	<path fill="#22ADE3" d="M210.1,311.4c-0.2,0.3-0.5,0.4-0.8,0.3C209.6,311.6,209.9,311.5,210.1,311.4z"/>
	<path fill="#FED03B" d="M110.9,133.6c0.3,0.2,0.3,0.5,0.3,0.8C111.1,134.1,111,133.9,110.9,133.6z"/>
	<path fill="#FED03B" d="M111.3,135c0.3,0.2,0.3,0.5,0.2,0.8C111.3,135.5,111.2,135.3,111.3,135z"/>
	<path fill="#FED03B" d="M110.6,133c0.1,0.2,0.2,0.4,0.3,0.6C110.8,133.4,110.7,133.2,110.6,133z"/>
	<path fill="#22ADE3" d="M191,349.2c0.3-0.1,0.6,0,0.8,0.3C191.5,349.5,191.2,349.5,191,349.2z"/>
	<path fill="#22ADE3" d="M173,343.8c0.3,0,0.5,0,0.7,0.2C173.5,344,173.2,343.9,173,343.8z"/>
	<path fill="#22ADE3" d="M174,344.2c0.2,0.1,0.5,0.2,0.7,0.2C174.4,344.5,174.2,344.4,174,344.2z"/>
	<path fill="#22ADE3" d="M176.3,344.9c0.3,0,0.5,0,0.7,0.3C176.8,345,176.6,345,176.3,344.9z"/>
	<path fill="#22ADE3" d="M186.4,347.9c0.3,0,0.5,0,0.7,0.3C186.8,348,186.6,348,186.4,347.9z"/>
	<path fill="#22ADE3" d="M187.4,348.2c0.2,0.1,0.4,0.2,0.7,0.3C187.8,348.4,187.6,348.3,187.4,348.2z"/>
	<path fill="#22ADE3" d="M189.7,348.9c0.3,0,0.5,0,0.7,0.2C190.1,349.1,189.9,349.1,189.7,348.9z"/>
	<path fill="#22ADE3" d="M169.7,342.8c0.3,0,0.5,0,0.7,0.2C170.1,343,169.9,342.9,169.7,342.8z"/>
	<path fill="#FED03B" d="M109.6,129.9c0.3,0.2,0.3,0.5,0.3,0.8C109.6,130.5,109.5,130.2,109.6,129.9z"/>
	<path fill="#22ADE3" d="M208.5,312.1c-0.1,0.1-0.2,0.2-0.3,0.3C208.2,312.3,208.4,312.2,208.5,312.1z"/>
	<path fill="#22ADE3" d="M206.8,312.8c-0.1,0.1-0.2,0.2-0.3,0.3C206.6,313,206.7,312.9,206.8,312.8z"/>
	<path fill="#22ADE3" d="M206.5,313.1c-0.1,0.1-0.2,0.2-0.3,0.3C206.3,313.3,206.4,313.2,206.5,313.1z"/>
	<path fill="#FED03B" d="M110.3,132.3c0.1,0.1,0.2,0.3,0.2,0.4C110.5,132.6,110.4,132.4,110.3,132.3z"/>
	<path fill="#22ADE3" d="M185.3,347.6c0.1,0.1,0.3,0.1,0.4,0.2C185.6,347.7,185.4,347.6,185.3,347.6z"/>
	<polygon fill="#ADD145" points="269.2,182.6 269.2,182.7 269.1,182.6 269.1,182.5 	"/>
	<path fill="#22ADE3" d="M194.7,350.2c0.1,0.1,0.3,0.2,0.4,0.3C195,350.4,194.8,350.3,194.7,350.2z"/>
	<path fill="#22ADE3" d="M204.5,314.2c-0.1,0.1-0.2,0.2-0.2,0.3C204.3,314.3,204.4,314.3,204.5,314.2z"/>
	<path fill="#22ADE3" d="M175.4,344.5c0.1,0.1,0.2,0.1,0.3,0.2C175.6,344.6,175.5,344.6,175.4,344.5z"/>
	<path fill="#22ADE3" d="M171,343.2c0.1,0.1,0.3,0.1,0.4,0.2C171.2,343.3,171.1,343.3,171,343.2z"/>
	<path fill="#5EBB49" d="M300.7,371.9c-0.1,0-0.1-0.1-0.2-0.1c0,0,0.1,0,0.1,0C300.7,371.8,300.7,371.8,300.7,371.9
		C300.7,371.9,300.7,371.9,300.7,371.9z"/>
	<path fill="#22ADE3" d="M208.8,311.8c-0.1,0.1-0.2,0.2-0.3,0.3C208.6,312,208.7,311.9,208.8,311.8z"/>
	<path fill="#22ADE3" d="M203.8,315.1c-0.1,0-0.3,0-0.4,0c0.1-0.1,0.3-0.2,0.4-0.3C203.8,314.9,203.8,315,203.8,315.1z"/>
	<path fill="#22ADE3" d="M204.2,314.5c-0.1,0.1-0.2,0.2-0.3,0.3C203.9,314.7,204.1,314.6,204.2,314.5z"/>
	<path fill="#22ADE3" d="M206.2,313.5c-0.1,0.1-0.2,0.2-0.3,0.3C205.9,313.7,206.1,313.6,206.2,313.5z"/>
	<path fill="#22ADE3" d="M210.5,311.1c-0.1,0.1-0.2,0.2-0.4,0.3C210.2,311.3,210.4,311.2,210.5,311.1z"/>
	<path fill="#22ADE3" d="M192,349.5c0.1,0.1,0.3,0.1,0.4,0.2C192.3,349.7,192.2,349.6,192,349.5z"/>
	<path fill="#62966B" d="M301.8,269c-0.7,0.6-1.4,1.3-2.1,1.9c-1,0.9-2.1,1.6-3,2.5c-1.3,1.2-2.9,2.1-3.9,3.5
		c-0.1,0.1-0.2,0.2-0.4,0.2c-2.9-2.3-5.6-4.8-8.3-7.2c-0.3-0.2-0.4-0.5-0.3-0.9c2.2-1.2,4.4-2.3,6.6-3.5c1.3-0.7,2.7-1.4,4-2.1
		c0.5-0.3,0.9-0.6,1.4-0.9c0.2,0.1,0.6,0.2,0.7,0.3c0.5,0.5,1.1,1.1,1.6,1.7c0.3,0.4,0.6,0.8,1,1.1C300,266.7,300.9,267.8,301.8,269
		z"/>
	<path fill="#F8A762" d="M344.9,216.9c1.3-1.5,1.3-1.5,1.5-3.2c0.1-0.9,0.1-1.8,0.1-2.7c0-0.6,0.3-0.8,0.9-0.4
		c1.3,0.8,2.6,1.6,3.9,2.3c0.4,0.3,0.6,0.6,0.5,1.1c-0.2,1.2-0.4,2.4-0.5,3.6c-0.1,0.7,0.1,1.1,0.7,1.5c2.1,1.1,4.1,2.2,6.2,3.3
		c0.5,0.3,1,0.3,1.6,0.1c1-0.3,2-0.5,3.1-0.8c0.3-0.1,0.5,0.1,0.6,0.4c0.1,0.2,0.1,0.4,0.1,0.7c0.2,1.4,0.3,2.8,0.5,4.1
		c0,0.3-0.1,0.6-0.1,0.9c-1.5-0.7-3.3,0.3-4.8-0.8c-0.1-0.1-0.3-0.1-0.3,0c-0.1,0.2,0.1,0.3,0.2,0.4c0.5,0.5,1.1,0.6,1.8,0.7
		c0.5,0.1,1.3-0.1,1.4,0.7c-1.9,0.8-3.7,0.4-5.4-0.4c-0.7-0.4-1.5-0.8-2.2-1.2c-0.1-0.1-0.3-0.2-0.4-0.3c-1.5-1.4-3.2-2.7-4.6-4.3
		c-1.2-1.5-2.5-2.8-3.8-4.2C345.5,217.9,344.9,217.6,344.9,216.9z"/>
	<path fill="#C88751" d="M362.2,228.8c-0.3-0.4-0.8-0.4-1.2-0.3c-1.4,0.2-2.3-0.4-2.9-1.7c-0.1-0.2-0.3-0.4-0.4-0.6
		c0-0.1,0-0.2,0.1-0.3c0.1-0.1,0.2-0.1,0.3-0.1c0.5,0.2,0.9,0.4,1.3,0.7c0.8,0.6,1.6,0.7,2.5,0.4c0.3-0.1,0.5-0.1,0.8-0.2
		c0.4,0,0.7,0.1,0.9,0.6c0,0.1,0.2,0.3,0.3,0.4c-0.1,0.4-0.3,0.5-0.6,0.6C362.9,228.6,362.5,228.7,362.2,228.8z"/>
	<path fill="#62966B" d="M257.4,217.5c2-0.4,3.9-0.7,5.9-1.1c2.4-0.5,4.8-1,7.1-1.5c0.6-0.1,0.9,0,1,0.7c0.1,0.5,0.2,1,0.2,1.5
		c0,2.6,0,5.2,0.1,7.8c0,0.2,0,0.4,0,0.7c0,0.5-0.3,0.8-0.8,0.9c-1.6,0.4-3.2,0.7-4.9,1.1c-1.5,0.3-2.9,0.7-4.4,1
		c-0.3,0.1-0.5,0.2-0.7,0.4c-0.1-0.1-0.2-0.3-0.3-0.4c-0.1-0.1-0.2-0.2-0.2-0.3l0,0c-0.2-0.2-0.2-0.5-0.4-0.7l0,0
		c-1.3-2.6-2-5.4-2.7-8.2c-0.2-0.6-0.3-1.2,0-1.8C257.2,217.5,257.3,217.5,257.4,217.5z"/>
	<path fill="#88C4EB" d="M283.7,269c1.2,1.1,2.5,2.2,3.7,3.3c1.5,1.3,2.9,2.6,4.4,3.9c0.2,0.2,0.4,0.5,0.7,0.7
		c-0.2,0.8-0.7,1.1-1.4,1.4c0,0-0.1,0-0.1,0.1c-1.4,1.1-1.1,1.3-2.4-0.2c-1.5-1.7-3-3.4-4.5-5.1c-0.7-0.8-1.4-1.6-2-2.4
		c-0.2-0.3,0-0.5,0.1-0.8c0.7,0,1-0.5,1.4-1C283.5,269,283.6,269,283.7,269z"/>
	<path fill="#84CAEE" d="M257.2,217.6c0.3,1.1,0.7,2.1,1,3.2c0.6,2,1.1,4.1,1.7,6.1c0.1,0.2,0.1,0.4,0.1,0.7c-0.7-1.1-1.4-2.1-2-3.2
		c-1.1-1.9-2.2-3.8-3.3-5.7c-0.1-0.2-0.1-0.4,0.2-0.5C255.6,218,256.4,217.8,257.2,217.6z"/>
	<path fill="#84CAEE" d="M260,227.5c0.1,0.2,0.2,0.5,0.4,0.7C260,228,260,227.8,260,227.5z"/>
	<path fill="#84CAEE" d="M260.3,228.2c0.1,0.1,0.2,0.2,0.2,0.3C260.5,228.4,260.4,228.3,260.3,228.2z"/>
	<path fill="#3574AE" d="M245.6,320.1c-0.1-0.9-0.2-1.7-0.4-2.6c-0.6-3.1-1.3-6.3-1.9-9.4c-0.2-0.8-0.3-1.6-0.4-2.4
		c-0.1-0.6,0.1-0.8,0.6-1c0.5-0.2,1-0.4,1.6-0.6c0.5-0.2,1-0.4,1.5-0.6c0.5-0.1,1-0.2,1.4-0.4c4-1.3,8-2.7,12-4
		c1.8-0.6,3.6-1.3,5.3-1.9c0.6-0.2,0.8-0.1,1.1,0.4c0.3,0.7,0.6,1.4,0.9,2.1c1.6,4,3.2,8.1,4.7,12.1c0,0.1,0.1,0.2,0.2,0.2
		c0.5,1.5,1,2.9,1.6,4.4c0.1,0.3,0.2,0.5,0.3,0.8c0.2,0.4,0.1,0.8-0.3,1c-0.1,0.1-0.3,0.2-0.4,0.2c-3.2,1.5-6.4,3.1-9.6,4.6
		c-3.3,1.6-6.7,3.3-10,4.9c-0.3,0.1-0.6,0.3-0.9,0.5c-0.4-0.1-0.8-0.1-1.1-0.3c-1.6-1-3.2-2-4.8-3c-0.3-0.2-0.5-0.4-0.6-0.8
		c-0.2-0.9-0.4-1.7-0.6-2.6C245.8,321.3,245.7,320.7,245.6,320.1z"/>
	<path fill="#32B5E8" d="M291,278.3c0.5-0.5,1-0.9,1.4-1.4c0.1,0,0.2,0,0.3,0c3.4,3,6.8,5.9,10.1,8.9c1.2,1.1,2.4,2.2,3.6,3.2
		c-0.2,0-0.4,0-0.5-0.1c-0.7-0.6-1.5-0.7-2.3-0.5c-0.7,0.2-1.3,0-1.9-0.3c-0.2-0.1-0.5-0.2-0.7-0.4c-0.7-0.7-1.5-1.3-2.3-1.8
		c-0.5-0.3-0.9-0.6-1.3-1c-1.2-1.2-2.4-2.3-3.4-3.6C293.2,280.1,292,279.3,291,278.3z"/>
	<path fill="#13BAED" d="M289,293.8c0,0.5-0.4,0.8-0.7,0.6c-0.5-0.3-1-0.4-1.6-0.3c-0.3,0.1-0.3-0.2-0.4-0.4c0-0.5,0.3-0.8,0.7-1
		C288.1,292.1,289,292.7,289,293.8z"/>
	<path fill="#27C1F1" d="M259.9,277.1c-0.2,0.2-0.4,0.6-0.7,0.6c-0.5,0-0.9-0.2-1.4-0.3c-0.1,0-0.1-0.2-0.1-0.3c0-0.4,0.2-0.8,0.5-1
		c0.1-0.1,0.3-0.1,0.5-0.1c0.4,0.1,0.7,0.3,1,0.5C259.8,276.7,259.8,276.9,259.9,277.1z"/>
	<path fill="#22ADE3" d="M229,304.8c0,0-0.1,0-0.1-0.1c-0.3-0.5-0.5-0.9-0.3-1.5c0.1-0.5,0.7-0.6,1.1-0.3c0.6,0.6,0.3,1.6-0.4,1.9
		C229.1,304.8,229,304.8,229,304.8z"/>
	<path fill="#27C1F1" d="M250.8,268.8c0.4,0,0.7,0.3,0.8,0.6c0,0.3-0.2,0.5-0.5,0.5c-0.4,0-0.7-0.3-0.6-0.6
		C250.4,269.1,250.7,268.9,250.8,268.8z"/>
	<path fill="#0EB6EB" d="M247.4,337.1c-0.1-0.1-0.3-0.1-0.3-0.2c0-0.1,0-0.4,0.1-0.4c1-0.5,1.9-1.1,3-1.3c0.1,0,0.2,0,0.3,0
		c0,0.1,0,0.3-0.1,0.4C249.7,336.5,248.7,337.1,247.4,337.1z"/>
	<path fill="#0EB6EB" d="M240.4,344.5c0,0.1,0,0.2-0.1,0.3c-0.3,0.2-0.5,0.4-0.8,0.5c-0.3,0.1-0.6-0.1-0.6-0.4
		c0.1-0.4,0.2-0.9,0.3-1.3c0-0.2,0-0.2,0.2-0.1c0.3,0.2,0.7,0.4,1,0.6C240.4,344.2,240.4,344.4,240.4,344.5z"/>
	<path fill="#FFFFFF" d="M231.4,115.3c-0.2-0.5-0.5-1-0.8-1.5c-0.3-0.4-0.4-0.8-0.4-1.3c0.1-1.1-0.2-2.2-0.6-3.3
		c-0.3-0.7-0.5-1.5-0.3-2.3c0.2-1-0.1-1.9-0.6-2.7c-0.4-0.6-0.7-1.3-0.8-2c-0.1-1-0.6-1.8-1.2-2.5c-0.3-0.4-0.7-0.8-1-1.1
		c-1.8-2.2-4.1-3.7-7-4.1c-0.5-0.1-1.1-0.3-1.6-0.4c0,0,0,0,0,0c-0.3,0-0.7-0.1-1-0.1c-1-0.2-2.1-0.2-3.1,0.2
		c-0.8,0.3-1.7,0.5-2.6,0.7c-0.4,0.1-0.8,0.2-1.1,0.5c-1.2,0.9-2.4,1.8-3.5,2.8c-1,1.1-2,2.2-2.7,3.6c-0.3,0.7-0.7,1.4-1,2.1
		c-0.8,2.1-1.7,4.1-1.9,6.4c-0.1,1.3-0.4,2.6-0.7,3.9c0,0,0,0,0,0c0.2,1.3,0.4,2.5,0.5,3.8c0.1,0.8,0.1,1.6,0.2,2.3
		c0.1,1.1,0.6,1.4,1.7,1.3c0.6-0.1,1.2-0.4,1.6-0.8c0.4-0.3,0.8-0.5,1.4-0.5c0.9,0.1,1.9,0.1,2.8,0.1c0.7,0,1.3,0.1,2,0.3
		c1.5,0.3,3,0.5,4.6,0.5c1.5,0,2.8-0.7,4.3-0.6c0.1,0,0.3-0.1,0.5-0.2c0.6-0.4,1.3-0.4,1.9-0.3c1.5,0.2,2.9-0.5,4.5-0.5
		c0.2,0,0.5-0.2,0.8-0.3c1-0.4,2-0.9,3.2-1C231,118.4,231.9,116.4,231.4,115.3z M229.5,117.9c-2.3,0.7-4.5,1.8-6.9,1.8
		c-1.7,0-3.4,0.4-5.1,0.7c-2.4,0.5-4.8,0.3-7.3,0c-2.5-0.4-5-0.9-7.5,0.4c-0.9,0.5-1.6,0.1-1.7-1c-0.2-1.8-0.3-3.5-0.9-5.2
		c-0.1-0.2-0.2-0.3-0.3-0.3c1.1-1,0.9-2.4,1.2-3.7c0.7-4,2-7.9,4.7-11c2.8-3.3,6.2-5.3,10.7-5c0.3,0,0.6,0,0.9-0.3
		c0,0.1,0.1,0.2,0.1,0.2c0.6,0.5,1.4,0.6,2.2,0.8c4.8,1.2,9.1,6.5,9.4,11.4c0.2,2.9,0.7,5.7,1.8,8.4
		C231.2,116.3,230.8,117.5,229.5,117.9z"/>
	<path fill="#FFFFFF" d="M119.5,130.3c-0.1,0.1-0.1,0.2-0.2,0.3c0,0,0,0,0,0c0-0.2,0-0.3,0-0.5c0-0.6-0.2-1.2-0.5-1.7
		c-0.3-0.5-0.6-1.1-0.9-1.6c-0.2-0.5-0.5-1-0.6-1.6c-0.2-1.5-0.8-2.8-1.5-4c-0.5-1-1-2-1.1-3.1c-0.1-0.8-0.5-1.5-0.7-2.2
		c-0.3-0.8-0.6-1.5-0.9-2.3c-0.1-0.2-0.1-0.3-0.2-0.5c-0.9-1.3-1.1-2.9-1.7-4.3c-0.2-0.5-0.4-0.9-0.8-1.3c-0.5-0.6-0.9-1.2-1.1-1.9
		c-0.2-0.8-0.6-1.5-1.2-2.2c-0.3-0.3-0.4-0.7-0.6-1c-0.2-0.5,0-1.1,0.5-1.2c1-0.2,1.7-0.8,2.5-1.3c1.4-0.8,2.9-1.1,4.4-1.5
		c0.3-0.1,0.5,0,0.8,0c0.4,0,0.8,0.1,1.2,0c1-0.1,2.1-0.3,3.1,0c0,0,0.1,0,0.2,0c1.4-0.4,2.8-0.1,4.1,0c1.3,0,2.7,0,4,0.1
		c0.5,0,1.1,0.1,1.6,0.2c0.3,0,0.6,0.1,0.8,0.1c1.2-0.3,2.3,0.1,3.5,0.1c1.2,0,2.3,0,3.5,0.2c1.5,0.3,3.1,0.3,4.6,0.5
		c0.7,0.1,1.4,0.2,2.1,0.4c1.2,0.3,2.4,0.6,3.5,0.9c1.8,0.6,3.6,1.1,5.2,2.2c0.3,0.2,0.5,0.3,0.8,0.5c-0.1,0-0.1,0.1-0.2,0.1
		c-2.4-0.9-4.8-2.1-7.3-2.7c-4.9-1.3-10-1.6-15-1.8c-2.8-0.1-5.7-0.3-8.5-0.4c-4.7-0.1-9.5-0.6-13.7,2.3c-1,0.7-1.3,1.1-0.6,2.2
		c2.9,4.9,4.8,10.2,6.7,15.6c1,2.9,2,5.8,3.3,8.5C119.3,128.4,119.9,129.3,119.5,130.3z"/>
	<path fill="#FFFFFF" d="M180.7,140.8c0,2.1,0,4.1-0.1,6.2c0,0.1,0,0.1,0,0.2c-0.5,1.5-0.3,3.1-0.8,4.6c-0.4,1.4-0.9,2.8-1.2,4.3
		c-1.3,2.8-2.5,5.7-4.4,8.2c-0.3,0.4-0.5,0.8-0.9,1c-0.7,0.4-1.1,0.9-1.6,1.5c-1,1.2-1.9,2.3-2.9,3.5c-0.3,0.3-0.5,0.6-0.8,0.8
		c-0.7,0.8-1.8,1.2-2.4,2c-0.7,0.9-1.6,1.4-2.3,2.1c-0.2,0.2-0.5,0.4-0.8,0.5c-0.8,0.3-1.5,0.7-2,1.5c-0.1,0.1-0.2,0.2-0.4,0.3
		c-1.4,0.8-2.8,1.6-4.2,2.3c-0.9,0.5-1.8,0.9-2.7,1.3c-0.5,0.3-1,0.6-1.4,0.9c-0.6,0.5-1.2,0.9-1.9,0.9c-1.2,0-2.1,0.5-3,1.2
		c-0.5,0.3-0.9,0.6-1.4,0.9c-1,0.6-2.3,0.9-3.3,1.6c-0.5,0.4-1.2,0.5-1.9,0.7c-1.4,0.4-2.2,0-2.6-1.5c-0.1-0.2-0.1-0.4-0.2-0.7
		c-0.1-0.6-0.3-1.2-0.6-1.7c-0.2-0.3-0.3-0.7-0.3-1.1c0-1.1-0.3-2.1-0.7-3.1c-0.6-1.4-1.3-2.8-2-4.2c-0.3-0.5-0.5-1.1-0.4-1.8
		c0.2-1.4-0.3-2.6-1.2-3.7c0,0,0-0.1,0-0.1c-0.3-0.9-0.6-1.8-1-2.7c-0.3-0.7-0.6-1.3-1.2-1.8c-0.2-0.2-0.4-0.4-0.6-0.6
		c-0.9-0.7-1.3-1.6-1.1-2.8c0.1-0.4,0-0.8-0.1-1.2c-0.3-1.1-0.6-2.3-0.9-3.4c-0.1-0.5-0.3-1.1-0.3-1.6c-0.1-0.4-0.1-0.9-0.4-1.3
		c-0.4-0.6-0.5-1.2-0.4-1.9c0.2-1-0.1-2-0.5-2.9c-0.3-0.7-0.5-1.6-0.8-2.3c-0.1-0.4-0.3-0.7-0.4-1.1c-0.1-0.4-0.3-0.9-0.3-1.3
		c0-1.4-0.5-2.6-1.1-3.8c-0.5-1.1-1.1-2.2-1.1-3.5c0-0.5-0.3-1-0.7-1.3c-0.1-0.1-0.3-0.2-0.3-0.4c-0.6-0.7-0.8-1.6-1-2.5
		c0-0.2,0-0.4-0.1-0.5c0-0.1,0-0.2-0.1-0.3c-0.1-0.1-0.2-0.3-0.2-0.4c0-0.1-0.1-0.2-0.1-0.3c0-0.1-0.1-0.2-0.2-0.3l0,0
		c-0.1-0.1-0.2-0.3-0.2-0.5c0,0,0,0,0,0c0-0.2,0-0.3-0.1-0.5c0.1,0,0.1,0.1,0.1,0.1c0.1,0.2,0.2,0.3,0.3,0.5
		c0.1,0.1,0.1,0.2,0.2,0.3c0.1,0.1,0.2,0.2,0.2,0.3c0.1,0.1,0.1,0.3,0.2,0.4c0.1,0.2,0.1,0.4,0.1,0.6c0,0.1,0,0.1,0,0.2
		c0.6,0.8,0.8,1.9,1.1,2.8c0.1,0,0.2,0,0.3,0.1c0.3,0.2,0.6,0.4,0.7,0.7c0.5,3,2.5,5.5,2.7,8.5c0,0.5,0.2,0.9,0.4,1.3
		c1.7,5.1,2.7,10.4,3.6,15.7c0.2,1.1,0.8,1.8,1.5,2.5c1.2,1.3,2.2,2.8,1.9,4.8c1.3,0.5,1.5,1.8,1.6,2.9c0.1,1.6,0.6,3.1,1.4,4.4
		c1.5,2.5,1.7,5.3,2.6,7.9c0.7,2.2,1.5,2.6,3.6,1.6c1.8-0.9,3.8-1.6,5.5-2.9c0.4-0.3,0.8-0.5,1.2-0.6c3.9-0.9,7-3.3,10.4-5.2
		c4.7-2.7,8.6-6.4,12.3-10.5c2.9-3.2,5.4-6.6,7-10.7c1.4-3.6,2.1-7.5,2.3-11.4c0.2-3.4,0-6.8,0.1-10.2c0,0,0-0.1,0-0.1
		c-0.7-0.2-0.7-0.9-0.8-1.5c-0.3-1.7-0.9-3.3-1.4-5c-0.6-2.2-2.2-3.8-3.8-5.4c-3.5-3.7-7.1-7.3-10.7-10.9c-2.8-2.7-5.6-5.4-8.7-7.7
		c-0.3-0.2-0.7-0.4-0.7-0.9c0.9,0.5,1.8,1.1,2.5,1.8c0.5,0.5,1.1,0.9,1.7,1.3c1.1,0.8,2,1.7,3,2.7c1.4,1.5,2.7,3.1,4.4,4.3
		c1.2,0.8,2.2,2,3.1,3.3c0.7,0.9,1.4,1.8,2.5,2.4c0.6,0.3,1,0.9,1.4,1.4c0.6,0.7,1.2,1.4,1.9,2.1c1.3,1.4,2.4,2.9,3.4,4.5
		c0.2,0.3,0.4,0.7,0.4,1.1c0,0.9,0.3,1.6,0.7,2.4c0.3,0.6,0.3,1.4,0.5,2.1c0.1,0.6,0.2,1.3,0.6,1.8c0.1,0.1,0.2,0.2,0.3,0.3
		c0,1.5,0.2,3,0,4.5C180.7,139.9,180.7,140.4,180.7,140.8z"/>
	<path fill="#F8A661" d="M371.6,217.2c0,0.2,0,0.4,0,0.6c0,0.1-0.1,0.3-0.1,0.3c-0.1,0-0.3,0-0.4-0.1c-0.5-0.5-1.1-1-1.6-1.5
		c-0.3-0.3-0.6-0.4-0.9-0.1c-1.6,1.2-1.7,0.7-3.3,0.3c-0.5-0.1-0.9-0.4-1.1-1c-0.4-1.1-0.9-2.2-1.3-3.2c-0.3-0.8-0.7-1.5-1.3-2.1
		c-1.2-1.3-2.5-2.6-3.7-3.9c-0.3-0.4-0.6-0.4-1-0.1c-0.3,0.2-0.6,0.5-0.9,0.7c-0.4,0.3-0.7,0.5-1.1,0.8c-0.3,0.2-0.6,0.2-1,0.1
		c-2-0.7-4.1-1.4-6.1-2.2c-0.4-0.1-0.6-0.4-0.6-0.9c0-0.1,0-0.2,0-0.3c0.2-1.5,0.3-3.1,0.6-4.6c0.1-0.5,0.3-0.6,0.8-0.6
		c0.4,0,0.8,0,1.2,0.1c1.4,0.1,2.9,0.2,4.3,0.3c0.4,0,0.9,0,1.3,0.1c0.7,0.1,1.4,0.3,2,0.8c2.5,2.2,5.1,4.3,7.7,6.4
		c1.8,1.5,3.7,3.1,5.5,4.6c0.5,0.4,0.7,0.8,0.7,1.4C371.3,214.5,371.4,215.8,371.6,217.2z"/>
	<path fill="#C5BCA8" d="M353,216.4c0.1-0.3,0.2-0.6,0.3-0.9c1.2-1.8,2.5-3.6,3.7-5.3c0.3-0.4,0.5-0.5,1-0.2c1,0.5,1.9,1,2.8,1.4
		c0.4,0.2,0.7,0.5,0.8,1c0.6,2.1,1.2,4.3,1.8,6.4c0.1,0.5,0,0.7-0.4,1c-1.3,0.7-2.6,1.3-3.9,2c-0.4,0.2-0.7,0.2-1.1,0
		c-1.4-0.8-2.8-1.7-4.2-2.5c-0.3-0.2-0.5-0.5-0.5-0.8C353.3,217.7,353.2,217.1,353,216.4z"/>
	<path fill="#C4BBA7" d="M364.9,223.7c0-0.8,0-1.6,0-2.3c0-0.3,0.1-0.6,0.3-0.8c0.9-0.8,1.7-1.7,3-2c2-0.4,1.7-0.6,2.3,1.2
		c0.2,0.7,0.5,1.4,0.7,2c0.2,0.4,0.1,0.7-0.2,1.1c-0.6,0.8-1.3,1.6-1.9,2.5c-0.5,0.8-1.2,1.2-2.2,1.2c-0.4,0-0.8,0.1-1.2,0.1
		c-0.4,0-0.6-0.2-0.6-0.6C365.1,225.4,365.1,224.6,364.9,223.7C365,223.7,365,223.7,364.9,223.7z"/>
	<path fill="#FED03B" d="M121.7,136.3c-1.2,0-2.3,0-3.5,0c-1,0-1.3-0.3-1.3-1.3c0-0.2,0.1-0.5,0.4-0.4c1.4,0.2,2.3-0.6,3-1.6
		c0.1,0.1,0.1,0.2,0.2,0.2c0.6,0.8,0.8,1.9,1.1,2.8C121.6,136.1,121.6,136.2,121.7,136.3z"/>
	<path fill="#FED03B" d="M119.3,130.6c0.1,0.3,0.2,0.7,0.3,1C119.2,131.4,119.2,131,119.3,130.6z"/>
	<path fill="#FED03B" d="M119.6,131.6c0.1,0.1,0.1,0.2,0.2,0.3C119.7,131.8,119.7,131.7,119.6,131.6z"/>
	<path fill="#FED03B" d="M119.9,132.2c0.1,0.1,0.2,0.3,0.2,0.4C120.1,132.5,120,132.3,119.9,132.2z"/>
</g>
</svg>
