<?xml version="1.0" encoding="utf-8"?>
<!-- Generator: Adobe Illustrator 18.1.1, SVG Export Plug-In . SVG Version: 6.00 Build 0)  -->
<svg version="1.1" id="Layer_1" xmlns="http://www.w3.org/2000/svg" xmlns:xlink="http://www.w3.org/1999/xlink" x="0px" y="0px"
	 viewBox="0 0 500 500" enable-background="new 0 0 500 500" xml:space="preserve">
<g>
	<path fill="#03A8BE" d="M207.4,220.9c0,0,12.3,10.9,20.8,0c2.3-2.9-8,19.5-8,19.5L207.4,220.9z"/>
	<path fill="#1E1E1C" d="M221.5,190l-22.6-3.7c0,0-18.5-3.4-15.3-31.5c0,0,11.5-54.9,74.6-13.4c0,0,52.2,36.5,61,91.5
		c0,0-24.9-40.4-101.5-29.9c0,0-22.5,2.2-22.2-6C195.5,197,214.6,199.3,221.5,190z"/>
	<path fill="#FFFFFF" stroke="#1E1E1C" stroke-width="3.175" stroke-miterlimit="10" d="M236.8,171c-2.7,10.8-13.6,17.4-24.5,14.7
		s-17.4-13.6-14.7-24.5c2.7-10.8,13.6-17.4,24.5-14.7C232.8,149.2,239.5,160.1,236.8,171z"/>
	<path fill="#1E1E1C" d="M226.8,168.5c-1.3,5.3-6.7,8.5-12,7.2c-5.3-1.3-8.5-6.7-7.2-12c1.3-5.3,6.7-8.5,12-7.2
		C224.9,157.8,228.1,163.2,226.8,168.5z"/>
	<path fill="#1E1E1C" d="M293.5,184.9c0,0-23.2-5.1-15.8-33.5c0,0,11.7-37,33.9-44.5c0,0,39.4,6.1,45.9,40.2c0,0-10.1,10.8-27.8-8.9
		c0,0,7.1,11.7,5.8,15.7c0,0-3.9,10.3-26-10c0,0,6.3,8.7,4.8,11.5c0,0-4.6,7.3-16.1-3.9c0,0,2.7,5,1,6.7c-0.8,0.8-3.6-1-6.6-1.4
		C287.2,156.3,288.2,170.2,293.5,184.9z"/>
	<g>
		<g>
			<path fill="#1E1E1C" d="M146.2,228.4c7.5-1.8,15-3.4,22.6-4.6c0.5,1.7,0.9,3.4,1.4,5.1c-5.6,1-11.3,2.2-16.8,3.6
				c1.8,5.4,3.5,10.8,5.3,16.3c4.8-1.5,9.7-2.9,14.5-4c0.5,1.7,0.9,3.4,1.4,5c-4.8,1.3-9.5,2.7-14.2,4.3c2.4,7.4,4.8,14.8,7.2,22.2
				c-1.4,0.6-2.9,1.3-4.3,1.9C157.5,261.5,151.8,244.9,146.2,228.4z"/>
			<path fill="#1E1E1C" d="M176.4,222.6c1.8-0.3,3.6-0.5,5.5-0.7c3.1,13.4,6.1,26.7,9.2,40.1c5.1-1.5,10.2-2.8,15.4-3.9
				c0.3,1.5,0.5,3.1,0.8,4.6c-6.6,1.6-13.1,3.5-19.5,5.6C184,253,180.2,237.8,176.4,222.6z"/>
			<path fill="#1E1E1C" d="M220.4,259.8c-0.7-5.6-1.4-11.3-2.1-16.9c-5-7.3-10.4-14.8-16.2-22.6c2.1-0.1,4.1-0.2,6.2-0.2
				c2.5,3.7,5,7.4,7.3,11c1.9,2.9,3.4,5.3,5,7.9c0,0,0.1,0,0.1,0c0.8-2.6,1.9-5.2,3.1-8.2c1.6-3.6,3.2-7.1,5-10.4
				c2.1,0.1,4.1,0.3,6.2,0.4c-4.2,6.7-8.1,13.9-11.7,21.7c0.6,5.5,1.2,11,1.8,16.6C223.5,259.3,221.9,259.6,220.4,259.8z"/>
			<path fill="#1E1E1C" d="M239.7,221.6c2.6-0.1,6-0.1,10.3,0.5c5.3,0.7,9.2,2.3,11.5,4.4c2.2,1.9,3.4,4.3,3.3,7.1
				c-0.1,2.8-1.3,4.9-3.3,6.4c-2.7,2.1-7,3.1-11.9,3c-1.5,0-2.9-0.1-4-0.3c0.1,4.7,0.3,9.3,0.4,13.9c-1.6,0.1-3.1,0.3-4.7,0.4
				C240.8,245.1,240.3,233.3,239.7,221.6z M245.6,238.9c1.1,0.3,2.5,0.4,4.2,0.5c6.1,0.2,9.8-1.9,10-6.3c0.1-4.2-3.7-6.8-9.5-7.6
				c-2.3-0.3-4.1-0.3-5-0.2C245.3,229.9,245.4,234.4,245.6,238.9z"/>
			<path fill="#1E1E1C" d="M291.3,245c-5-1-10-1.8-15-2.5c-0.3,3.4-0.6,6.9-0.9,10.4c5.4,0.3,10.8,0.9,16.2,1.6
				c-0.2,0.9-0.3,1.8-0.5,2.7c-6.9-0.8-13.8-1.2-20.7-1.3c0.7-9.9,1.4-19.9,2.1-29.8c7.4,1.6,14.7,3.4,21.9,5.6
				c-0.2,0.9-0.3,1.8-0.5,2.8c-5.5-1.5-11-2.9-16.5-4.1c-0.3,3-0.5,6-0.8,9.1c5.1,0.8,10.1,1.7,15.2,2.8
				C291.6,243.2,291.5,244.1,291.3,245z"/>
			<path fill="#1E1E1C" d="M301.9,234.4c2.6,0.5,6.4,1.6,9.9,3c5.4,2.1,8.7,4,10.8,6.1c1.7,1.7,2.3,3.4,1.8,4.8
				c-0.8,2.4-4.5,3-8.7,2.5c0,0,0,0,0,0.1c2.8,1.4,4.1,3.4,4.3,5.5c0.4,3,0.6,5,1.1,5.9c-1.6-0.4-3.3-0.8-4.9-1.1
				c-0.4-0.7-0.7-2.5-1-5.3c-0.3-3-2-4.7-6.4-6c-1.6-0.4-3.1-0.8-4.6-1.2c-0.7,3.3-1.5,6.6-2.2,9.9c-1.6-0.3-3.1-0.5-4.7-0.7
				C298.8,250.1,300.3,242.2,301.9,234.4z M304.7,246.5c1.7,0.5,3.4,0.9,5,1.4c5.2,1.5,9,1,9.7-1.2c0.8-2.5-2.5-5.1-7.8-7.1
				c-2.4-0.9-4.2-1.3-5.1-1.5C305.9,240.9,305.3,243.7,304.7,246.5z"/>
		</g>
	</g>
</g>
</svg>
