<?xml version="1.0" encoding="utf-8"?>
<!-- Generator: Adobe Illustrator 18.1.1, SVG Export Plug-In . SVG Version: 6.00 Build 0)  -->
<svg version="1.1" id="Layer_1" xmlns="http://www.w3.org/2000/svg" xmlns:xlink="http://www.w3.org/1999/xlink" x="0px" y="0px"
	 viewBox="0 0 500 500" enable-background="new 0 0 500 500" xml:space="preserve">
<g>
	<path fill="#56CAF4" d="M12.8,269L12.8,269l-0.8,7.2c-0.2,2.3,0.9,4.5,2.7,5.6l53.1-43.9L12.8,269z"/>
	<path fill="#1D1C1A" d="M21.1,282.8l37.6,0c3.3,0.3,6.2-2,6.6-5.3l3.9-37c0.1-1.1-0.1-2.2-0.5-3.1L21.1,282.8z"/>
	<path fill="#1D1C1A" d="M68.5,237.2c-0.9-1.8-2.6-3.1-4.7-3.3l-41.5,0c-3.3-0.3-6.2,2-6.6,5.3l-2.4,24.5L68.5,237.2z"/>
	<path fill="#1D1C1A" d="M115.4,282.8c-0.8,0-13.4-20.8-13.4-20.8c-0.2,0-0.4,0-0.6,0c-0.4,0-0.7,0-1.1,0c-2.2,0-5.7-0.1-7.3-0.2
		c0,0-0.5,21-1.2,21h-3.6c-0.7,0-1.2-47.3-1.2-47.3c0-0.9,9.5-2,13.4-2c10.5,0,18.7,2.8,18.7,13.6v0.5c0,7.5-4.4,11.9-10.5,13.5
		l12.3,20.5C120.9,281.7,115.4,282.8,115.4,282.8z M112.9,247.1c0-6.7-4.3-8.9-12.7-8.9c-2.1,0-5.7,0-7.3,0.2v18.3
		c1.4,0,5.8,0.1,7.3,0.1c8.2,0,12.7-2.1,12.7-9.3V247.1z"/>
	<path fill="#1D1C1A" d="M156,282.8c-3.7,0.1-9.2,0-13.1,0c-9.3,0-14.2-3.5-14.2-12.4v-25.2c0-8.9,5-11.7,14.3-11.7
		c3.9,0,10.2,0.1,13,0.4c0.4,0.1,0.3,4.3-0.1,4.3h-12.9c-7.1,0-8.2,1.9-8.2,6.9v11.6h20.5c0.7,0,0.7,5.2,0,5.2h-20.5v8.9
		c0,5.1,1.1,6.9,8.2,6.9h12.9C156.3,277.8,156.4,282.8,156,282.8z"/>
	<path fill="#1D1C1A" d="M196.8,282.8h-3.7c-0.7,0-1.2-19.9-1.2-19.9h-20.4c0,0-0.5,19.9-1.2,19.9h-3.7c-0.7,0-1.2-35.5-1.2-35.5
		c0-10.2,4.7-13.8,14.4-13.8h3.9c9.5,0,14.4,3.6,14.4,13.8C198,247.3,197.4,282.8,196.8,282.8z M191.9,247.3c0-6.9-2.2-8.5-8.3-8.5
		h-3.9c-6.1,0-8.3,1.5-8.3,8.5v10.2h20.4V247.3z"/>
	<path fill="#1D1C1A" d="M235.6,282.1c-1.7,0.3-6.7,0.6-13,0.6c-7.1,0-14.2-1.4-14.2-12.4V234c0-0.7,6.1-0.7,6.1,0v36.3
		c0,5.1,1.1,6.9,8.2,6.9h12.9C236,277.3,236,282.1,235.6,282.1z"/>
	<path fill="#1D1C1A" d="M248.3,282.8h-3.7c-0.7,0-1.2-48.1-1.2-48.1c0-0.7,0.5-1.3,1.2-1.3h3.7c0.7,0,1.2,0.5,1.2,1.3
		C249.5,234.7,249,282.8,248.3,282.8z"/>
	<path fill="#1D1C1A" d="M278.1,238.4c0,0-0.5,44.4-1.2,44.4h-3.7c-0.7,0-1.2-44.4-1.2-44.4s-14.4-0.3-14.4-1.1V234
		c0-0.7,34.7-0.7,34.7,0v3.3C292.4,238,278.1,238.4,278.1,238.4z"/>
	<path fill="#1D1C1A" d="M317.7,262.6c0,0-0.5,20.2-1.2,20.2h-3.8c-0.7,0-1.1-20.2-1.1-20.2s-13.6-29.2-12.9-29.2h4.2
		c0.5,0,11.8,23.3,11.8,23.3l23.8-39.6C339.1,217.2,317.7,262.6,317.7,262.6z"/>
	<path fill="#1D1C1A" d="M371.2,258.2h-19.3l-5.1,24.6h-4.4l10.2-49.3h4.4l-4.3,21h19.3l4.4-21h4.4l-10.2,49.3H366L371.2,258.2z"/>
	<path fill="#1D1C1A" d="M403.5,233.5c10.1,0,14.6,7,10.9,24.7c-3.8,17.7-11,24.7-21.1,24.7c-10.2,0-14.1-7-10.4-24.7
		C386.6,240.5,393.3,233.5,403.5,233.5z M394.1,279.1c7,0,12.6-4.9,15.9-20.9c3.3-16-0.3-20.9-7.2-20.9c-7,0-12.1,4.9-15.4,20.9
		C384,274.2,387,279.1,394.1,279.1z"/>
	<path fill="#1D1C1A" d="M445.8,246.1c1.3-6.1-0.8-8.9-6.8-8.9c-6,0-10.2,3.1-11.1,8c-3,14.7,22.5,6.6,18.9,24
		c-2,9.6-8.8,13.6-17.9,13.6c-9.3,0-13.3-4.1-11.3-13.8l0.3-1.5h4.4l-0.3,1.9c-1.3,6.4,1,9.7,7.6,9.7c6.3,0,11.3-2.3,12.7-9.2
		c3-14.7-22.5-6.3-18.9-24.2c1.7-7.7,7.7-12.2,16.3-12.2c9.2,0,12.5,3.8,10.6,12.7H445.8z"/>
	<path fill="#1D1C1A" d="M468.5,237.2h-12.7l0.8-3.7h29.8l-0.8,3.7h-12.7l-9.5,45.6H459L468.5,237.2z"/>
</g>
</svg>
