<?xml version="1.0" encoding="utf-8"?>
<!-- Generator: Adobe Illustrator 18.1.1, SVG Export Plug-In . SVG Version: 6.00 Build 0)  -->
<svg version="1.1" xmlns="http://www.w3.org/2000/svg" xmlns:xlink="http://www.w3.org/1999/xlink" x="0px" y="0px"
	 viewBox="0 0 595.3 841.9" enable-background="new 0 0 595.3 841.9" xml:space="preserve">
<g id="zwart">
	<path d="M954.9,616.3"/>
	<g>
		<path d="M1228.4,518.4c-176.3,89.6-369.6,90.9-546.8,3.6c-23.1-12.9-15.8-30.8,7.4-18.7c172.5,84.8,360.2,83.6,531.8-3.5
			C1243.9,487.4,1251.4,505.2,1228.4,518.4z"/>
	</g>
	<g>
		<g>
			<path d="M882.5,204.3c-1,0-1.9,0.2-2.8,0.5c-4.8,1.7-7.8,7.9-6.3,13c1.4,4.7,5.9,8.2,10.6,8.2c0.7,0,1.3-0.1,2-0.2
				c2.4-0.6,4.4-2.1,5.7-4.4c1.6-2.7,1.9-6.1,1-9.4C891.3,207.6,886.9,204.3,882.5,204.3z"/>
			<path d="M876.7,376c5.8,1.4,12.5-3.1,13.9-9.3c9.5-37.5,13.1-76.8,9.4-115.4c-0.9-6.8-4.6-12.4-10-11.8c-5.1,0.5-9.4,6.9-8,14.2
				c3.4,35.6-5.5,72-12.4,107.3C867.6,368.1,870.8,374.5,876.7,376z"/>
		</g>
		<path d="M1047.8,251.4l-1,0l0-1c0-0.1,0-12.1,0.7-18.7c0.9-8.2-3-12.6-7.2-13.3c-0.4-0.1-0.9-0.1-1.3-0.1c-4.5,0.2-8,4.8-8.7,11.6
			c-0.7,7-1.5,19.2-1.5,19.3l-0.1,0.9l-1,0c0,0-0.9,0-2.2,0c-4.7,0.2-15.8,1.5-16.2,9.7c-0.4,8.5,16.1,10.4,16.3,10.5l0.8,0.1l0,0.8
			c0,0.5,1.3,47.9,5.5,70c1.3,7,6.6,11.4,12.9,10.8c2.4-0.2,4.5-1.5,6.1-3.5c2.1-2.9,2.9-7,2.1-11.3c-4-20.9-6.1-65.7-6.2-66.2
			l-0.1-1l1,0c0,0,0.7,0,1.9,0c15.2-0.6,16.7-6.5,16.7-9C1066.1,251.1,1048,251.4,1047.8,251.4z"/>
		<g>
			<path d="M1000.7,312.5c0.1,0,0.1,0,0.1,0C1000.8,312.5,1000.7,312.5,1000.7,312.5z"/>
			<path d="M1003.4,312.5c0.1,0,0.2,0,0.3,0C1003.6,312.5,1003.5,312.5,1003.4,312.5z"/>
			<path d="M1005.4,312.9c0.2,0.1,0.4,0.1,0.6,0.2C1005.8,313,1005.6,313,1005.4,312.9z"/>
			<path d="M1004.3,312.6c0.2,0,0.4,0.1,0.6,0.2C1004.7,312.7,1004.5,312.6,1004.3,312.6z"/>
			<path d="M999.7,312.7c0.1,0,0.2-0.1,0.4-0.1C1000,312.7,999.8,312.7,999.7,312.7z"/>
			<path d="M998.6,313.1c-0.1,0-0.2,0.1-0.3,0.1C998.4,313.2,998.5,313.1,998.6,313.1z"/>
			<path d="M997.8,313.5c-0.8,0.4-1.8,1.1-3.1,2.1c-2.6,2-5.9,5.5-10.7,9.4c-2.4,1.9-5.2,3.9-8.6,5.4c-3.4,1.5-7.3,2.6-11.6,2.7
				c-2.1,0-4.4-0.3-6.6-0.9c-2.2-0.7-4.3-1.7-6.3-3.2c-3.9-2.8-7.1-7-9.4-11.7c-2.2-4.8-4.1-10-4.6-15.8c-0.2-2.9,0.1-5.8,1.2-8.7
				c1.1-2.8,3-5.3,5.5-7.1c1.2-0.9,2.6-1.7,4.1-2.3c0.4-0.2,0.7-0.3,1.1-0.4l0.6-0.2l0.6-0.2c0.9-0.2,1.7-0.2,2.5-0.1
				c1.6,0.2,3.2,0.8,4.6,1.7c1.4,0.9,2.5,2.2,3.2,3.8c0.7,1.5,0.9,3.3,0.6,5c-0.3,1.7-1,3.3-1.9,4.7c-0.4,0.7-0.9,1.4-1.5,2
				l-1.6,1.9c-1,1.2-1.9,2.5-2.5,3.9c-0.6,1.4-1,2.9-0.8,4.4c0.1,1.5,0.8,2.9,1.8,4c0.5,0.6,1.1,1,1.8,1.4c0.6,0.3,1.4,0.6,2.1,0.7
				c1.5,0.3,3.1,0.2,4.6-0.3c0.7-0.2,1.4-0.6,2-1.1c0.7-0.5,1.3-1,2-1.5c1.3-1.1,2.5-2.2,3.7-3.4c2.4-2.4,4.5-5,6.1-7.9
				c1.7-2.9,2.8-6.1,3.2-9.4c0.4-3.3-0.1-6.7-1.2-9.9c-2.3-6.4-6.7-12.1-12.7-15.2c-3-1.6-6.3-2.4-9.7-2.5c-3.4-0.1-6.8,0.5-10,1.4
				l-1.2,0.4l-0.3,0.1l-0.1,0l-0.2,0.1l-0.6,0.2c-0.8,0.3-1.6,0.6-2.4,1c-1.5,0.7-3.1,1.5-4.5,2.4c-2.9,1.7-5.5,4-7.8,6.5
				c-2.3,2.5-4.1,5.4-5.5,8.4c-1.4,3-2.3,6.3-3,9.5c-1.2,6.5-0.9,13.3,0.4,19.6c1.3,6.4,3.5,12.5,6.8,17.8c3.2,5.3,7.6,9.9,12.7,13
				c5.1,3.2,10.7,5,16.3,5.6c5.6,0.6,11.1,0.2,16.2-0.8c5.1-1.1,9.9-2.8,14.3-4.7c4.4-1.9,8.4-4.1,12-6.4c3.6-2.3,6.7-4.8,9.2-7.6
				c2.4-2.7,4.2-5.9,4.1-9c0-1.5-0.6-2.9-1.2-4.1c-0.6-1.2-1.4-2.3-2.2-3.1c-0.9-0.8-1.8-1.5-2.7-1.9c-0.9-0.4-1.8-0.7-2.6-0.8
				c-1.6-0.3-2.9-0.1-3.7,0.1c-0.2,0-0.4,0.1-0.5,0.1c0,0-0.1,0-0.1,0c-0.1,0-0.2,0.1-0.3,0.1c-0.2,0.1-0.3,0.1-0.3,0.1
				s-0.1,0-0.3,0.1C998.4,313.2,998.1,313.3,997.8,313.5z"/>
		</g>
		<g>
			<path d="M1140.9,324.5c-0.1-0.1-0.2-0.2-0.3-0.3C1140.7,324.3,1140.8,324.4,1140.9,324.5z"/>
			<path d="M1142.2,326.3c0.1,0.2,0.2,0.4,0.2,0.5C1142.4,326.7,1142.3,326.5,1142.2,326.3z"/>
			<path d="M1141.6,325.4c0.1,0.1,0.2,0.3,0.3,0.4C1141.8,325.7,1141.7,325.5,1141.6,325.4z"/>
			<path d="M1139.8,323.5c0.1,0.1,0.3,0.2,0.4,0.3C1140.1,323.7,1140,323.6,1139.8,323.5z"/>
			<path d="M1136.1,321.8c0.1,0,0.2,0,0.3,0.1C1136.4,321.9,1136.3,321.8,1136.1,321.8z"/>
			<path d="M1134.4,321.7c0,0-0.1,0-0.1,0c0,0-0.1,0-0.1,0c-0.2,0-0.5,0-0.7,0.1c-0.7,0.1-1.4,0.2-2.4,0.4
				c-2.8,0.6-6.8,2.1-12.1,3.3c-2.6,0.6-5.6,1.1-8.9,1c-3.2-0.1-6.8-0.7-10.2-2.3c-1.7-0.8-3.4-1.9-4.8-3.2c-1.5-1.4-2.7-3-3.7-4.9
				c-2-3.7-2.9-8.2-2.9-12.9c0.1-4.6,0.6-9.5,2.4-14.2c1-2.3,2.3-4.6,4.2-6.4c1.9-1.8,4.4-3.1,7.1-3.5c1.3-0.2,2.7-0.3,4.1-0.2
				c0.3,0,0.7,0,1,0.1l0.5,0.1l0.5,0.1c0.8,0.2,1.4,0.5,2,0.9c1.2,0.8,2.3,1.9,3,3.1c0.7,1.3,1.1,2.7,1.1,4.3c0,1.5-0.6,3-1.5,4.2
				c-0.9,1.2-2,2.2-3.3,3c-0.6,0.4-1.3,0.7-1.9,1l-2,0.9c-1.2,0.6-2.5,1.3-3.5,2.1c-1,0.9-1.9,1.9-2.3,3.1c-0.5,1.2-0.5,2.6-0.1,3.8
				c0.7,2.5,3.3,4.3,5.9,4.6c0.7,0.1,1.3,0.1,2-0.1c0.7-0.1,1.4-0.3,2.1-0.5c1.4-0.3,2.8-0.8,4.2-1.2c2.8-1,5.5-2.2,7.9-3.9
				c2.4-1.7,4.6-3.7,6.1-6.2c1.6-2.4,2.5-5.3,2.8-8.2c0.6-5.9-0.7-12.1-4.2-16.8c-1.7-2.4-4-4.3-6.6-5.7c-2.6-1.4-5.5-2.2-8.4-2.7
				l-1.1-0.2l-0.3,0l-0.1,0l-0.1,0l-0.6-0.1c-0.8-0.1-1.5-0.1-2.3-0.1c-1.5-0.1-3,0-4.4,0.1c-3,0.3-5.8,1-8.6,2.1
				c-2.7,1.1-5.2,2.7-7.5,4.5c-2.3,1.9-4.2,4-6,6.4c-3.4,4.7-5.8,10.1-7.2,15.6c-1.4,5.5-2,11.2-1.5,16.6c0.5,5.4,2.2,10.7,5,15.1
				c2.8,4.4,6.5,8,10.7,10.7c4.2,2.7,8.7,4.5,13.1,5.6c4.5,1.1,8.9,1.6,13.1,1.8c4.2,0.2,8.2,0,11.9-0.4c3.7-0.5,7.2-1.2,10.2-2.5
				c3-1.2,5.6-3,6.7-5.5c0.6-1.2,0.6-2.5,0.6-3.7c0-1.2-0.2-2.3-0.6-3.3c-0.4-1-0.8-1.8-1.4-2.5c-0.6-0.7-1.2-1.2-1.7-1.7
				c-1.2-0.8-2.3-1.2-3-1.4c-0.2-0.1-0.3-0.1-0.5-0.1c0,0,0,0,0,0c-0.1,0-0.2,0-0.3-0.1c-0.2,0-0.3,0-0.3,0h0
				C1135.1,321.7,1134.8,321.7,1134.4,321.7z"/>
			<rect x="1135.4" y="321.7" width="0" height="0"/>
			<path d="M1139.3,323.1c0,0,0.1,0,0.1,0.1C1139.4,323.2,1139.3,323.1,1139.3,323.1z"/>
			<path d="M1137.1,322.1C1137.1,322.1,1137.1,322.1,1137.1,322.1C1137.1,322.1,1137.1,322.1,1137.1,322.1z"/>
		</g>
		<g>
			<path d="M1234.7,318.4c0.1,0,0.2,0.1,0.3,0.1C1234.9,318.4,1234.8,318.4,1234.7,318.4z"/>
			<path d="M1232,317.8c0.1,0,0.1,0,0.2,0C1232.1,317.8,1232.1,317.8,1232,317.8z"/>
			<path d="M1231.4,317.7c-0.1,0-0.3,0-0.4,0C1231.1,317.7,1231.3,317.7,1231.4,317.7z"/>
			<path d="M1228.9,318c0,0-0.1,0-0.1,0c-0.3,0.1-0.6,0.2-0.8,0.3c-0.7,0.2-1.5,0.6-2.5,1c-3,1.3-7.1,3.9-12.7,6.5
				c-2.8,1.3-6,2.5-9.7,3.2c-3.6,0.6-7.7,0.8-11.9-0.2c-2.1-0.5-4.2-1.3-6.1-2.5c-1.9-1.2-3.8-2.7-5.3-4.6
				c-3.1-3.7-5.1-8.5-6.2-13.7c-1-5.2-1.5-10.7-0.5-16.4c0.5-2.8,1.5-5.6,3.3-8.1c1.7-2.5,4.2-4.4,7.1-5.6c1.4-0.6,2.9-1,4.5-1.2
				c0.4-0.1,0.8-0.1,1.2-0.2l0.6-0.1l0.6,0c0.9,0,1.7,0.2,2.4,0.5c1.5,0.6,2.9,1.5,4,2.8c1.1,1.2,1.9,2.8,2.2,4.5
				c0.3,1.7,0,3.5-0.7,5c-0.7,1.6-1.8,2.9-3,4.1c-0.6,0.6-1.3,1.1-1.9,1.6l-2,1.4c-1.3,0.9-2.5,2-3.4,3.2c-1,1.2-1.7,2.6-1.9,4.1
				c-0.2,1.5,0,3,0.7,4.4c0.3,0.7,0.8,1.3,1.4,1.8c0.5,0.5,1.2,0.9,1.9,1.2c1.4,0.7,3,1,4.5,0.9c0.8-0.1,1.5-0.2,2.2-0.5
				c0.8-0.3,1.5-0.6,2.3-1c1.5-0.7,3-1.5,4.4-2.4c2.9-1.7,5.6-3.8,7.9-6.2c2.3-2.4,4.2-5.2,5.4-8.3c1.2-3.1,1.6-6.5,1.3-9.8
				c-0.7-6.7-3.5-13.4-8.6-17.9c-2.5-2.2-5.5-3.9-8.8-4.8c-3.2-0.9-6.7-1.2-10.1-1.1l-1.3,0.1l-0.3,0l-0.1,0l-0.2,0l-0.7,0.1
				c-0.9,0.1-1.7,0.2-2.6,0.4c-1.7,0.3-3.3,0.7-4.9,1.2c-3.2,1-6.3,2.5-9.1,4.3c-2.8,1.9-5.3,4.2-7.4,6.8c-2.1,2.6-3.8,5.5-5.2,8.5
				c-2.7,6.1-4.1,12.6-4.4,19.1c-0.3,6.5,0.3,13,2.2,18.9c1.8,6,4.9,11.4,9.1,15.7c4.1,4.3,9.2,7.5,14.4,9.5c5.3,2,10.7,3,15.9,3.2
				c5.2,0.2,10.3-0.3,15-1c4.7-0.8,9.1-1.9,13.2-3.2c4-1.4,7.7-3,10.8-5.1c3-2,5.5-4.7,6.2-7.7c0.4-1.5,0.1-3-0.1-4.3
				c-0.3-1.3-0.8-2.5-1.4-3.5c-0.6-1-1.4-1.8-2.1-2.5c-0.8-0.6-1.6-1.1-2.3-1.4c-1.5-0.7-2.8-0.8-3.6-0.8c-0.2,0-0.4,0-0.6,0
				c0,0-0.1,0-0.1,0c-0.1,0-0.2,0-0.3,0c-0.2,0-0.3,0-0.3,0c-0.4,0-0.7,0.1-1.1,0.2C1229,318,1229,318,1228.9,318z"/>
		</g>
		<g>
			<path d="M764.2,264.4c-0.1,0-0.2,0-0.3,0C764,264.4,764.1,264.4,764.2,264.4z"/>
			<path d="M761.3,264.1c-4.6-0.4-9.5,0.4-13.8,2c-5.4,1.9-10.1,5-14.1,9.1c-3.9,4-6.8,8.9-8.5,14.2c-1.8,5.6-2.1,11.5-1.5,17.3
				c1,10,5.2,21.6,15.4,25.2c2.5,0.9,5.4,1,7.9,0c2.3-0.9,4.2-2.7,5.2-5c1-2.3,0.9-5-0.1-7.3c-0.7-1.6-1.9-2.9-3.1-4.2
				c-2.8-2.9-4.9-6.3-5.8-10.3c-1.3-5.7,0.2-11.7,3.5-16.4c1.6-2.2,3.6-4.1,6-5.5c2.2-1.3,5-2.3,7.7-2.2c3.5,0.1,7,1.1,9.7,3.4
				c2.1,1.8,3.7,4,4.8,6.5c1.1,2.7,1.5,5.6,1.4,8.5c-0.2,5.7-2.7,11.1-6.6,15.1c-2.3,2.4-5.5,4-7.3,7c-1.3,2.2-1.8,4.8-1.2,7.3
				c0.6,2.4,2.2,4.5,4.3,5.8c3.9,2.3,9,1.5,12.8-0.7c1.9-1.1,3.7-2.3,5.2-3.9c2-2,3.8-4.2,5.2-6.6c3-5,4.9-10.5,5.9-16.2
				c0.8-4.8,0.8-9.7-0.2-14.4c-2.3-10.9-9.7-20.5-19.8-25.3C770.1,265.5,765.7,264.4,761.3,264.1C760.6,264,761.9,264.1,761.3,264.1
				z"/>
			<path d="M762.3,264.2C762.3,264.2,762.3,264.2,762.3,264.2C762.2,264.2,762.2,264.2,762.3,264.2c-0.1,0-0.1,0-0.2,0
				C762.2,264.2,762.3,264.2,762.3,264.2z"/>
			<path d="M765.9,264.7c-0.1,0-0.1,0-0.2,0C765.8,264.7,765.8,264.7,765.9,264.7z"/>
			<path d="M760.6,264c-0.1,0-0.2,0-0.3,0C760.4,264,760.5,264,760.6,264z"/>
			<path d="M758.8,264c-0.1,0-0.1,0-0.2,0C758.6,264,758.7,264,758.8,264z"/>
		</g>
		<g>
			<g>
				<path d="M715,256.3c-5.1-7.9-15.3-15.9-29.1-13.8c-9,1.4-21.5,9.9-21.6,25.3c-0.1,13.8,12.9,31.4,23.2,45.7
					c4.3,6,8.1,13.6,1.6,17.3c-3.2,1.8-8.7-1.5-11.5-5.7c-2.9-4.3-9.2-6.2-14.3-3.2c-5.9,3.5-4.9,10.1-3.8,13.2
					c3.2,9.7,18.5,19.9,34.6,16.2c17.5-4,20.4-22,14-34.7c-8.8-17.4-21.3-34.5-24.8-43.8c-1.1-3-2.8-10.6,3.6-13.6
					c6.1-2.8,11.4,1.2,13.8,6.1c1.9,3.7,7.3,6.9,11.8,5.4C717.6,268.9,719.3,263,715,256.3z"/>
			</g>
		</g>
		<g>
			<g>
				<path d="M857.6,262.2c-5.1-7.9-15.3-15.9-29.2-13.7c-9,1.4-21.4,9.9-21.5,25.3c0,13.8,13.1,31.3,23.3,45.6
					c4.3,6,8.2,13.6,1.7,17.3c-3.2,1.8-8.7-1.5-11.5-5.6c-2.9-4.2-9.2-6.1-14.3-3.1c-5.9,3.5-4.8,10.1-3.8,13.3
					c3.3,9.7,18.6,19.8,34.7,16.1c17.4-4.1,20.3-22,13.8-34.8c-8.8-17.3-21.4-34.5-24.9-43.7c-1.2-3-2.9-10.6,3.6-13.6
					c6.1-2.8,11.4,1.1,13.8,6c1.9,3.7,7.3,6.9,11.8,5.3C860.2,274.8,861.9,269,857.6,262.2z"/>
			</g>
		</g>
	</g>
	<g>
		<g>
			<path d="M1069.8,374.7c-0.5-0.1-1-0.1-1.5-0.1c-4.9,0.2-9.5,4.5-10,9.5c-0.3,3.1,0.7,6.2,2.7,8.6c1.8,2.1,4.1,3.4,6.6,3.5
				c0.3,0,0.7,0,1,0c5.3-0.2,9.6-4.5,10.2-10C1079.4,380.8,1075.2,375.5,1069.8,374.7z"/>
			<path d="M1074.4,500.9c6.1-0.5,9.9-6.6,8.7-13.6c-3.7-21.3-6.4-43-6.3-64.5c0-7.1-4.2-11.9-8.7-11.8c-4.4,0.2-8.7,4.8-8.9,11.8
				c-0.5,23.2-0.5,45.2,2.9,68C1063.3,497.2,1068.4,501.4,1074.4,500.9z"/>
		</g>
		<g>
			<path d="M857.2,417.6c-0.1,0-0.2,0-0.3,0C857,417.6,857.1,417.6,857.2,417.6z"/>
			<path d="M854.2,417.5c-4.7,0-9.4,1.3-13.6,3.2c-5.2,2.4-9.6,5.9-13.2,10.3c-3.5,4.3-6,9.5-7.2,14.9c-1.3,5.7-1.1,11.7,0,17.4
				c1.9,9.8,7.1,21.1,17.7,23.7c2.6,0.7,5.4,0.5,7.8-0.7c2.2-1.1,3.9-3.1,4.7-5.5c0.8-2.4,0.4-5-0.8-7.2c-0.9-1.6-2.1-2.7-3.5-3.9
				c-3-2.6-5.5-5.9-6.7-9.7c-1.8-5.5-0.9-11.7,2-16.6c1.4-2.4,3.2-4.4,5.5-6c2.1-1.5,4.8-2.7,7.4-2.9c3.5-0.2,7.1,0.4,10,2.5
				c2.3,1.6,4.1,3.6,5.4,6.1c1.3,2.6,2,5.4,2.2,8.3c0.3,5.6-1.7,11.3-5.2,15.6c-2.1,2.6-5.1,4.5-6.6,7.6c-1.1,2.3-1.3,5-0.5,7.4
				c0.8,2.4,2.6,4.3,4.8,5.4c4.1,2,9.1,0.7,12.7-1.9c1.8-1.3,3.4-2.7,4.9-4.3c1.8-2.1,3.4-4.5,4.6-7c2.5-5.2,3.9-10.9,4.4-16.7
				c0.4-4.8-0.1-9.7-1.5-14.3c-3.3-10.7-11.5-19.5-22-23.4C863.2,418.2,858.7,417.4,854.2,417.5
				C853.6,417.6,854.9,417.5,854.2,417.5z"/>
			<path d="M855.2,417.5C855.2,417.5,855.2,417.5,855.2,417.5C855.2,417.5,855.2,417.5,855.2,417.5c-0.1,0-0.1,0-0.2,0
				C855.2,417.5,855.2,417.5,855.2,417.5z"/>
			<path d="M858.9,417.7c-0.1,0-0.1,0-0.2,0C858.8,417.7,858.8,417.7,858.9,417.7z"/>
			<path d="M853.6,417.6c-0.1,0-0.2,0-0.3,0C853.4,417.6,853.5,417.6,853.6,417.6z"/>
			<path d="M851.7,417.7c-0.1,0-0.1,0-0.2,0C851.6,417.7,851.7,417.7,851.7,417.7z"/>
		</g>
		<g>
			<g>
				<path d="M799.8,411.1c-6.4-6.9-17.9-12.9-31.1-8.4c-8.6,3-19.4,13.6-16.7,28.7c2.4,13.5,18.4,28.5,31,40.8
					c5.3,5.1,10.4,11.9,4.7,16.7c-2.8,2.4-8.8,0.1-12.3-3.5c-3.6-3.7-10.1-4.4-14.6-0.5c-5.2,4.5-3,10.8-1.4,13.7
					c4.9,9,21.7,16.2,36.9,9.7c16.4-7.1,16.1-25.3,7.5-36.7c-11.7-15.5-27.2-30.2-32.2-38.6c-1.7-2.8-4.7-10,1.1-14
					c5.5-3.8,11.4-0.9,14.7,3.5c2.5,3.4,8.4,5.5,12.6,3.2C804.6,423,805.3,416.9,799.8,411.1z"/>
			</g>
		</g>
		<g>
			<g>
				<path d="M960.2,419.6c-4.7-8.1-14.6-16.6-28.5-15.1c-9,1-21.9,8.9-22.7,24.3c-0.7,13.7,11.5,31.9,21.1,46.7
					c4,6.2,7.5,14,0.9,17.3c-3.3,1.7-8.6-1.9-11.2-6.2c-2.7-4.4-8.9-6.6-14.1-3.8c-6,3.2-5.3,9.9-4.4,13.1
					c2.8,9.8,17.6,20.7,33.8,17.7c17.6-3.2,21.4-21,15.5-34.1c-8-17.7-19.7-35.5-22.8-44.9c-1-3.1-2.4-10.8,4.3-13.4
					c6.2-2.5,11.3,1.7,13.5,6.7c1.7,3.8,6.9,7.2,11.5,5.9C962.2,432.3,964.2,426.5,960.2,419.6z"/>
			</g>
		</g>
		<g>
			<g>
				<path d="M1030.2,415.2c-6.4-7-18-13.2-31.6-8.8c-8.8,2.9-20,13.4-17.6,28.7c2.1,13.6,18.1,28.9,30.7,41.4
					c5.3,5.2,10.4,12.1,4.4,16.8c-2.9,2.3-9,0-12.5-3.7c-3.6-3.7-10.2-4.6-14.9-0.7c-5.4,4.4-3.3,10.8-1.7,13.8
					c4.8,9.1,21.8,16.6,37.4,10.2c16.9-6.9,17-25.2,8.5-36.8c-11.6-15.7-27-30.6-32-39.2c-1.6-2.8-4.6-10.1,1.5-14.1
					c5.7-3.8,11.7-0.8,14.9,3.7c2.5,3.4,8.4,5.6,12.7,3.3C1034.9,427.2,1035.7,421.1,1030.2,415.2z"/>
			</g>
		</g>
		<g>
			<g>
				<path d="M1155.4,413.6c-5.5-7.6-16.2-15-29.9-12.1c-8.9,1.9-20.9,11.1-20,26.5c0.7,13.7,14.8,30.5,25.8,44.2
					c4.6,5.7,8.9,13.1,2.7,17.1c-3.1,2-8.7-1-11.8-5c-3.1-4.1-9.5-5.6-14.5-2.3c-5.7,3.8-4.3,10.4-3,13.4
					c3.8,9.5,19.6,18.8,35.5,14.1c17.2-5,19.1-23.1,11.9-35.5c-9.8-16.8-23.3-33.2-27.3-42.3c-1.3-3-3.5-10.5,2.8-13.8
					c5.9-3.1,11.4,0.5,14.2,5.2c2.1,3.6,7.7,6.5,12.1,4.7C1158.7,426.1,1160.1,420.1,1155.4,413.6z"/>
			</g>
		</g>
	</g>
</g>
<g id="Laag_1">
	<g>
		<path d="M-361.8,577"/>
		<path fill="#3CABCE" d="M-144.6,499.3c-140,71.2-293.6,72.2-434.4,2.8c-18.4-10.3-12.5-24.5,5.9-14.9
			c137.1,67.4,286.1,66.4,422.4-2.8C-132.3,474.7-126.3,488.8-144.6,499.3z"/>
		<g>
			<path fill="#3CABCE" d="M-419.4,249.8c-0.8,0-1.5,0.1-2.2,0.4c-3.8,1.4-6.2,6.3-5,10.3c1.1,3.7,4.7,6.5,8.4,6.5
				c0.5,0,1.1-0.1,1.6-0.2c1.9-0.4,3.5-1.7,4.5-3.5c1.3-2.2,1.5-4.9,0.8-7.4C-412.4,252.4-415.9,249.8-419.4,249.8z"/>
			<path fill="#3CABCE" d="M-424,386.2c4.6,1.1,9.9-2.5,11-7.4c7.6-29.8,10.4-61,7.5-91.7c-0.7-5.4-3.7-9.8-7.9-9.4
				c-4,0.4-7.4,5.5-6.4,11.3c2.7,28.2-4.4,57.2-9.8,85.3C-431.2,379.9-428.7,385-424,386.2z"/>
		</g>
		<path fill="#3CABCE" d="M-288.1,287.2l-0.8,0l0-0.8c0-0.1,0-9.6,0.5-14.9c0.7-6.5-2.4-10-5.7-10.6c-0.3,0-0.7-0.1-1-0.1
			c-3.6,0.1-6.3,3.8-6.9,9.2c-0.6,5.6-1.2,15.3-1.2,15.4l0,0.8l-0.8,0c0,0-0.7,0-1.8,0c-3.8,0.2-12.6,1.2-12.9,7.7
			c-0.3,6.8,12.8,8.3,12.9,8.3l0.7,0.1l0,0.7c0,0.4,1,38.1,4.3,55.6c1.1,5.6,5.2,9.1,10.2,8.6c1.9-0.2,3.6-1.2,4.8-2.8
			c1.7-2.3,2.3-5.5,1.7-8.9c-3.1-16.6-4.9-52.2-4.9-52.6l0-0.8l0.8,0c0,0,0.6,0,1.5,0c12.1-0.5,13.3-5.2,13.3-7.2
			C-273.5,287-287.9,287.2-288.1,287.2z"/>
		<g>
			<path fill="#3CABCE" d="M-325.5,335.7c0,0,0.1,0,0.1,0C-325.4,335.7-325.5,335.7-325.5,335.7z"/>
			<path fill="#3CABCE" d="M-323.3,335.7c0.1,0,0.2,0,0.2,0C-323.1,335.7-323.2,335.7-323.3,335.7z"/>
			<path fill="#3CABCE" d="M-321.7,336c0.1,0,0.3,0.1,0.4,0.2C-321.4,336.2-321.6,336.1-321.7,336z"/>
			<path fill="#3CABCE" d="M-322.7,335.8c0.2,0,0.3,0.1,0.5,0.1C-322.3,335.9-322.5,335.8-322.7,335.8z"/>
			<path fill="#3CABCE" d="M-326.3,335.9c0.1,0,0.2-0.1,0.3-0.1C-326.1,335.8-326.2,335.9-326.3,335.9z"/>
			<path fill="#3CABCE" d="M-327.2,336.2c-0.1,0-0.2,0.1-0.2,0.1C-327.3,336.3-327.2,336.2-327.2,336.2z"/>
			<path fill="#3CABCE" d="M-327.8,336.5c-0.6,0.3-1.4,0.9-2.5,1.7c-2.1,1.6-4.7,4.4-8.5,7.5c-1.9,1.5-4.1,3.1-6.8,4.3
				c-2.7,1.2-5.8,2.1-9.2,2.2c-1.7,0-3.5-0.2-5.2-0.7c-1.7-0.5-3.4-1.4-5-2.5c-3.1-2.3-5.6-5.6-7.5-9.3c-1.8-3.8-3.3-8-3.6-12.5
				c-0.1-2.3,0.1-4.6,0.9-6.9c0.8-2.2,2.4-4.2,4.4-5.7c1-0.7,2.1-1.3,3.2-1.8c0.3-0.1,0.6-0.2,0.9-0.3l0.5-0.2l0.4-0.1
				c0.7-0.2,1.3-0.2,2-0.1c1.3,0.1,2.5,0.6,3.6,1.4c1.1,0.7,2,1.8,2.5,3c0.6,1.2,0.7,2.7,0.5,4c-0.2,1.3-0.8,2.6-1.5,3.7
				c-0.4,0.6-0.8,1.1-1.2,1.6l-1.3,1.5c-0.8,1-1.5,2-2,3.1c-0.5,1.1-0.8,2.3-0.7,3.5c0.1,1.2,0.6,2.3,1.4,3.2
				c0.4,0.5,0.9,0.8,1.4,1.1c0.5,0.3,1.1,0.5,1.7,0.6c1.2,0.2,2.5,0.2,3.6-0.2c0.6-0.2,1.1-0.5,1.6-0.8c0.5-0.4,1.1-0.8,1.6-1.2
				c1-0.8,2-1.7,3-2.7c1.9-1.9,3.6-4,4.9-6.3c1.3-2.3,2.2-4.9,2.5-7.5c0.3-2.6-0.1-5.3-1-7.8c-1.8-5.1-5.3-9.6-10.1-12.1
				c-2.4-1.2-5-1.9-7.7-2c-2.7-0.1-5.4,0.4-8,1.1l-1,0.3l-0.2,0.1l-0.1,0l-0.1,0l-0.5,0.2c-0.7,0.2-1.3,0.5-1.9,0.8
				c-1.2,0.5-2.4,1.2-3.6,1.9c-2.3,1.4-4.4,3.1-6.2,5.1c-1.8,2-3.2,4.3-4.3,6.7c-1.1,2.4-1.9,5-2.3,7.6c-0.9,5.2-0.7,10.5,0.4,15.6
				c1.1,5.1,2.8,9.9,5.4,14.1c2.6,4.2,6,7.8,10.1,10.3c4,2.5,8.5,4,12.9,4.5c4.4,0.5,8.8,0.2,12.9-0.7c4.1-0.9,7.9-2.2,11.3-3.7
				c3.5-1.5,6.7-3.2,9.5-5.1c2.8-1.8,5.3-3.8,7.3-6c1.9-2.2,3.4-4.7,3.3-7.1c0-1.2-0.5-2.3-1-3.3c-0.5-1-1.1-1.8-1.8-2.5
				c-0.7-0.7-1.4-1.2-2.1-1.5c-0.7-0.3-1.4-0.6-2.1-0.7c-1.3-0.2-2.3-0.1-3,0.1c-0.2,0-0.3,0.1-0.4,0.1c0,0-0.1,0-0.1,0
				c-0.1,0-0.2,0.1-0.2,0.1c-0.2,0-0.2,0.1-0.2,0.1s-0.1,0-0.2,0.1C-327.3,336.2-327.5,336.3-327.8,336.5z"/>
		</g>
		<g>
			<path fill="#3CABCE" d="M-214.1,345.2c-0.1-0.1-0.2-0.2-0.2-0.2C-214.3,345.1-214.2,345.2-214.1,345.2z"/>
			<path fill="#3CABCE" d="M-213.1,346.7c0.1,0.1,0.1,0.3,0.2,0.4C-212.9,347-213,346.9-213.1,346.7z"/>
			<path fill="#3CABCE" d="M-213.5,346c0.1,0.1,0.1,0.2,0.2,0.3C-213.4,346.2-213.5,346.1-213.5,346z"/>
			<path fill="#3CABCE" d="M-215,344.5c0.1,0.1,0.2,0.2,0.3,0.3C-214.7,344.6-214.9,344.5-215,344.5z"/>
			<path fill="#3CABCE" d="M-217.9,343.1c0.1,0,0.2,0,0.3,0.1C-217.7,343.2-217.8,343.1-217.9,343.1z"/>
			<path fill="#3CABCE" d="M-219.2,343c0,0-0.1,0-0.1,0c0,0-0.1,0-0.1,0c-0.2,0-0.4,0-0.6,0c-0.5,0.1-1.1,0.2-1.9,0.3
				c-2.2,0.5-5.4,1.7-9.6,2.6c-2.1,0.5-4.4,0.8-7,0.8c-2.6-0.1-5.4-0.6-8.1-1.8c-1.4-0.6-2.7-1.5-3.8-2.6c-1.2-1.1-2.2-2.4-3-3.9
				c-1.6-3-2.3-6.5-2.3-10.2c0.1-3.7,0.5-7.6,1.9-11.3c0.8-1.8,1.8-3.7,3.4-5.1c1.5-1.4,3.5-2.4,5.6-2.8c1.1-0.2,2.2-0.2,3.2-0.2
				c0.3,0,0.5,0,0.8,0.1l0.4,0l0.4,0.1c0.6,0.1,1.1,0.4,1.6,0.7c1,0.6,1.8,1.5,2.4,2.5c0.6,1,0.9,2.2,0.9,3.4c0,1.2-0.5,2.4-1.2,3.4
				c-0.7,1-1.6,1.8-2.6,2.4c-0.5,0.3-1,0.6-1.5,0.8l-1.6,0.7c-1,0.5-2,1-2.8,1.7c-0.8,0.7-1.5,1.5-1.9,2.5c-0.4,1-0.4,2-0.1,3
				c0.6,2,2.6,3.4,4.7,3.7c0.5,0.1,1,0.1,1.6,0c0.6-0.1,1.1-0.2,1.7-0.4c1.1-0.3,2.3-0.6,3.4-1c2.2-0.8,4.3-1.8,6.3-3.1
				c1.9-1.3,3.6-3,4.9-4.9c1.2-1.9,2-4.2,2.2-6.5c0.5-4.7-0.5-9.6-3.3-13.4c-1.4-1.9-3.2-3.4-5.3-4.5c-2.1-1.1-4.4-1.8-6.7-2.1
				l-0.9-0.1l-0.2,0l-0.1,0l-0.1,0l-0.5,0c-0.6-0.1-1.2-0.1-1.8-0.1c-1.2-0.1-2.4,0-3.5,0.1c-2.3,0.2-4.6,0.8-6.8,1.7
				c-2.2,0.9-4.2,2.1-6,3.6c-1.8,1.5-3.4,3.2-4.7,5.1c-2.7,3.7-4.6,8-5.7,12.4c-1.1,4.4-1.6,8.9-1.2,13.2c0.4,4.3,1.7,8.5,4,12
				c2.2,3.5,5.2,6.4,8.5,8.5c3.3,2.1,6.9,3.5,10.4,4.4c3.5,0.9,7,1.3,10.4,1.4c3.3,0.1,6.5,0,9.5-0.4c2.9-0.4,5.7-1,8.1-2
				c2.4-1,4.4-2.4,5.3-4.4c0.5-1,0.5-2,0.5-2.9c0-0.9-0.2-1.8-0.5-2.6c-0.3-0.8-0.7-1.4-1.1-2c-0.4-0.5-0.9-1-1.4-1.3
				c-0.9-0.7-1.8-0.9-2.4-1.1c-0.1,0-0.3-0.1-0.4-0.1c0,0,0,0,0,0c-0.1,0-0.2,0-0.3,0c-0.1,0-0.2,0-0.2,0h0
				C-218.7,343-219,343-219.2,343z"/>
			<rect x="-218.4" y="343" fill="#3CABCE" width="0" height="0"/>
			<path fill="#3CABCE" d="M-215.4,344.2C-215.3,344.2-215.3,344.2-215.4,344.2C-215.3,344.2-215.3,344.2-215.4,344.2z"/>
			<path fill="#3CABCE" d="M-217.1,343.3C-217.1,343.3-217.1,343.3-217.1,343.3C-217.1,343.3-217.1,343.3-217.1,343.3z"/>
		</g>
		<g>
			<path fill="#3CABCE" d="M-139.6,340.4c0.1,0,0.2,0.1,0.2,0.1C-139.4,340.4-139.5,340.4-139.6,340.4z"/>
			<path fill="#3CABCE" d="M-141.7,339.9c0,0,0.1,0,0.1,0C-141.6,339.9-141.7,339.9-141.7,339.9z"/>
			<path fill="#3CABCE" d="M-142.2,339.9c-0.1,0-0.2,0-0.3,0C-142.4,339.9-142.3,339.9-142.2,339.9z"/>
			<path fill="#3CABCE" d="M-144.2,340.1c0,0-0.1,0-0.1,0c-0.2,0.1-0.4,0.1-0.7,0.2c-0.6,0.2-1.2,0.4-2,0.8
				c-2.4,1.1-5.7,3.1-10.1,5.1c-2.2,1-4.8,2-7.7,2.5c-2.9,0.5-6.1,0.6-9.5-0.2c-1.7-0.4-3.3-1.1-4.9-2c-1.5-0.9-3-2.2-4.2-3.7
				c-2.5-3-4.1-6.8-4.9-10.9c-0.8-4.1-1.2-8.5-0.4-13c0.4-2.2,1.2-4.5,2.6-6.4c1.4-2,3.4-3.5,5.6-4.4c1.1-0.5,2.3-0.8,3.6-1
				c0.3-0.1,0.6-0.1,0.9-0.1l0.5-0.1l0.5,0c0.7,0,1.3,0.2,1.9,0.4c1.2,0.5,2.3,1.2,3.2,2.2c0.9,1,1.5,2.2,1.7,3.5
				c0.2,1.3,0,2.7-0.5,4c-0.6,1.2-1.4,2.3-2.4,3.2c-0.5,0.5-1,0.9-1.5,1.3l-1.6,1.1c-1,0.7-2,1.6-2.7,2.5c-0.8,1-1.3,2.1-1.5,3.3
				c-0.2,1.2,0,2.4,0.6,3.5c0.3,0.5,0.6,1,1.1,1.4c0.4,0.4,1,0.7,1.5,1c1.1,0.5,2.4,0.8,3.6,0.7c0.6,0,1.2-0.2,1.8-0.4
				c0.6-0.3,1.2-0.5,1.8-0.8c1.2-0.6,2.4-1.2,3.5-1.9c2.3-1.4,4.4-3,6.3-4.9c1.8-1.9,3.4-4.2,4.3-6.6c0.9-2.5,1.2-5.2,1-7.8
				c-0.5-5.4-2.8-10.7-6.8-14.2c-2-1.8-4.4-3.1-7-3.8c-2.6-0.7-5.3-1-8-0.9l-1,0.1l-0.3,0l-0.1,0l-0.1,0l-0.5,0.1
				c-0.7,0.1-1.4,0.2-2,0.3c-1.3,0.2-2.6,0.5-3.9,0.9c-2.6,0.8-5,2-7.2,3.5c-2.2,1.5-4.2,3.3-5.9,5.4c-1.7,2.1-3,4.4-4.1,6.7
				c-2.2,4.8-3.3,10-3.5,15.2c-0.2,5.2,0.3,10.3,1.7,15c1.5,4.7,3.9,9.1,7.2,12.5c3.3,3.4,7.3,5.9,11.4,7.5
				c4.2,1.6,8.5,2.4,12.7,2.5c4.2,0.2,8.2-0.2,11.9-0.8c3.8-0.6,7.3-1.5,10.5-2.6c3.2-1.1,6.1-2.4,8.6-4c2.4-1.6,4.4-3.7,4.9-6.1
				c0.3-1.2,0.1-2.4-0.1-3.4c-0.2-1.1-0.6-2-1.1-2.8c-0.5-0.8-1.1-1.5-1.7-2c-0.6-0.5-1.2-0.9-1.8-1.2c-1.2-0.5-2.2-0.6-2.9-0.7
				c-0.2,0-0.3,0-0.4,0c0,0,0,0-0.1,0c-0.1,0-0.2,0-0.3,0c-0.2,0-0.3,0-0.3,0c-0.3,0-0.6,0.1-0.9,0.2
				C-144.1,340.1-144.1,340.1-144.2,340.1z"/>
		</g>
		<g>
			<path fill="#3CABCE" d="M-513.4,297.5c-0.1,0-0.1,0-0.2,0C-513.5,297.5-513.4,297.5-513.4,297.5z"/>
			<path fill="#3CABCE" d="M-515.7,297.3c-3.7-0.3-7.5,0.3-11,1.6c-4.3,1.5-8.1,4-11.2,7.2c-3.1,3.2-5.4,7.1-6.8,11.3
				c-1.4,4.4-1.7,9.1-1.2,13.8c0.8,7.9,4.1,17.2,12.3,20c2,0.7,4.3,0.8,6.2,0c1.8-0.7,3.3-2.2,4.1-4c0.8-1.8,0.7-4-0.1-5.8
				c-0.6-1.3-1.5-2.3-2.5-3.3c-2.2-2.3-3.9-5-4.6-8.2c-1-4.5,0.1-9.3,2.8-13c1.3-1.8,2.9-3.3,4.8-4.4c1.8-1,4-1.8,6.1-1.7
				c2.8,0.1,5.6,0.9,7.7,2.7c1.7,1.4,3,3.1,3.8,5.2c0.9,2.1,1.2,4.4,1.1,6.7c-0.2,4.5-2.2,8.8-5.3,12c-1.9,1.9-4.4,3.2-5.8,5.5
				c-1,1.7-1.4,3.8-0.9,5.8c0.5,1.9,1.7,3.6,3.4,4.6c3.1,1.9,7.1,1.2,10.1-0.6c1.5-0.9,2.9-1.9,4.2-3.1c1.6-1.6,3-3.3,4.1-5.2
				c2.4-3.9,3.9-8.3,4.7-12.9c0.7-3.8,0.6-7.7-0.2-11.4c-1.8-8.7-7.7-16.3-15.7-20.1C-508.6,298.4-512.1,297.5-515.7,297.3
				C-516.2,297.2-515.2,297.3-515.7,297.3z"/>
			<path fill="#3CABCE" d="M-514.9,297.3C-514.9,297.3-514.9,297.3-514.9,297.3C-514.9,297.3-514.9,297.3-514.9,297.3
				c-0.1,0-0.1,0-0.2,0C-515,297.3-514.9,297.3-514.9,297.3z"/>
			<path fill="#3CABCE" d="M-512,297.7c-0.1,0-0.1,0-0.2,0C-512.1,297.7-512.1,297.7-512,297.7z"/>
			<path fill="#3CABCE" d="M-516.2,297.2c-0.1,0-0.1,0-0.2,0C-516.4,297.2-516.3,297.2-516.2,297.2z"/>
			<path fill="#3CABCE" d="M-517.7,297.2c0,0-0.1,0-0.1,0C-517.8,297.2-517.7,297.2-517.7,297.2z"/>
		</g>
		<g>
			<g>
				<path fill="#3CABCE" d="M-552.5,291.1c-4-6.3-12.1-12.7-23.1-11c-7.1,1.1-17.1,7.8-17.1,20.1c-0.1,10.9,10.3,24.9,18.4,36.3
					c3.4,4.8,6.4,10.8,1.3,13.7c-2.5,1.4-6.9-1.2-9.1-4.5c-2.3-3.4-7.3-4.9-11.4-2.5c-4.7,2.7-3.9,8-3,10.5
					c2.6,7.7,14.7,15.8,27.5,12.9c13.9-3.2,16.2-17.4,11.1-27.6c-7-13.8-16.9-27.4-19.7-34.8c-0.9-2.4-2.3-8.5,2.9-10.8
					c4.8-2.2,9,0.9,11,4.8c1.5,3,5.8,5.5,9.4,4.3C-550.4,301.1-549,296.4-552.5,291.1z"/>
			</g>
		</g>
		<g>
			<g>
				<path fill="#3CABCE" d="M-439.2,295.8c-4.1-6.3-12.2-12.6-23.2-10.9c-7.1,1.1-17,7.9-17.1,20.1c0,10.9,10.4,24.9,18.5,36.2
					c3.4,4.8,6.5,10.8,1.3,13.7c-2.5,1.4-6.9-1.2-9.2-4.5c-2.3-3.4-7.3-4.9-11.4-2.5c-4.7,2.8-3.8,8.1-3,10.5
					c2.6,7.7,14.7,15.7,27.5,12.8c13.9-3.2,16.1-17.5,11-27.6c-7-13.8-17-27.4-19.8-34.7c-0.9-2.4-2.3-8.5,2.9-10.8
					c4.8-2.2,9,0.9,11,4.8c1.5,3,5.8,5.5,9.4,4.2C-437.1,305.8-435.7,301.1-439.2,295.8z"/>
			</g>
		</g>
		<g>
			<path fill="#3CABCE" d="M-270.6,385.2c-0.4-0.1-0.8-0.1-1.2-0.1c-3.9,0.1-7.5,3.6-7.9,7.5c-0.2,2.4,0.5,4.9,2.1,6.8
				c1.4,1.7,3.3,2.7,5.2,2.8c0.3,0,0.5,0,0.8,0c4.2-0.1,7.7-3.6,8.1-8C-263,390-266.3,385.7-270.6,385.2z"/>
			<path fill="#3CABCE" d="M-266.9,485.4c4.8-0.4,7.9-5.2,6.9-10.8c-2.9-16.9-5.1-34.1-5-51.3c0-5.7-3.3-9.5-6.9-9.4
				c-3.5,0.1-6.9,3.8-7.1,9.4c-0.4,18.4-0.4,35.9,2.3,54C-275.8,482.5-271.7,485.8-266.9,485.4z"/>
		</g>
		<g>
			<path fill="#3CABCE" d="M-439.5,419.2c-0.1,0-0.1,0-0.2,0C-439.6,419.2-439.6,419.2-439.5,419.2z"/>
			<path fill="#3CABCE" d="M-441.8,419.2c-3.7,0-7.5,1-10.8,2.5c-4.1,1.9-7.7,4.7-10.5,8.2c-2.8,3.4-4.7,7.5-5.7,11.8
				c-1,4.5-0.8,9.3,0,13.8c1.5,7.8,5.6,16.7,14,18.9c2,0.5,4.3,0.4,6.2-0.6c1.8-0.9,3.1-2.5,3.7-4.3c0.6-1.9,0.4-4-0.6-5.7
				c-0.7-1.2-1.7-2.2-2.8-3.1c-2.4-2.1-4.4-4.7-5.3-7.7c-1.4-4.4-0.7-9.3,1.6-13.2c1.1-1.9,2.6-3.5,4.3-4.8c1.7-1.2,3.8-2.2,5.9-2.3
				c2.8-0.2,5.6,0.3,7.9,2c1.8,1.3,3.2,2.9,4.3,4.8c1.1,2,1.6,4.3,1.7,6.6c0.2,4.5-1.4,8.9-4.1,12.4c-1.7,2.1-4.1,3.6-5.3,6
				c-0.9,1.8-1.1,3.9-0.4,5.9c0.6,1.9,2,3.4,3.8,4.3c3.3,1.6,7.2,0.5,10.1-1.5c1.4-1,2.7-2.1,3.9-3.4c1.5-1.7,2.7-3.6,3.7-5.6
				c2-4.1,3.1-8.6,3.5-13.2c0.3-3.8-0.1-7.7-1.2-11.4c-2.6-8.5-9.2-15.5-17.5-18.6C-434.7,419.7-438.3,419.1-441.8,419.2
				C-442.3,419.2-441.3,419.2-441.8,419.2z"/>
			<path fill="#3CABCE" d="M-441,419.1C-441,419.1-441,419.1-441,419.1C-441,419.1-441,419.1-441,419.1c-0.1,0-0.1,0-0.2,0
				C-441.1,419.2-441,419.1-441,419.1z"/>
			<path fill="#3CABCE" d="M-438.1,419.3c-0.1,0-0.1,0-0.2,0C-438.2,419.3-438.2,419.3-438.1,419.3z"/>
			<path fill="#3CABCE" d="M-442.4,419.2c-0.1,0-0.1,0-0.2,0C-442.5,419.2-442.4,419.2-442.4,419.2z"/>
			<path fill="#3CABCE" d="M-443.8,419.3c0,0-0.1,0-0.1,0C-443.9,419.3-443.9,419.3-443.8,419.3z"/>
		</g>
		<g>
			<g>
				<path fill="#3CABCE" d="M-485.1,414c-5.1-5.5-14.2-10.3-24.7-6.6c-6.8,2.4-15.4,10.8-13.2,22.8c1.9,10.8,14.6,22.7,24.6,32.4
					c4.2,4.1,8.3,9.5,3.7,13.3c-2.2,1.9-7,0-9.8-2.8c-2.9-2.9-8-3.5-11.6-0.4c-4.1,3.5-2.4,8.6-1.1,10.9c3.9,7.1,17.3,12.9,29.3,7.7
					c13.1-5.6,12.8-20.1,6-29.1c-9.3-12.3-21.6-24-25.6-30.7c-1.3-2.2-3.7-7.9,0.9-11.2c4.4-3,9.1-0.7,11.7,2.8
					c2,2.7,6.7,4.4,10,2.5C-481.2,423.5-480.7,418.7-485.1,414z"/>
			</g>
		</g>
		<g>
			<g>
				<path fill="#3CABCE" d="M-357.6,420.8c-3.7-6.5-11.6-13.2-22.6-12c-7.2,0.8-17.4,7.1-18,19.3c-0.5,10.9,9.1,25.4,16.8,37.1
					c3.2,4.9,6,11.1,0.7,13.8c-2.6,1.3-6.8-1.5-8.9-4.9c-2.1-3.5-7.1-5.2-11.2-3c-4.8,2.5-4.2,7.9-3.5,10.4
					c2.2,7.8,14,16.4,26.9,14.1c14-2.6,17-16.7,12.3-27.1c-6.3-14.1-15.7-28.2-18.1-35.6c-0.8-2.4-1.9-8.6,3.4-10.7
					c4.9-2,9,1.3,10.7,5.3c1.3,3,5.5,5.7,9.2,4.7C-356,430.9-354.4,426.3-357.6,420.8z"/>
			</g>
		</g>
		<g>
			<g>
				<path fill="#3CABCE" d="M-302,417.3c-5.1-5.6-14.3-10.5-25.1-7c-7,2.3-15.9,10.6-14,22.8c1.7,10.8,14.4,23,24.4,32.9
					c4.2,4.2,8.2,9.6,3.5,13.4c-2.3,1.9-7.1,0-9.9-2.9c-2.9-3-8.1-3.6-11.8-0.6c-4.3,3.5-2.6,8.6-1.4,10.9
					c3.8,7.2,17.3,13.2,29.7,8.1c13.4-5.5,13.5-20,6.7-29.2c-9.2-12.5-21.5-24.3-25.4-31.1c-1.3-2.2-3.6-8,1.2-11.2
					c4.5-3,9.3-0.6,11.8,2.9c2,2.7,6.7,4.5,10.1,2.7C-298.3,426.9-297.7,422-302,417.3z"/>
			</g>
		</g>
		<g>
			<g>
				<path fill="#3CABCE" d="M-202.6,416.1c-4.4-6-12.9-11.9-23.8-9.6c-7.1,1.5-16.6,8.8-15.9,21.1c0.6,10.9,11.7,24.3,20.5,35.2
					c3.7,4.6,7.1,10.4,2.1,13.6c-2.5,1.6-6.9-0.8-9.4-4c-2.5-3.2-7.6-4.5-11.5-1.8c-4.5,3-3.4,8.3-2.4,10.7
					c3,7.5,15.6,14.9,28.2,11.2c13.7-4,15.1-18.4,9.4-28.2c-7.8-13.3-18.5-26.4-21.7-33.6c-1-2.4-2.7-8.3,2.2-11
					c4.7-2.5,9.1,0.4,11.2,4.2c1.6,2.9,6.1,5.1,9.6,3.7C-199.9,425.9-198.8,421.2-202.6,416.1z"/>
			</g>
		</g>
	</g>
	<path d="M-1042.9,619.4"/>
	<path fill="#E5352D" d="M-769.4,521.6c-176.3,89.6-369.6,90.9-546.8,3.6c-23.1-12.9-15.8-30.8,7.4-18.7
		c172.5,84.8,360.2,83.6,531.8-3.5C-754,490.6-746.4,508.3-769.4,521.6z"/>
	<g>
		<path fill="#E5352D" d="M-1115.4,207.4c-1,0-1.9,0.2-2.8,0.5c-4.8,1.7-7.8,7.9-6.3,13c1.4,4.7,5.9,8.2,10.6,8.2
			c0.7,0,1.3-0.1,2-0.2c2.4-0.6,4.4-2.1,5.7-4.4c1.6-2.7,1.9-6.1,1-9.4C-1106.6,210.8-1111,207.4-1115.4,207.4z"/>
		<path fill="#E5352D" d="M-1121.1,379.1c5.8,1.4,12.5-3.1,13.9-9.3c9.5-37.5,13.1-76.8,9.4-115.4c-0.9-6.8-4.6-12.4-10-11.8
			c-5.1,0.5-9.4,6.9-8,14.2c3.4,35.6-5.5,72-12.4,107.3C-1130.3,371.3-1127.1,377.7-1121.1,379.1z"/>
	</g>
	<path fill="#E5352D" d="M-950.1,254.5l-1,0l0-1c0-0.1,0-12.1,0.7-18.7c0.9-8.2-3-12.6-7.2-13.3c-0.4-0.1-0.9-0.1-1.3-0.1
		c-4.5,0.2-8,4.8-8.7,11.6c-0.7,7-1.5,19.2-1.5,19.3l-0.1,0.9l-1,0c0,0-0.9,0-2.2,0c-4.7,0.2-15.8,1.5-16.2,9.7
		c-0.4,8.5,16.1,10.4,16.3,10.5l0.8,0.1l0,0.8c0,0.5,1.3,47.9,5.5,70c1.3,7,6.6,11.4,12.9,10.8c2.4-0.2,4.5-1.5,6.1-3.5
		c2.1-2.9,2.9-7,2.1-11.3c-4-20.9-6.1-65.7-6.2-66.2l-0.1-1l1,0c0,0,0.7,0,1.9,0c15.2-0.6,16.7-6.5,16.7-9
		C-931.8,254.3-949.9,254.5-950.1,254.5z"/>
	<g>
		<path fill="#E5352D" d="M-997.2,315.6c0.1,0,0.1,0,0.1,0C-997.1,315.6-997.1,315.6-997.2,315.6z"/>
		<path fill="#E5352D" d="M-994.4,315.6c0.1,0,0.2,0,0.3,0C-994.2,315.6-994.3,315.6-994.4,315.6z"/>
		<path fill="#E5352D" d="M-992.4,316c0.2,0.1,0.4,0.1,0.6,0.2C-992.1,316.2-992.3,316.1-992.4,316z"/>
		<path fill="#E5352D" d="M-993.6,315.7c0.2,0,0.4,0.1,0.6,0.2C-993.2,315.8-993.4,315.8-993.6,315.7z"/>
		<path fill="#E5352D" d="M-998.2,315.8c0.1,0,0.2-0.1,0.4-0.1C-997.9,315.8-998,315.8-998.2,315.8z"/>
		<path fill="#E5352D" d="M-999.3,316.2c-0.1,0-0.2,0.1-0.3,0.1C-999.5,316.3-999.4,316.2-999.3,316.2z"/>
		<path fill="#E5352D" d="M-1000.1,316.6c-0.8,0.4-1.8,1.1-3.1,2.1c-2.6,2-5.9,5.5-10.7,9.4c-2.4,1.9-5.2,3.9-8.6,5.4
			c-3.4,1.5-7.3,2.6-11.6,2.7c-2.1,0-4.4-0.3-6.6-0.9c-2.2-0.7-4.3-1.7-6.3-3.2c-3.9-2.8-7.1-7-9.4-11.7c-2.2-4.8-4.1-10-4.6-15.8
			c-0.2-2.9,0.1-5.8,1.2-8.7c1.1-2.8,3-5.3,5.5-7.1c1.2-0.9,2.6-1.7,4.1-2.3c0.4-0.2,0.7-0.3,1.1-0.4l0.6-0.2l0.6-0.2
			c0.9-0.2,1.7-0.2,2.5-0.1c1.6,0.2,3.2,0.8,4.6,1.7c1.4,0.9,2.5,2.2,3.2,3.8c0.7,1.5,0.9,3.3,0.6,5c-0.3,1.7-1,3.3-1.9,4.7
			c-0.4,0.7-0.9,1.4-1.5,2l-1.6,1.9c-1,1.2-1.9,2.5-2.5,3.9c-0.6,1.4-1,2.9-0.8,4.4c0.1,1.5,0.8,2.9,1.8,4c0.5,0.6,1.1,1,1.8,1.4
			c0.6,0.3,1.4,0.6,2.1,0.7c1.5,0.3,3.1,0.2,4.6-0.3c0.7-0.2,1.4-0.6,2-1.1c0.7-0.5,1.3-1,2-1.5c1.3-1.1,2.5-2.2,3.7-3.4
			c2.4-2.4,4.5-5,6.1-7.9c1.7-2.9,2.8-6.1,3.2-9.4c0.4-3.3-0.1-6.7-1.2-9.9c-2.3-6.4-6.7-12.1-12.7-15.2c-3-1.6-6.3-2.4-9.7-2.5
			c-3.4-0.1-6.8,0.5-10,1.4l-1.2,0.4l-0.3,0.1l-0.1,0l-0.2,0.1l-0.6,0.2c-0.8,0.3-1.6,0.6-2.4,1c-1.5,0.7-3.1,1.5-4.5,2.4
			c-2.9,1.7-5.5,4-7.8,6.5c-2.3,2.5-4.1,5.4-5.5,8.4c-1.4,3-2.3,6.3-3,9.5c-1.2,6.5-0.9,13.3,0.4,19.6c1.3,6.4,3.5,12.5,6.8,17.8
			c3.2,5.3,7.6,9.9,12.7,13c5.1,3.2,10.7,5,16.3,5.6c5.6,0.6,11.1,0.2,16.2-0.8c5.1-1.1,9.9-2.8,14.3-4.7c4.4-1.9,8.4-4.1,12-6.4
			c3.6-2.3,6.7-4.8,9.2-7.6c2.4-2.7,4.2-5.9,4.1-9c0-1.5-0.6-2.9-1.2-4.1c-0.6-1.2-1.4-2.3-2.2-3.1c-0.9-0.8-1.8-1.5-2.7-1.9
			c-0.9-0.4-1.8-0.7-2.6-0.8c-1.6-0.3-2.9-0.1-3.7,0.1c-0.2,0-0.4,0.1-0.5,0.1c0,0-0.1,0-0.1,0c-0.1,0-0.2,0.1-0.3,0.1
			c-0.2,0.1-0.3,0.1-0.3,0.1s-0.1,0-0.3,0.1C-999.4,316.3-999.7,316.4-1000.1,316.6z"/>
	</g>
	<g>
		<path fill="#E5352D" d="M-857,327.6c-0.1-0.1-0.2-0.2-0.3-0.3C-857.2,327.4-857.1,327.5-857,327.6z"/>
		<path fill="#E5352D" d="M-855.7,329.5c0.1,0.2,0.2,0.4,0.2,0.5C-855.5,329.8-855.6,329.6-855.7,329.5z"/>
		<path fill="#E5352D" d="M-856.2,328.5c0.1,0.1,0.2,0.3,0.3,0.4C-856.1,328.8-856.2,328.6-856.2,328.5z"/>
		<path fill="#E5352D" d="M-858,326.6c0.1,0.1,0.3,0.2,0.4,0.3C-857.8,326.8-857.9,326.7-858,326.6z"/>
		<path fill="#E5352D" d="M-861.7,324.9c0.1,0,0.2,0,0.3,0.1C-861.5,325-861.6,325-861.7,324.9z"/>
		<path fill="#E5352D" d="M-863.4,324.8c0,0-0.1,0-0.1,0c0,0-0.1,0-0.1,0c-0.2,0-0.5,0-0.7,0.1c-0.7,0.1-1.4,0.2-2.4,0.4
			c-2.8,0.6-6.8,2.1-12.1,3.3c-2.6,0.6-5.6,1.1-8.9,1c-3.2-0.1-6.8-0.7-10.2-2.3c-1.7-0.8-3.4-1.9-4.8-3.2c-1.5-1.4-2.7-3-3.7-4.9
			c-2-3.7-2.9-8.2-2.9-12.9c0.1-4.6,0.6-9.5,2.4-14.2c1-2.3,2.3-4.6,4.2-6.4c1.9-1.8,4.4-3.1,7.1-3.5c1.3-0.2,2.7-0.3,4.1-0.2
			c0.3,0,0.7,0,1,0.1l0.5,0.1l0.5,0.1c0.8,0.2,1.4,0.5,2,0.9c1.2,0.8,2.3,1.9,3,3.1c0.7,1.3,1.1,2.7,1.1,4.3c0,1.5-0.6,3-1.5,4.2
			c-0.9,1.2-2,2.2-3.3,3c-0.6,0.4-1.3,0.7-1.9,1l-2,0.9c-1.2,0.6-2.5,1.3-3.5,2.1c-1,0.9-1.9,1.9-2.3,3.1c-0.5,1.2-0.5,2.6-0.1,3.8
			c0.7,2.5,3.3,4.3,5.9,4.6c0.7,0.1,1.3,0.1,2-0.1c0.7-0.1,1.4-0.3,2.1-0.5c1.4-0.3,2.8-0.8,4.2-1.2c2.8-1,5.5-2.2,7.9-3.9
			c2.4-1.7,4.6-3.7,6.1-6.2c1.6-2.4,2.5-5.3,2.8-8.2c0.6-5.9-0.7-12.1-4.2-16.8c-1.7-2.4-4-4.3-6.6-5.7c-2.6-1.4-5.5-2.2-8.4-2.7
			l-1.1-0.2l-0.3,0l-0.1,0l-0.1,0l-0.6-0.1c-0.8-0.1-1.5-0.1-2.3-0.1c-1.5-0.1-3,0-4.4,0.1c-3,0.3-5.8,1-8.6,2.1
			c-2.7,1.1-5.2,2.7-7.5,4.5c-2.3,1.9-4.2,4-6,6.4c-3.4,4.7-5.8,10.1-7.2,15.6c-1.4,5.5-2,11.2-1.5,16.6c0.5,5.4,2.2,10.7,5,15.1
			c2.8,4.4,6.5,8,10.7,10.7c4.2,2.7,8.7,4.5,13.1,5.6c4.5,1.1,8.9,1.6,13.1,1.8c4.2,0.2,8.2,0,11.9-0.4c3.7-0.5,7.2-1.2,10.2-2.5
			c3-1.2,5.6-3,6.7-5.5c0.6-1.2,0.6-2.5,0.6-3.7c0-1.2-0.2-2.3-0.6-3.3c-0.4-1-0.8-1.8-1.4-2.5c-0.6-0.7-1.2-1.2-1.7-1.7
			c-1.2-0.8-2.3-1.2-3-1.4c-0.2-0.1-0.3-0.1-0.5-0.1c0,0,0,0,0,0c-0.1,0-0.2,0-0.3-0.1c-0.2,0-0.3,0-0.3,0h0
			C-862.7,324.8-863.1,324.8-863.4,324.8z"/>
		<rect x="-862.4" y="324.8" fill="#E5352D" width="0" height="0"/>
		<path fill="#E5352D" d="M-858.5,326.2c0,0,0.1,0,0.1,0.1C-858.5,326.3-858.5,326.3-858.5,326.2z"/>
		<path fill="#E5352D" d="M-860.8,325.2C-860.8,325.2-860.8,325.2-860.8,325.2C-860.8,325.2-860.8,325.2-860.8,325.2z"/>
	</g>
	<g>
		<path fill="#E5352D" d="M-763.2,321.5c0.1,0,0.2,0.1,0.3,0.1C-763,321.6-763.1,321.5-763.2,321.5z"/>
		<path fill="#E5352D" d="M-765.8,320.9c0.1,0,0.1,0,0.2,0C-765.7,320.9-765.8,320.9-765.8,320.9z"/>
		<path fill="#E5352D" d="M-766.4,320.8c-0.1,0-0.3,0-0.4,0C-766.7,320.8-766.6,320.8-766.4,320.8z"/>
		<path fill="#E5352D" d="M-768.9,321.1c0,0-0.1,0-0.1,0c-0.3,0.1-0.6,0.2-0.8,0.3c-0.7,0.2-1.5,0.6-2.5,1c-3,1.3-7.1,3.9-12.7,6.5
			c-2.8,1.3-6,2.5-9.7,3.2c-3.6,0.6-7.7,0.8-11.9-0.2c-2.1-0.5-4.2-1.3-6.1-2.5c-1.9-1.2-3.8-2.7-5.3-4.6c-3.1-3.7-5.1-8.5-6.2-13.7
			c-1-5.2-1.5-10.7-0.5-16.4c0.5-2.8,1.5-5.6,3.3-8.1c1.7-2.5,4.2-4.4,7.1-5.6c1.4-0.6,2.9-1,4.5-1.2c0.4-0.1,0.8-0.1,1.2-0.2
			l0.6-0.1l0.6,0c0.9,0,1.7,0.2,2.4,0.5c1.5,0.6,2.9,1.5,4,2.8c1.1,1.2,1.9,2.8,2.2,4.5c0.3,1.7,0,3.5-0.7,5c-0.7,1.6-1.8,2.9-3,4.1
			c-0.6,0.6-1.3,1.1-1.9,1.6l-2,1.4c-1.3,0.9-2.5,2-3.4,3.2c-1,1.2-1.7,2.6-1.9,4.1c-0.2,1.5,0,3,0.7,4.4c0.3,0.7,0.8,1.3,1.4,1.8
			c0.5,0.5,1.2,0.9,1.9,1.2c1.4,0.7,3,1,4.5,0.9c0.8-0.1,1.5-0.2,2.2-0.5c0.8-0.3,1.5-0.6,2.3-1c1.5-0.7,3-1.5,4.4-2.4
			c2.9-1.7,5.6-3.8,7.9-6.2c2.3-2.4,4.2-5.2,5.4-8.3c1.2-3.1,1.6-6.5,1.3-9.8c-0.7-6.7-3.5-13.4-8.6-17.9c-2.5-2.2-5.5-3.9-8.8-4.8
			c-3.2-0.9-6.7-1.2-10.1-1.1l-1.3,0.1l-0.3,0l-0.1,0l-0.2,0l-0.7,0.1c-0.9,0.1-1.7,0.2-2.6,0.4c-1.7,0.3-3.3,0.7-4.9,1.2
			c-3.2,1-6.3,2.5-9.1,4.3c-2.8,1.9-5.3,4.2-7.4,6.8c-2.1,2.6-3.8,5.5-5.2,8.5c-2.7,6.1-4.1,12.6-4.4,19.1c-0.3,6.5,0.3,13,2.2,18.9
			c1.8,6,4.9,11.4,9.1,15.7c4.1,4.3,9.2,7.5,14.4,9.5c5.3,2,10.7,3,15.9,3.2c5.2,0.2,10.3-0.3,15-1c4.7-0.8,9.1-1.9,13.2-3.2
			c4-1.4,7.7-3,10.8-5.1c3-2,5.5-4.7,6.2-7.7c0.4-1.5,0.1-3-0.1-4.3c-0.3-1.3-0.8-2.5-1.4-3.5c-0.6-1-1.4-1.8-2.1-2.5
			c-0.8-0.6-1.6-1.1-2.3-1.4c-1.5-0.7-2.8-0.8-3.6-0.8c-0.2,0-0.4,0-0.6,0c0,0-0.1,0-0.1,0c-0.1,0-0.2,0-0.3,0c-0.2,0-0.3,0-0.3,0
			c-0.4,0-0.7,0.1-1.1,0.2C-768.8,321.1-768.9,321.1-768.9,321.1z"/>
	</g>
	<g>
		<path fill="#E5352D" d="M-1233.7,267.5c-0.1,0-0.2,0-0.3,0C-1233.9,267.5-1233.8,267.5-1233.7,267.5z"/>
		<path fill="#E5352D" d="M-1236.6,267.2c-4.6-0.4-9.5,0.4-13.8,2c-5.4,1.9-10.1,5-14.1,9.1c-3.9,4-6.8,8.9-8.5,14.2
			c-1.8,5.6-2.1,11.5-1.5,17.3c1,10,5.2,21.6,15.4,25.2c2.5,0.9,5.4,1,7.9,0c2.3-0.9,4.2-2.7,5.2-5c1-2.3,0.9-5-0.1-7.3
			c-0.7-1.6-1.9-2.9-3.1-4.2c-2.8-2.9-4.9-6.3-5.8-10.3c-1.3-5.7,0.2-11.7,3.5-16.4c1.6-2.2,3.6-4.1,6-5.5c2.2-1.3,5-2.3,7.7-2.2
			c3.5,0.1,7,1.1,9.7,3.4c2.1,1.8,3.7,4,4.8,6.5c1.1,2.7,1.5,5.6,1.4,8.5c-0.2,5.7-2.7,11.1-6.6,15.1c-2.3,2.4-5.5,4-7.3,7
			c-1.3,2.2-1.8,4.8-1.2,7.3c0.6,2.4,2.2,4.5,4.3,5.8c3.9,2.3,9,1.5,12.8-0.7c1.9-1.1,3.7-2.3,5.2-3.9c2-2,3.8-4.2,5.2-6.6
			c3-5,4.9-10.5,5.9-16.2c0.8-4.8,0.8-9.7-0.2-14.4c-2.3-10.9-9.7-20.5-19.8-25.3C-1227.7,268.7-1232.1,267.5-1236.6,267.2
			C-1237.3,267.2-1235.9,267.2-1236.6,267.2z"/>
		<path fill="#E5352D" d="M-1235.6,267.3C-1235.6,267.3-1235.6,267.3-1235.6,267.3C-1235.6,267.3-1235.6,267.3-1235.6,267.3
			c-0.1,0-0.1,0-0.2,0C-1235.7,267.3-1235.6,267.3-1235.6,267.3z"/>
		<path fill="#E5352D" d="M-1232,267.8c-0.1,0-0.1,0-0.2,0C-1232.1,267.8-1232,267.8-1232,267.8z"/>
		<path fill="#E5352D" d="M-1237.3,267.2c-0.1,0-0.2,0-0.3,0C-1237.5,267.2-1237.4,267.2-1237.3,267.2z"/>
		<path fill="#E5352D" d="M-1239.1,267.1c-0.1,0-0.1,0-0.2,0C-1239.2,267.1-1239.2,267.1-1239.1,267.1z"/>
	</g>
	<g>
		<g>
			<path fill="#E5352D" d="M-1282.9,259.4c-5.1-7.9-15.3-15.9-29.1-13.8c-9,1.4-21.5,9.9-21.6,25.3c-0.1,13.8,12.9,31.4,23.2,45.7
				c4.3,6,8.1,13.6,1.6,17.3c-3.2,1.8-8.7-1.5-11.5-5.7c-2.9-4.3-9.2-6.2-14.3-3.2c-5.9,3.5-4.9,10.1-3.8,13.2
				c3.2,9.7,18.5,19.9,34.6,16.2c17.5-4,20.4-22,14-34.7c-8.8-17.4-21.3-34.5-24.8-43.8c-1.1-3-2.8-10.6,3.6-13.6
				c6.1-2.8,11.4,1.2,13.8,6.1c1.9,3.7,7.3,6.9,11.8,5.4C-1280.3,272-1278.6,266.1-1282.9,259.4z"/>
		</g>
	</g>
	<g>
		<g>
			<path fill="#E5352D" d="M-1140.3,265.3c-5.1-7.9-15.3-15.9-29.2-13.7c-9,1.4-21.4,9.9-21.5,25.3c0,13.8,13.1,31.3,23.3,45.6
				c4.3,6,8.2,13.6,1.7,17.3c-3.2,1.8-8.7-1.5-11.5-5.6c-2.9-4.2-9.2-6.1-14.3-3.1c-5.9,3.5-4.8,10.1-3.8,13.3
				c3.3,9.7,18.6,19.8,34.7,16.1c17.4-4.1,20.3-22,13.8-34.8c-8.8-17.3-21.4-34.5-24.9-43.7c-1.2-3-2.9-10.6,3.6-13.6
				c6.1-2.8,11.4,1.1,13.8,6c1.9,3.7,7.3,6.9,11.8,5.3C-1137.6,277.9-1135.9,272.1-1140.3,265.3z"/>
		</g>
	</g>
	<g>
		<path fill="#E5352D" d="M-928.1,377.8c-0.5-0.1-1-0.1-1.5-0.1c-4.9,0.2-9.5,4.5-10,9.5c-0.3,3.1,0.7,6.2,2.7,8.6
			c1.8,2.1,4.1,3.4,6.6,3.5c0.3,0,0.7,0,1,0c5.3-0.2,9.6-4.5,10.2-10C-918.5,384-922.7,378.6-928.1,377.8z"/>
		<path fill="#E5352D" d="M-923.4,504c6.1-0.5,9.9-6.6,8.7-13.6c-3.7-21.3-6.4-43-6.3-64.5c0-7.1-4.2-11.9-8.7-11.8
			c-4.4,0.2-8.7,4.8-8.9,11.8c-0.5,23.2-0.5,45.2,2.9,68C-934.6,500.3-929.4,504.5-923.4,504z"/>
	</g>
	<g>
		<path fill="#E5352D" d="M-1140.7,420.7c-0.1,0-0.2,0-0.3,0C-1140.9,420.7-1140.8,420.7-1140.7,420.7z"/>
		<path fill="#E5352D" d="M-1143.6,420.7c-4.7,0-9.4,1.3-13.6,3.2c-5.2,2.4-9.6,5.9-13.2,10.3c-3.5,4.3-6,9.5-7.2,14.9
			c-1.3,5.7-1.1,11.7,0,17.4c1.9,9.8,7.1,21.1,17.7,23.7c2.6,0.7,5.4,0.5,7.8-0.7c2.2-1.1,3.9-3.1,4.7-5.5c0.8-2.4,0.4-5-0.8-7.2
			c-0.9-1.6-2.1-2.7-3.5-3.9c-3-2.6-5.5-5.9-6.7-9.7c-1.8-5.5-0.9-11.7,2-16.6c1.4-2.4,3.2-4.4,5.5-6c2.1-1.5,4.8-2.7,7.4-2.9
			c3.5-0.2,7.1,0.4,10,2.5c2.3,1.6,4.1,3.6,5.4,6.1c1.3,2.6,2,5.4,2.2,8.3c0.3,5.6-1.7,11.3-5.2,15.6c-2.1,2.6-5.1,4.5-6.6,7.6
			c-1.1,2.3-1.3,5-0.5,7.4c0.8,2.4,2.6,4.3,4.8,5.4c4.1,2,9.1,0.7,12.7-1.9c1.8-1.3,3.4-2.7,4.9-4.3c1.8-2.1,3.4-4.5,4.6-7
			c2.5-5.2,3.9-10.9,4.4-16.7c0.4-4.8-0.1-9.7-1.5-14.3c-3.3-10.7-11.5-19.5-22-23.4C-1134.6,421.3-1139.1,420.5-1143.6,420.7
			C-1144.3,420.7-1143,420.6-1143.6,420.7z"/>
		<path fill="#E5352D" d="M-1142.6,420.6C-1142.6,420.6-1142.6,420.6-1142.6,420.6C-1142.6,420.6-1142.6,420.6-1142.6,420.6
			c-0.1,0-0.1,0-0.2,0C-1142.7,420.6-1142.6,420.6-1142.6,420.6z"/>
		<path fill="#E5352D" d="M-1139,420.8c-0.1,0-0.1,0-0.2,0C-1139.1,420.8-1139,420.8-1139,420.8z"/>
		<path fill="#E5352D" d="M-1144.3,420.7c-0.1,0-0.2,0-0.3,0C-1144.5,420.7-1144.4,420.7-1144.3,420.7z"/>
		<path fill="#E5352D" d="M-1146.1,420.8c-0.1,0-0.1,0-0.2,0C-1146.2,420.8-1146.2,420.8-1146.1,420.8z"/>
	</g>
	<g>
		<g>
			<path fill="#E5352D" d="M-1198,414.2c-6.4-6.9-17.9-12.9-31.1-8.4c-8.6,3-19.4,13.6-16.7,28.7c2.4,13.5,18.4,28.5,31,40.8
				c5.3,5.1,10.4,11.9,4.7,16.7c-2.8,2.4-8.8,0.1-12.3-3.5c-3.6-3.7-10.1-4.4-14.6-0.5c-5.2,4.5-3,10.8-1.4,13.7
				c4.9,9,21.7,16.2,36.9,9.7c16.4-7.1,16.1-25.3,7.5-36.7c-11.7-15.5-27.2-30.2-32.2-38.6c-1.7-2.8-4.7-10,1.1-14
				c5.5-3.8,11.4-0.9,14.7,3.5c2.5,3.4,8.4,5.5,12.6,3.2C-1193.2,426.1-1192.6,420-1198,414.2z"/>
		</g>
	</g>
	<g>
		<g>
			<path fill="#E5352D" d="M-1037.6,422.7c-4.7-8.1-14.6-16.6-28.5-15.1c-9,1-21.9,8.9-22.7,24.3c-0.7,13.7,11.5,31.9,21.1,46.7
				c4,6.2,7.5,14,0.9,17.3c-3.3,1.7-8.6-1.9-11.2-6.2c-2.7-4.4-8.9-6.6-14.1-3.8c-6,3.2-5.3,9.9-4.4,13.1
				c2.8,9.8,17.6,20.7,33.8,17.7c17.6-3.2,21.4-21,15.5-34.1c-8-17.7-19.7-35.5-22.8-44.9c-1-3.1-2.4-10.8,4.3-13.4
				c6.2-2.5,11.3,1.7,13.5,6.7c1.7,3.8,6.9,7.2,11.5,5.9C-1035.6,435.4-1033.6,429.7-1037.6,422.7z"/>
		</g>
	</g>
	<g>
		<g>
			<path fill="#E5352D" d="M-967.6,418.3c-6.4-7-18-13.2-31.6-8.8c-8.8,2.9-20,13.4-17.6,28.7c2.1,13.6,18.1,28.9,30.7,41.4
				c5.3,5.2,10.4,12.1,4.4,16.8c-2.9,2.3-9,0-12.5-3.7c-3.6-3.7-10.2-4.6-14.9-0.7c-5.4,4.4-3.3,10.8-1.7,13.8
				c4.8,9.1,21.8,16.6,37.4,10.2c16.9-6.9,17-25.2,8.5-36.8c-11.6-15.7-27-30.6-32-39.2c-1.6-2.8-4.6-10.1,1.5-14.1
				c5.7-3.8,11.7-0.8,14.9,3.7c2.5,3.4,8.4,5.6,12.7,3.3C-963,430.3-962.2,424.3-967.6,418.3z"/>
		</g>
	</g>
	<g>
		<g>
			<path fill="#E5352D" d="M-842.5,416.8c-5.5-7.6-16.2-15-29.9-12.1c-8.9,1.9-20.9,11.1-20,26.5c0.7,13.7,14.8,30.5,25.8,44.2
				c4.6,5.7,8.9,13.1,2.7,17.1c-3.1,2-8.7-1-11.8-5c-3.1-4.1-9.5-5.6-14.5-2.3c-5.7,3.8-4.3,10.4-3,13.4
				c3.8,9.5,19.6,18.8,35.5,14.1c17.2-5,19.1-23.1,11.9-35.5c-9.8-16.8-23.3-33.2-27.3-42.3c-1.3-3-3.5-10.5,2.8-13.8
				c5.9-3.1,11.4,0.5,14.2,5.2c2.1,3.6,7.7,6.5,12.1,4.7C-839.1,429.2-837.7,423.2-842.5,416.8z"/>
		</g>
	</g>
	<path d="M310.8,579.6"/>
	<path fill="#FFFFFF" d="M296.2,579.6"/>
	<g>
		<path fill="#FFFFFF" d="M518,500.3c-142.9,72.6-299.6,73.7-443.3,2.9c-18.7-10.5-12.8-25,6-15.2c139.9,68.8,292,67.8,431.1-2.8
			C530.5,475.2,536.6,489.6,518,500.3z"/>
	</g>
	<g>
		<g>
			<path fill="#FFFFFF" d="M237.5,245.6c-0.8,0-1.5,0.1-2.2,0.4c-3.9,1.4-6.3,6.4-5.1,10.6c1.1,3.8,4.8,6.7,8.6,6.7
				c0.5,0,1.1-0.1,1.6-0.2c1.9-0.4,3.5-1.7,4.6-3.5c1.3-2.2,1.6-5,0.8-7.6C244.6,248.3,241.1,245.6,237.5,245.6z"/>
			<path fill="#FFFFFF" d="M232.8,384.8c4.7,1.1,10.1-2.5,11.3-7.5c7.7-30.4,10.6-62.3,7.7-93.6c-0.8-5.5-3.7-10-8.1-9.6
				c-4.1,0.4-7.6,5.6-6.5,11.5c2.8,28.8-4.5,58.3-10,87C225.4,378.4,228,383.6,232.8,384.8z"/>
		</g>
		<path fill="#FFFFFF" d="M371.5,283.8l-0.8,0l0-0.8c0-0.1,0-9.8,0.5-15.2c0.7-6.6-2.4-10.2-5.9-10.8c-0.3,0-0.7-0.1-1-0.1
			c-3.6,0.2-6.5,3.9-7,9.4c-0.6,5.7-1.2,15.6-1.3,15.7l-0.1,0.8l-0.8,0c0,0-0.7,0-1.8,0c-3.8,0.2-12.8,1.2-13.1,7.8
			c-0.3,6.9,13.1,8.5,13.2,8.5l0.7,0.1l0,0.7c0,0.4,1,38.9,4.4,56.8c1.1,5.7,5.3,9.3,10.5,8.8c2-0.2,3.7-1.2,4.9-2.8
			c1.7-2.3,2.4-5.7,1.7-9.1c-3.2-17-5-53.3-5-53.7l0-0.8l0.8,0c0,0,0.6,0,1.5,0c12.4-0.5,13.6-5.3,13.5-7.3
			C386.3,283.6,371.7,283.8,371.5,283.8z"/>
		<g>
			<path fill="#FFFFFF" d="M333.3,333.4c0,0,0.1,0,0.1,0C333.4,333.3,333.4,333.3,333.3,333.4z"/>
			<path fill="#FFFFFF" d="M335.6,333.3c0.1,0,0.2,0,0.3,0C335.7,333.3,335.6,333.3,335.6,333.3z"/>
			<path fill="#FFFFFF" d="M337.2,333.7c0.1,0,0.3,0.1,0.4,0.2C337.5,333.8,337.3,333.7,337.2,333.7z"/>
			<path fill="#FFFFFF" d="M336.2,333.4c0.2,0,0.3,0.1,0.5,0.1C336.6,333.5,336.4,333.5,336.2,333.4z"/>
			<path fill="#FFFFFF" d="M332.5,333.5c0.1,0,0.2-0.1,0.3-0.1C332.7,333.5,332.6,333.5,332.5,333.5z"/>
			<path fill="#FFFFFF" d="M331.6,333.8c-0.1,0-0.2,0.1-0.3,0.1C331.5,333.9,331.5,333.8,331.6,333.8z"/>
			<path fill="#FFFFFF" d="M330.9,334.1c-0.6,0.3-1.5,0.9-2.5,1.7c-2.1,1.6-4.8,4.5-8.7,7.6c-1.9,1.5-4.2,3.1-7,4.4
				c-2.7,1.2-5.9,2.1-9.4,2.2c-1.7,0-3.5-0.2-5.3-0.7c-1.8-0.5-3.5-1.4-5.1-2.6c-3.2-2.3-5.7-5.7-7.6-9.5c-1.8-3.9-3.4-8.1-3.7-12.8
				c-0.1-2.3,0.1-4.7,0.9-7c0.9-2.3,2.4-4.3,4.5-5.8c1-0.7,2.1-1.3,3.3-1.8c0.3-0.1,0.6-0.2,0.9-0.4l0.5-0.2l0.5-0.1
				c0.7-0.2,1.3-0.2,2-0.1c1.3,0.2,2.6,0.6,3.7,1.4c1.1,0.8,2,1.8,2.6,3.1c0.6,1.3,0.7,2.7,0.5,4.1c-0.2,1.4-0.8,2.6-1.5,3.8
				c-0.4,0.6-0.8,1.1-1.2,1.6l-1.3,1.5c-0.8,1-1.6,2-2.1,3.2c-0.5,1.1-0.8,2.4-0.7,3.6c0.1,1.2,0.6,2.4,1.5,3.3
				c0.4,0.5,0.9,0.8,1.4,1.1c0.5,0.3,1.1,0.5,1.7,0.6c1.2,0.2,2.5,0.2,3.7-0.2c0.6-0.2,1.1-0.5,1.6-0.9c0.6-0.4,1.1-0.8,1.6-1.2
				c1.1-0.9,2.1-1.8,3-2.7c1.9-1.9,3.6-4.1,5-6.4c1.3-2.4,2.3-5,2.6-7.6c0.3-2.7-0.1-5.4-1-8c-1.9-5.2-5.4-9.8-10.3-12.3
				c-2.4-1.3-5.1-1.9-7.8-2c-2.7-0.1-5.5,0.4-8.1,1.2l-1,0.3l-0.2,0.1l-0.1,0l-0.1,0l-0.5,0.2c-0.7,0.2-1.3,0.5-1.9,0.8
				c-1.3,0.5-2.5,1.2-3.7,1.9c-2.4,1.4-4.5,3.2-6.3,5.2c-1.8,2-3.3,4.4-4.4,6.8c-1.1,2.5-1.9,5.1-2.4,7.7
				c-0.9,5.3-0.7,10.7,0.4,15.9c1.1,5.2,2.8,10.1,5.5,14.4c2.6,4.3,6.2,8,10.3,10.5c4.1,2.6,8.7,4,13.2,4.6c4.5,0.5,9,0.2,13.2-0.7
				c4.2-0.9,8-2.3,11.6-3.8c3.6-1.6,6.8-3.3,9.7-5.2c2.9-1.9,5.5-3.9,7.4-6.2c2-2.2,3.4-4.8,3.4-7.3c0-1.2-0.5-2.4-1-3.3
				c-0.5-1-1.1-1.8-1.8-2.5c-0.7-0.7-1.4-1.2-2.2-1.5c-0.7-0.3-1.5-0.6-2.1-0.7c-1.3-0.2-2.4-0.1-3,0.1c-0.2,0-0.3,0.1-0.4,0.1
				c0,0-0.1,0-0.1,0c-0.1,0-0.2,0.1-0.2,0.1c-0.2,0-0.3,0.1-0.3,0.1s-0.1,0-0.2,0.1C331.5,333.9,331.3,334,330.9,334.1z"/>
		</g>
		<g>
			<path fill="#FFFFFF" d="M447,343.1c-0.1-0.1-0.2-0.2-0.2-0.2C446.8,342.9,446.9,343,447,343.1z"/>
			<path fill="#FFFFFF" d="M448,344.6c0.1,0.1,0.1,0.3,0.2,0.4C448.2,344.9,448.1,344.7,448,344.6z"/>
			<path fill="#FFFFFF" d="M447.6,343.8c0.1,0.1,0.1,0.2,0.2,0.3C447.7,344,447.6,343.9,447.6,343.8z"/>
			<path fill="#FFFFFF" d="M446.1,342.3c0.1,0.1,0.2,0.2,0.3,0.3C446.3,342.4,446.2,342.3,446.1,342.3z"/>
			<path fill="#FFFFFF" d="M443.1,340.9c0.1,0,0.2,0,0.3,0.1C443.3,340.9,443.2,340.9,443.1,340.9z"/>
			<path fill="#FFFFFF" d="M441.8,340.8c0,0-0.1,0-0.1,0c0,0-0.1,0-0.1,0c-0.2,0-0.4,0-0.6,0.1c-0.5,0.1-1.2,0.2-1.9,0.3
				c-2.3,0.5-5.5,1.7-9.8,2.7c-2.1,0.5-4.5,0.9-7.2,0.8c-2.6-0.1-5.5-0.6-8.3-1.9c-1.4-0.6-2.7-1.5-3.9-2.6c-1.2-1.1-2.2-2.5-3-4
				c-1.6-3-2.4-6.7-2.4-10.4c0.1-3.7,0.5-7.7,2-11.5c0.8-1.9,1.9-3.7,3.4-5.2c1.6-1.5,3.6-2.5,5.8-2.9c1.1-0.2,2.2-0.3,3.3-0.2
				c0.3,0,0.6,0,0.8,0.1l0.4,0l0.4,0.1c0.6,0.1,1.1,0.4,1.7,0.7c1,0.6,1.8,1.5,2.4,2.5c0.6,1,0.9,2.2,0.9,3.4c0,1.2-0.5,2.4-1.2,3.4
				c-0.7,1-1.7,1.8-2.7,2.4c-0.5,0.3-1,0.6-1.6,0.8l-1.6,0.7c-1,0.5-2,1-2.8,1.7c-0.8,0.7-1.5,1.6-1.9,2.5c-0.4,1-0.4,2.1-0.1,3.1
				c0.6,2,2.7,3.5,4.8,3.7c0.5,0.1,1,0.1,1.6,0c0.6-0.1,1.2-0.2,1.7-0.4c1.2-0.3,2.3-0.6,3.4-1c2.2-0.8,4.4-1.8,6.4-3.2
				c2-1.3,3.7-3,5-5c1.3-2,2-4.3,2.3-6.6c0.5-4.8-0.5-9.8-3.4-13.6c-1.4-1.9-3.3-3.5-5.4-4.6c-2.1-1.1-4.5-1.8-6.8-2.2l-0.9-0.1
				l-0.2,0l-0.1,0l-0.1,0l-0.5,0c-0.6-0.1-1.2-0.1-1.8-0.1c-1.2-0.1-2.4,0-3.6,0.1c-2.4,0.2-4.7,0.8-6.9,1.7
				c-2.2,0.9-4.2,2.2-6.1,3.7c-1.8,1.5-3.4,3.3-4.8,5.2c-2.8,3.8-4.7,8.2-5.8,12.7c-1.1,4.5-1.6,9.1-1.2,13.5
				c0.4,4.4,1.8,8.7,4,12.2c2.2,3.6,5.3,6.5,8.7,8.7c3.4,2.2,7,3.6,10.6,4.5c3.6,0.9,7.2,1.3,10.6,1.4c3.4,0.1,6.6,0,9.7-0.4
				c3-0.4,5.8-1,8.2-2c2.4-1,4.5-2.4,5.4-4.5c0.5-1,0.5-2,0.5-3c0-1-0.2-1.9-0.5-2.7c-0.3-0.8-0.7-1.5-1.1-2c-0.5-0.6-0.9-1-1.4-1.3
				c-0.9-0.7-1.8-1-2.4-1.1c-0.1,0-0.3-0.1-0.4-0.1c0,0,0,0,0,0c-0.1,0-0.2,0-0.3,0c-0.2,0-0.2,0-0.2,0h0
				C442.3,340.8,442,340.8,441.8,340.8z"/>
			<rect x="442.6" y="340.8" fill="#FFFFFF" width="0" height="0"/>
			<path fill="#FFFFFF" d="M445.7,341.9C445.7,342,445.8,342,445.7,341.9C445.8,342,445.7,342,445.7,341.9z"/>
			<path fill="#FFFFFF" d="M443.9,341.1C443.9,341.1,443.9,341.1,443.9,341.1C443.9,341.1,443.9,341.1,443.9,341.1z"/>
		</g>
		<g>
			<path fill="#FFFFFF" d="M523,338.1c0.1,0,0.2,0.1,0.2,0.1C523.2,338.2,523.1,338.1,523,338.1z"/>
			<path fill="#FFFFFF" d="M520.9,337.6c0,0,0.1,0,0.1,0C520.9,337.6,520.9,337.6,520.9,337.6z"/>
			<path fill="#FFFFFF" d="M520.4,337.6c-0.1,0-0.2,0-0.3,0C520.1,337.6,520.2,337.6,520.4,337.6z"/>
			<path fill="#FFFFFF" d="M518.4,337.8c0,0-0.1,0-0.1,0c-0.2,0.1-0.5,0.1-0.7,0.2c-0.6,0.2-1.3,0.5-2.1,0.8
				c-2.4,1.1-5.8,3.2-10.3,5.2c-2.3,1-4.9,2-7.8,2.6c-3,0.5-6.3,0.6-9.7-0.2c-1.7-0.4-3.4-1.1-5-2c-1.6-1-3-2.2-4.3-3.7
				c-2.5-3-4.2-6.9-5-11.1c-0.8-4.2-1.2-8.7-0.4-13.3c0.4-2.3,1.2-4.6,2.6-6.6c1.4-2,3.4-3.6,5.8-4.5c1.2-0.5,2.4-0.8,3.6-1
				c0.3-0.1,0.6-0.1,0.9-0.1l0.5-0.1l0.5,0c0.7,0,1.3,0.2,2,0.4c1.2,0.5,2.4,1.3,3.2,2.3c0.9,1,1.5,2.3,1.8,3.6
				c0.2,1.4,0,2.8-0.5,4.1c-0.6,1.3-1.4,2.4-2.4,3.3c-0.5,0.5-1,0.9-1.6,1.3l-1.6,1.1c-1,0.7-2,1.6-2.8,2.6c-0.8,1-1.4,2.1-1.6,3.3
				c-0.2,1.2,0,2.4,0.6,3.5c0.3,0.6,0.6,1,1.1,1.4c0.4,0.4,1,0.7,1.5,1c1.1,0.5,2.4,0.8,3.6,0.7c0.6,0,1.2-0.2,1.8-0.4
				c0.6-0.3,1.2-0.5,1.9-0.8c1.2-0.6,2.4-1.2,3.6-1.9c2.3-1.4,4.5-3.1,6.4-5c1.9-2,3.4-4.2,4.4-6.8c1-2.5,1.3-5.3,1-8
				c-0.5-5.5-2.9-10.9-6.9-14.5c-2-1.8-4.5-3.1-7.1-3.9c-2.6-0.8-5.4-1-8.2-0.9l-1,0.1l-0.3,0l-0.1,0l-0.1,0l-0.5,0.1
				c-0.7,0.1-1.4,0.2-2.1,0.3c-1.3,0.2-2.7,0.6-4,0.9c-2.6,0.8-5.1,2-7.4,3.5c-2.3,1.5-4.3,3.4-6,5.5c-1.7,2.1-3.1,4.4-4.2,6.9
				c-2.2,4.9-3.3,10.2-3.6,15.5c-0.2,5.3,0.3,10.5,1.8,15.3c1.5,4.8,4,9.3,7.3,12.7c3.3,3.5,7.4,6.1,11.7,7.7
				c4.3,1.6,8.7,2.4,12.9,2.6c4.2,0.2,8.3-0.2,12.2-0.8c3.8-0.6,7.4-1.5,10.7-2.6c3.3-1.1,6.3-2.5,8.7-4.1c2.5-1.7,4.5-3.8,5-6.2
				c0.3-1.2,0.1-2.4-0.1-3.5c-0.2-1.1-0.6-2.1-1.1-2.9c-0.5-0.8-1.1-1.5-1.7-2c-0.6-0.5-1.3-0.9-1.9-1.2c-1.2-0.5-2.3-0.7-2.9-0.7
				c-0.2,0-0.3,0-0.4,0c0,0,0,0-0.1,0c-0.1,0-0.2,0-0.3,0c-0.2,0-0.3,0-0.3,0c-0.3,0-0.6,0.1-0.9,0.2
				C518.4,337.8,518.4,337.8,518.4,337.8z"/>
		</g>
		<g>
			<path fill="#FFFFFF" d="M141.6,294.3c-0.1,0-0.1,0-0.2,0C141.5,294.3,141.5,294.3,141.6,294.3z"/>
			<path fill="#FFFFFF" d="M139.2,294.1c-3.8-0.3-7.7,0.3-11.2,1.6c-4.3,1.5-8.2,4.1-11.4,7.4c-3.1,3.2-5.5,7.2-6.9,11.5
				c-1.5,4.5-1.7,9.3-1.3,14c0.8,8.1,4.2,17.5,12.5,20.5c2,0.7,4.4,0.8,6.4,0c1.9-0.7,3.4-2.2,4.2-4.1c0.8-1.9,0.7-4-0.1-5.9
				c-0.6-1.3-1.5-2.3-2.5-3.4c-2.3-2.3-4-5.1-4.7-8.4c-1-4.6,0.1-9.5,2.9-13.3c1.3-1.8,2.9-3.3,4.9-4.5c1.8-1.1,4.1-1.9,6.2-1.8
				c2.8,0.1,5.7,0.9,7.9,2.7c1.7,1.5,3,3.2,3.9,5.3c0.9,2.2,1.2,4.5,1.1,6.9c-0.2,4.6-2.2,9-5.4,12.2c-1.9,2-4.5,3.3-5.9,5.7
				c-1.1,1.8-1.5,3.9-1,5.9c0.5,2,1.8,3.7,3.5,4.7c3.2,1.9,7.3,1.2,10.4-0.6c1.5-0.9,3-1.9,4.3-3.1c1.6-1.6,3-3.4,4.2-5.3
				c2.4-4,4-8.5,4.8-13.1c0.7-3.9,0.6-7.8-0.2-11.7c-1.9-8.9-7.9-16.6-16-20.5C146.4,295.3,142.9,294.3,139.2,294.1
				C138.7,294.1,139.8,294.1,139.2,294.1z"/>
			<path fill="#FFFFFF" d="M140,294.1C140,294.1,140,294.1,140,294.1C140,294.1,140,294.1,140,294.1c-0.1,0-0.1,0-0.2,0
				C140,294.1,140,294.1,140,294.1z"/>
			<path fill="#FFFFFF" d="M143,294.6c-0.1,0-0.1,0-0.2,0C142.9,294.6,142.9,294.6,143,294.6z"/>
			<path fill="#FFFFFF" d="M138.7,294.1c-0.1,0-0.1,0-0.2,0C138.5,294.1,138.6,294.1,138.7,294.1z"/>
			<path fill="#FFFFFF" d="M137.2,294c0,0-0.1,0-0.1,0C137.1,294,137.2,294,137.2,294z"/>
		</g>
		<g>
			<g>
				<path fill="#FFFFFF" d="M101.7,287.8c-4.1-6.4-12.4-12.9-23.6-11.2c-7.3,1.1-17.4,8-17.5,20.5c-0.1,11.1,10.5,25.4,18.8,37
					c3.5,4.9,6.6,11,1.3,14c-2.6,1.5-7-1.2-9.3-4.6c-2.3-3.4-7.4-5-11.6-2.6c-4.8,2.8-3.9,8.2-3.1,10.7c2.6,7.9,15,16.1,28,13.1
					c14.1-3.3,16.5-17.8,11.3-28.2c-7.1-14.1-17.3-28-20.1-35.5c-0.9-2.5-2.3-8.6,3-11c4.9-2.3,9.2,0.9,11.2,4.9
					c1.5,3,5.9,5.6,9.6,4.4C103.8,298,105.2,293.2,101.7,287.8z"/>
			</g>
		</g>
		<g>
			<g>
				<path fill="#FFFFFF" d="M217.3,292.6c-4.1-6.4-12.4-12.9-23.7-11.1c-7.3,1.1-17.4,8.1-17.4,20.5c0,11.1,10.6,25.4,18.9,37
					c3.5,4.9,6.6,11,1.4,14c-2.6,1.5-7-1.2-9.3-4.6c-2.4-3.4-7.5-5-11.6-2.5c-4.8,2.8-3.9,8.2-3.1,10.7c2.7,7.8,15,16.1,28.1,13
					c14.1-3.3,16.5-17.9,11.2-28.2c-7.2-14-17.4-27.9-20.2-35.4c-0.9-2.5-2.3-8.6,2.9-11c4.9-2.3,9.2,0.9,11.2,4.9
					c1.5,3,5.9,5.6,9.6,4.3C219.5,302.8,220.8,298,217.3,292.6z"/>
			</g>
		</g>
	</g>
	<g>
		<g>
			<path fill="#FFFFFF" d="M389.4,383.8c-0.4-0.1-0.8-0.1-1.2-0.1c-4,0.1-7.7,3.7-8.1,7.7c-0.3,2.5,0.5,5,2.2,7
				c1.5,1.7,3.4,2.7,5.3,2.9c0.3,0,0.5,0,0.8,0c4.3-0.1,7.8-3.6,8.3-8.1C397.1,388.7,393.7,384.4,389.4,383.8z"/>
			<path fill="#FFFFFF" d="M393.1,486.1c4.9-0.4,8-5.3,7-11.1c-3-17.2-5.2-34.8-5.1-52.3c0-5.8-3.4-9.7-7.1-9.5
				c-3.6,0.1-7.1,3.9-7.2,9.5c-0.4,18.8-0.4,36.7,2.4,55.1C384,483.1,388.2,486.5,393.1,486.1z"/>
		</g>
		<g>
			<path fill="#FFFFFF" d="M217,418.5c-0.1,0-0.1,0-0.2,0C216.8,418.5,216.9,418.5,217,418.5z"/>
			<path fill="#FFFFFF" d="M214.6,418.5c-3.8,0-7.6,1-11,2.6c-4.2,1.9-7.8,4.8-10.7,8.4c-2.8,3.5-4.8,7.7-5.8,12.1
				c-1,4.6-0.9,9.5,0,14.1c1.5,8,5.8,17.1,14.3,19.2c2.1,0.5,4.4,0.4,6.3-0.6c1.8-0.9,3.2-2.5,3.8-4.4c0.6-1.9,0.4-4.1-0.6-5.9
				c-0.7-1.3-1.7-2.2-2.8-3.1c-2.5-2.1-4.4-4.8-5.5-7.9c-1.4-4.5-0.7-9.5,1.7-13.5c1.1-1.9,2.6-3.6,4.4-4.9c1.7-1.2,3.9-2.2,6-2.3
				c2.8-0.2,5.7,0.4,8.1,2c1.8,1.3,3.3,2.9,4.3,4.9c1.1,2.1,1.6,4.4,1.8,6.7c0.2,4.6-1.4,9.1-4.2,12.7c-1.7,2.1-4.2,3.6-5.4,6.2
				c-0.9,1.9-1.1,4-0.4,6c0.7,1.9,2.1,3.5,3.9,4.4c3.3,1.6,7.4,0.5,10.3-1.5c1.5-1,2.8-2.2,4-3.5c1.5-1.7,2.7-3.7,3.7-5.7
				c2.1-4.2,3.2-8.8,3.6-13.5c0.3-3.9-0.1-7.9-1.2-11.6c-2.7-8.6-9.4-15.8-17.8-19C221.9,419,218.2,418.4,214.6,418.5
				C214.1,418.5,215.1,418.5,214.6,418.5z"/>
			<path fill="#FFFFFF" d="M215.4,418.5C215.4,418.5,215.4,418.5,215.4,418.5C215.4,418.5,215.4,418.5,215.4,418.5
				c-0.1,0-0.1,0-0.2,0C215.4,418.5,215.4,418.5,215.4,418.5z"/>
			<path fill="#FFFFFF" d="M218.4,418.6c-0.1,0-0.1,0-0.2,0C218.3,418.6,218.3,418.6,218.4,418.6z"/>
			<path fill="#FFFFFF" d="M214,418.5c-0.1,0-0.1,0-0.2,0C213.9,418.5,214,418.5,214,418.5z"/>
			<path fill="#FFFFFF" d="M212.6,418.6c0,0-0.1,0-0.1,0C212.5,418.6,212.5,418.6,212.6,418.6z"/>
		</g>
		<g>
			<g>
				<path fill="#FFFFFF" d="M170.5,413.2c-5.2-5.6-14.5-10.5-25.2-6.8c-7,2.4-15.7,11-13.5,23.3c1.9,11,14.9,23.1,25.1,33.1
					c4.3,4.2,8.4,9.7,3.8,13.5c-2.3,1.9-7.1,0-10-2.9c-2.9-3-8.2-3.6-11.9-0.4c-4.2,3.6-2.4,8.8-1.1,11.1c4,7.3,17.6,13.2,29.9,7.9
					c13.3-5.7,13.1-20.5,6.1-29.7c-9.5-12.6-22-24.5-26.1-31.3c-1.4-2.3-3.8-8.1,0.9-11.4c4.4-3.1,9.3-0.7,11.9,2.8
					c2,2.7,6.8,4.5,10.2,2.6C174.4,422.9,174.9,418,170.5,413.2z"/>
			</g>
		</g>
		<g>
			<g>
				<path fill="#FFFFFF" d="M300.5,420.2c-3.8-6.6-11.8-13.5-23.1-12.2c-7.3,0.8-17.8,7.2-18.4,19.7c-0.6,11.1,9.3,25.9,17.1,37.9
					c3.3,5,6.1,11.3,0.7,14c-2.7,1.3-7-1.5-9.1-5c-2.2-3.5-7.2-5.3-11.5-3.1c-4.9,2.6-4.3,8-3.6,10.6c2.3,8,14.2,16.8,27.4,14.4
					c14.3-2.6,17.3-17,12.6-27.6c-6.5-14.4-16-28.8-18.5-36.4c-0.8-2.5-1.9-8.7,3.4-10.9c5-2,9.2,1.4,11,5.4
					c1.4,3.1,5.6,5.9,9.3,4.8C302.2,430.5,303.8,425.8,300.5,420.2z"/>
			</g>
		</g>
		<g>
			<g>
				<path fill="#FFFFFF" d="M357.3,416.6c-5.2-5.7-14.6-10.7-25.6-7.1c-7.2,2.3-16.2,10.9-14.3,23.2c1.7,11.1,14.7,23.4,24.9,33.5
					c4.3,4.2,8.4,9.8,3.6,13.6c-2.4,1.9-7.3,0-10.1-3c-2.9-3-8.3-3.7-12.1-0.6c-4.4,3.6-2.7,8.8-1.4,11.2
					c3.9,7.3,17.7,13.4,30.4,8.3c13.7-5.6,13.8-20.4,6.9-29.8c-9.4-12.7-21.9-24.8-26-31.8c-1.3-2.3-3.7-8.2,1.2-11.4
					c4.6-3.1,9.4-0.6,12.1,3c2,2.8,6.8,4.6,10.3,2.7C361,426.3,361.7,421.4,357.3,416.6z"/>
			</g>
		</g>
		<g>
			<g>
				<path fill="#FFFFFF" d="M458.7,415.3c-4.5-6.2-13.1-12.2-24.2-9.8c-7.2,1.5-16.9,9-16.2,21.5c0.6,11.1,12,24.8,20.9,35.9
					c3.8,4.7,7.2,10.6,2.1,13.9c-2.5,1.6-7.1-0.8-9.6-4c-2.5-3.3-7.7-4.5-11.7-1.9c-4.6,3.1-3.5,8.4-2.5,10.9
					c3.1,7.7,15.9,15.2,28.8,11.4c13.9-4.1,15.5-18.7,9.6-28.8c-7.9-13.6-18.9-26.9-22.2-34.3c-1.1-2.4-2.8-8.5,2.3-11.2
					c4.8-2.5,9.3,0.4,11.5,4.2c1.7,2.9,6.2,5.2,9.8,3.8C461.4,425.4,462.6,420.6,458.7,415.3z"/>
			</g>
		</g>
	</g>
</g>
</svg>
